G04 (created by PCBNEW-RS274X (2012-apr-16-27)-stable) date 2013-01-24T21:57:43 CET*
G01*
G70*
G90*
%MOIN*%
G04 Gerber Fmt 3.4, Leading zero omitted, Abs format*
%FSLAX34Y34*%
G04 APERTURE LIST*
%ADD10C,0.006000*%
%ADD11C,0.015000*%
%ADD12C,0.012000*%
%ADD13C,0.009800*%
%ADD14C,0.005000*%
%ADD15C,0.008000*%
%ADD16C,0.010000*%
%ADD17C,0.003900*%
%ADD18C,0.006300*%
%ADD19C,0.009900*%
%ADD20C,0.098700*%
%ADD21R,0.037700X0.098700*%
%ADD22R,0.098700X0.037700*%
%ADD23R,0.240500X0.102700*%
%ADD24R,0.100000X0.080000*%
%ADD25R,0.050000X0.040000*%
%ADD26R,0.075000X0.055000*%
%ADD27R,0.055000X0.075000*%
%ADD28R,0.065000X0.045000*%
%ADD29R,0.040000X0.065000*%
%ADD30R,0.118400X0.216900*%
%ADD31R,0.216900X0.118400*%
%ADD32C,0.118400*%
%ADD33R,0.086100X0.051500*%
%ADD34R,0.079100X0.083000*%
%ADD35R,0.079100X0.086900*%
%ADD36R,0.086900X0.079100*%
%ADD37R,0.071200X0.070800*%
%ADD38R,0.075100X0.070800*%
%ADD39R,0.088900X0.035700*%
%ADD40R,0.118400X0.076100*%
%ADD41R,0.075100X0.098700*%
%ADD42R,0.116500X0.071200*%
%ADD43R,0.047600X0.091900*%
G04 APERTURE END LIST*
G54D10*
G54D11*
X21102Y-16850D02*
X28976Y-16850D01*
X21102Y-18268D02*
X28976Y-18268D01*
G54D12*
X21455Y-17962D02*
X21211Y-17962D01*
X21211Y-17162D01*
X21820Y-17924D02*
X21771Y-17962D01*
X21674Y-17962D01*
X21625Y-17924D01*
X21601Y-17848D01*
X21601Y-17543D01*
X21625Y-17467D01*
X21674Y-17428D01*
X21771Y-17428D01*
X21820Y-17467D01*
X21844Y-17543D01*
X21844Y-17619D01*
X21601Y-17695D01*
X22283Y-17962D02*
X22283Y-17162D01*
X22283Y-17924D02*
X22235Y-17962D01*
X22137Y-17962D01*
X22088Y-17924D01*
X22064Y-17886D01*
X22040Y-17809D01*
X22040Y-17581D01*
X22064Y-17505D01*
X22088Y-17467D01*
X22137Y-17428D01*
X22235Y-17428D01*
X22283Y-17467D01*
X22819Y-17886D02*
X22795Y-17924D01*
X22722Y-17962D01*
X22673Y-17962D01*
X22600Y-17924D01*
X22551Y-17848D01*
X22527Y-17771D01*
X22503Y-17619D01*
X22503Y-17505D01*
X22527Y-17352D01*
X22551Y-17276D01*
X22600Y-17200D01*
X22673Y-17162D01*
X22722Y-17162D01*
X22795Y-17200D01*
X22819Y-17238D01*
X23258Y-17428D02*
X23258Y-17962D01*
X23039Y-17428D02*
X23039Y-17848D01*
X23063Y-17924D01*
X23112Y-17962D01*
X23185Y-17962D01*
X23234Y-17924D01*
X23258Y-17886D01*
X23502Y-17962D02*
X23502Y-17162D01*
X23502Y-17467D02*
X23551Y-17428D01*
X23648Y-17428D01*
X23697Y-17467D01*
X23721Y-17505D01*
X23746Y-17581D01*
X23746Y-17809D01*
X23721Y-17886D01*
X23697Y-17924D01*
X23648Y-17962D01*
X23551Y-17962D01*
X23502Y-17924D01*
X24160Y-17924D02*
X24111Y-17962D01*
X24014Y-17962D01*
X23965Y-17924D01*
X23941Y-17848D01*
X23941Y-17543D01*
X23965Y-17467D01*
X24014Y-17428D01*
X24111Y-17428D01*
X24160Y-17467D01*
X24184Y-17543D01*
X24184Y-17619D01*
X23941Y-17695D01*
X24672Y-17962D02*
X24380Y-17962D01*
X24526Y-17962D02*
X24526Y-17162D01*
X24477Y-17276D01*
X24428Y-17352D01*
X24380Y-17390D01*
X25160Y-17962D02*
X24868Y-17962D01*
X25014Y-17962D02*
X25014Y-17162D01*
X24965Y-17276D01*
X24916Y-17352D01*
X24868Y-17390D01*
X25258Y-18038D02*
X25648Y-18038D01*
X25989Y-17924D02*
X25941Y-17962D01*
X25843Y-17962D01*
X25794Y-17924D01*
X25770Y-17886D01*
X25746Y-17809D01*
X25746Y-17581D01*
X25770Y-17505D01*
X25794Y-17467D01*
X25843Y-17428D01*
X25941Y-17428D01*
X25989Y-17467D01*
X26136Y-17428D02*
X26331Y-17428D01*
X26209Y-17162D02*
X26209Y-17848D01*
X26233Y-17924D01*
X26282Y-17962D01*
X26331Y-17962D01*
X26502Y-17962D02*
X26502Y-17428D01*
X26502Y-17581D02*
X26526Y-17505D01*
X26551Y-17467D01*
X26599Y-17428D01*
X26648Y-17428D01*
X26892Y-17962D02*
X26843Y-17924D01*
X26819Y-17848D01*
X26819Y-17162D01*
X27477Y-17962D02*
X27477Y-17428D01*
X27477Y-17581D02*
X27501Y-17505D01*
X27526Y-17467D01*
X27574Y-17428D01*
X27623Y-17428D01*
X27989Y-17924D02*
X27940Y-17962D01*
X27843Y-17962D01*
X27794Y-17924D01*
X27770Y-17848D01*
X27770Y-17543D01*
X27794Y-17467D01*
X27843Y-17428D01*
X27940Y-17428D01*
X27989Y-17467D01*
X28013Y-17543D01*
X28013Y-17619D01*
X27770Y-17695D01*
X28184Y-17428D02*
X28306Y-17962D01*
X28428Y-17428D01*
X28599Y-17238D02*
X28623Y-17200D01*
X28672Y-17162D01*
X28794Y-17162D01*
X28842Y-17200D01*
X28867Y-17238D01*
X28891Y-17314D01*
X28891Y-17390D01*
X28867Y-17505D01*
X28574Y-17962D01*
X28891Y-17962D01*
G54D11*
X05827Y-30394D02*
X05827Y-16220D01*
X56220Y-30394D02*
X05827Y-30394D01*
X56220Y-16220D02*
X56220Y-30394D01*
X05827Y-16220D02*
X56220Y-16220D01*
G54D13*
X07683Y-16859D02*
X07983Y-16859D01*
X07833Y-17009D02*
X07833Y-16709D01*
X08358Y-16615D02*
X08171Y-16615D01*
X08152Y-16803D01*
X08171Y-16784D01*
X08208Y-16766D01*
X08302Y-16766D01*
X08340Y-16784D01*
X08358Y-16803D01*
X08377Y-16841D01*
X08377Y-16934D01*
X08358Y-16972D01*
X08340Y-16991D01*
X08302Y-17009D01*
X08208Y-17009D01*
X08171Y-16991D01*
X08152Y-16972D01*
X08490Y-16615D02*
X08621Y-17009D01*
X08752Y-16615D01*
G54D10*
X17310Y-20225D02*
X17310Y-20675D01*
X15130Y-20225D02*
X15130Y-20665D01*
X17310Y-20225D02*
X15130Y-20225D01*
X17780Y-21105D02*
X18210Y-21105D01*
X17790Y-23315D02*
X18210Y-23315D01*
X18210Y-23325D02*
X18220Y-21105D01*
X14240Y-23305D02*
X14230Y-21135D01*
X14930Y-23735D02*
X17760Y-23735D01*
X14240Y-21125D02*
X14650Y-21125D01*
X14690Y-23485D02*
X14690Y-20705D01*
X17770Y-20685D02*
X14730Y-20685D01*
X17770Y-23735D02*
X17770Y-20735D01*
X15100Y-24185D02*
X17320Y-24185D01*
X17320Y-24185D02*
X17320Y-23735D01*
X14920Y-23731D02*
X14690Y-23501D01*
X15100Y-24183D02*
X15100Y-23731D01*
X14690Y-23305D02*
X14238Y-23305D01*
X15282Y-23323D02*
X15278Y-23359D01*
X15267Y-23394D01*
X15250Y-23427D01*
X15227Y-23455D01*
X15199Y-23478D01*
X15166Y-23496D01*
X15131Y-23507D01*
X15095Y-23510D01*
X15059Y-23507D01*
X15024Y-23497D01*
X14992Y-23480D01*
X14963Y-23457D01*
X14939Y-23429D01*
X14922Y-23397D01*
X14911Y-23362D01*
X14907Y-23325D01*
X14910Y-23290D01*
X14920Y-23254D01*
X14936Y-23222D01*
X14959Y-23193D01*
X14987Y-23169D01*
X15019Y-23151D01*
X15054Y-23140D01*
X15091Y-23136D01*
X15126Y-23138D01*
X15161Y-23148D01*
X15194Y-23165D01*
X15223Y-23187D01*
X15247Y-23215D01*
X15265Y-23247D01*
X15277Y-23282D01*
X15281Y-23318D01*
X15282Y-23323D01*
X47861Y-20225D02*
X47861Y-20675D01*
X45681Y-20225D02*
X45681Y-20665D01*
X47861Y-20225D02*
X45681Y-20225D01*
X48331Y-21105D02*
X48761Y-21105D01*
X48341Y-23315D02*
X48761Y-23315D01*
X48761Y-23325D02*
X48771Y-21105D01*
X44791Y-23305D02*
X44781Y-21135D01*
X45481Y-23735D02*
X48311Y-23735D01*
X44791Y-21125D02*
X45201Y-21125D01*
X45241Y-23485D02*
X45241Y-20705D01*
X48321Y-20685D02*
X45281Y-20685D01*
X48321Y-23735D02*
X48321Y-20735D01*
X45651Y-24185D02*
X47871Y-24185D01*
X47871Y-24185D02*
X47871Y-23735D01*
X45471Y-23731D02*
X45241Y-23501D01*
X45651Y-24183D02*
X45651Y-23731D01*
X45241Y-23305D02*
X44789Y-23305D01*
X45833Y-23323D02*
X45829Y-23359D01*
X45818Y-23394D01*
X45801Y-23427D01*
X45778Y-23455D01*
X45750Y-23478D01*
X45717Y-23496D01*
X45682Y-23507D01*
X45646Y-23510D01*
X45610Y-23507D01*
X45575Y-23497D01*
X45543Y-23480D01*
X45514Y-23457D01*
X45490Y-23429D01*
X45473Y-23397D01*
X45462Y-23362D01*
X45458Y-23325D01*
X45461Y-23290D01*
X45471Y-23254D01*
X45487Y-23222D01*
X45510Y-23193D01*
X45538Y-23169D01*
X45570Y-23151D01*
X45605Y-23140D01*
X45642Y-23136D01*
X45677Y-23138D01*
X45712Y-23148D01*
X45745Y-23165D01*
X45774Y-23187D01*
X45798Y-23215D01*
X45816Y-23247D01*
X45828Y-23282D01*
X45832Y-23318D01*
X45833Y-23323D01*
G54D11*
X12973Y-28071D02*
X17579Y-28071D01*
X17579Y-26103D02*
X12973Y-26103D01*
X17579Y-28071D02*
X17579Y-27737D01*
X17579Y-26103D02*
X17579Y-26437D01*
X12973Y-28071D02*
X12973Y-27737D01*
X12973Y-26103D02*
X12973Y-26437D01*
X50020Y-26575D02*
X45414Y-26575D01*
X45414Y-28543D02*
X50020Y-28543D01*
X45414Y-26575D02*
X45414Y-26909D01*
X45414Y-28543D02*
X45414Y-28209D01*
X50020Y-26575D02*
X50020Y-26909D01*
X50020Y-28543D02*
X50020Y-28209D01*
G54D14*
X09314Y-25882D02*
X10214Y-25882D01*
X10214Y-25882D02*
X10214Y-25232D01*
X09314Y-24532D02*
X09314Y-23882D01*
X09314Y-23882D02*
X10214Y-23882D01*
X10214Y-23882D02*
X10214Y-24532D01*
X09314Y-25232D02*
X09314Y-25882D01*
X10889Y-25252D02*
X11789Y-25252D01*
X11789Y-25252D02*
X11789Y-24602D01*
X10889Y-23902D02*
X10889Y-23252D01*
X10889Y-23252D02*
X11789Y-23252D01*
X11789Y-23252D02*
X11789Y-23902D01*
X10889Y-24602D02*
X10889Y-25252D01*
X25547Y-28317D02*
X24847Y-28317D01*
X24847Y-28317D02*
X24847Y-27117D01*
X24847Y-27117D02*
X25547Y-27117D01*
X25547Y-27117D02*
X25547Y-28317D01*
X23657Y-28367D02*
X23656Y-28376D01*
X23653Y-28386D01*
X23648Y-28394D01*
X23642Y-28402D01*
X23634Y-28408D01*
X23626Y-28413D01*
X23617Y-28415D01*
X23607Y-28416D01*
X23598Y-28416D01*
X23589Y-28413D01*
X23580Y-28408D01*
X23573Y-28402D01*
X23566Y-28395D01*
X23562Y-28386D01*
X23559Y-28377D01*
X23558Y-28367D01*
X23558Y-28358D01*
X23561Y-28349D01*
X23565Y-28340D01*
X23572Y-28333D01*
X23579Y-28326D01*
X23587Y-28322D01*
X23597Y-28319D01*
X23606Y-28318D01*
X23615Y-28318D01*
X23625Y-28321D01*
X23633Y-28325D01*
X23641Y-28331D01*
X23647Y-28339D01*
X23652Y-28347D01*
X23655Y-28356D01*
X23656Y-28366D01*
X23657Y-28367D01*
X23607Y-27917D02*
X23607Y-28317D01*
X23607Y-28317D02*
X23007Y-28317D01*
X23007Y-28317D02*
X23007Y-27917D01*
X23007Y-27517D02*
X23007Y-27117D01*
X23007Y-27117D02*
X23607Y-27117D01*
X23607Y-27117D02*
X23607Y-27517D01*
X26959Y-28646D02*
X26958Y-28655D01*
X26955Y-28665D01*
X26950Y-28673D01*
X26944Y-28681D01*
X26936Y-28687D01*
X26928Y-28692D01*
X26919Y-28694D01*
X26909Y-28695D01*
X26900Y-28695D01*
X26891Y-28692D01*
X26882Y-28687D01*
X26875Y-28681D01*
X26868Y-28674D01*
X26864Y-28665D01*
X26861Y-28656D01*
X26860Y-28646D01*
X26860Y-28637D01*
X26863Y-28628D01*
X26867Y-28619D01*
X26874Y-28612D01*
X26881Y-28605D01*
X26889Y-28601D01*
X26899Y-28598D01*
X26908Y-28597D01*
X26917Y-28597D01*
X26927Y-28600D01*
X26935Y-28604D01*
X26943Y-28610D01*
X26949Y-28618D01*
X26954Y-28626D01*
X26957Y-28635D01*
X26958Y-28645D01*
X26959Y-28646D01*
X27359Y-28646D02*
X26959Y-28646D01*
X26959Y-28646D02*
X26959Y-28046D01*
X26959Y-28046D02*
X27359Y-28046D01*
X27759Y-28046D02*
X28159Y-28046D01*
X28159Y-28046D02*
X28159Y-28646D01*
X28159Y-28646D02*
X27759Y-28646D01*
X25897Y-25842D02*
X25896Y-25851D01*
X25893Y-25861D01*
X25888Y-25869D01*
X25882Y-25877D01*
X25874Y-25883D01*
X25866Y-25888D01*
X25857Y-25890D01*
X25847Y-25891D01*
X25838Y-25891D01*
X25829Y-25888D01*
X25820Y-25883D01*
X25813Y-25877D01*
X25806Y-25870D01*
X25802Y-25861D01*
X25799Y-25852D01*
X25798Y-25842D01*
X25798Y-25833D01*
X25801Y-25824D01*
X25805Y-25815D01*
X25812Y-25808D01*
X25819Y-25801D01*
X25827Y-25797D01*
X25837Y-25794D01*
X25846Y-25793D01*
X25855Y-25793D01*
X25865Y-25796D01*
X25873Y-25800D01*
X25881Y-25806D01*
X25887Y-25814D01*
X25892Y-25822D01*
X25895Y-25831D01*
X25896Y-25841D01*
X25897Y-25842D01*
X25397Y-25842D02*
X25797Y-25842D01*
X25797Y-25842D02*
X25797Y-26442D01*
X25797Y-26442D02*
X25397Y-26442D01*
X24997Y-26442D02*
X24597Y-26442D01*
X24597Y-26442D02*
X24597Y-25842D01*
X24597Y-25842D02*
X24997Y-25842D01*
X17393Y-28834D02*
X17392Y-28843D01*
X17389Y-28853D01*
X17384Y-28861D01*
X17378Y-28869D01*
X17370Y-28875D01*
X17362Y-28880D01*
X17353Y-28882D01*
X17343Y-28883D01*
X17334Y-28883D01*
X17325Y-28880D01*
X17316Y-28875D01*
X17309Y-28869D01*
X17302Y-28862D01*
X17298Y-28853D01*
X17295Y-28844D01*
X17294Y-28834D01*
X17294Y-28825D01*
X17297Y-28816D01*
X17301Y-28807D01*
X17308Y-28800D01*
X17315Y-28793D01*
X17323Y-28789D01*
X17333Y-28786D01*
X17342Y-28785D01*
X17351Y-28785D01*
X17361Y-28788D01*
X17369Y-28792D01*
X17377Y-28798D01*
X17383Y-28806D01*
X17388Y-28814D01*
X17391Y-28823D01*
X17392Y-28833D01*
X17393Y-28834D01*
X16893Y-28834D02*
X17293Y-28834D01*
X17293Y-28834D02*
X17293Y-29434D01*
X17293Y-29434D02*
X16893Y-29434D01*
X16493Y-29434D02*
X16093Y-29434D01*
X16093Y-29434D02*
X16093Y-28834D01*
X16093Y-28834D02*
X16493Y-28834D01*
X13258Y-29434D02*
X13257Y-29443D01*
X13254Y-29453D01*
X13249Y-29461D01*
X13243Y-29469D01*
X13235Y-29475D01*
X13227Y-29480D01*
X13218Y-29482D01*
X13208Y-29483D01*
X13199Y-29483D01*
X13190Y-29480D01*
X13181Y-29475D01*
X13174Y-29469D01*
X13167Y-29462D01*
X13163Y-29453D01*
X13160Y-29444D01*
X13159Y-29434D01*
X13159Y-29425D01*
X13162Y-29416D01*
X13166Y-29407D01*
X13173Y-29400D01*
X13180Y-29393D01*
X13188Y-29389D01*
X13198Y-29386D01*
X13207Y-29385D01*
X13216Y-29385D01*
X13226Y-29388D01*
X13234Y-29392D01*
X13242Y-29398D01*
X13248Y-29406D01*
X13253Y-29414D01*
X13256Y-29423D01*
X13257Y-29433D01*
X13258Y-29434D01*
X13658Y-29434D02*
X13258Y-29434D01*
X13258Y-29434D02*
X13258Y-28834D01*
X13258Y-28834D02*
X13658Y-28834D01*
X14058Y-28834D02*
X14458Y-28834D01*
X14458Y-28834D02*
X14458Y-29434D01*
X14458Y-29434D02*
X14058Y-29434D01*
X12506Y-20925D02*
X12505Y-20934D01*
X12502Y-20944D01*
X12497Y-20952D01*
X12491Y-20960D01*
X12483Y-20966D01*
X12475Y-20971D01*
X12466Y-20973D01*
X12456Y-20974D01*
X12447Y-20974D01*
X12438Y-20971D01*
X12429Y-20966D01*
X12422Y-20960D01*
X12415Y-20953D01*
X12411Y-20944D01*
X12408Y-20935D01*
X12407Y-20925D01*
X12407Y-20916D01*
X12410Y-20907D01*
X12414Y-20898D01*
X12421Y-20891D01*
X12428Y-20884D01*
X12436Y-20880D01*
X12446Y-20877D01*
X12455Y-20876D01*
X12464Y-20876D01*
X12474Y-20879D01*
X12482Y-20883D01*
X12490Y-20889D01*
X12496Y-20897D01*
X12501Y-20905D01*
X12504Y-20914D01*
X12505Y-20924D01*
X12506Y-20925D01*
X12456Y-21375D02*
X12456Y-20975D01*
X12456Y-20975D02*
X13056Y-20975D01*
X13056Y-20975D02*
X13056Y-21375D01*
X13056Y-21775D02*
X13056Y-22175D01*
X13056Y-22175D02*
X12456Y-22175D01*
X12456Y-22175D02*
X12456Y-21775D01*
X15778Y-25812D02*
X15777Y-25821D01*
X15774Y-25831D01*
X15769Y-25839D01*
X15763Y-25847D01*
X15755Y-25853D01*
X15747Y-25858D01*
X15738Y-25860D01*
X15728Y-25861D01*
X15719Y-25861D01*
X15710Y-25858D01*
X15701Y-25853D01*
X15694Y-25847D01*
X15687Y-25840D01*
X15683Y-25831D01*
X15680Y-25822D01*
X15679Y-25812D01*
X15679Y-25803D01*
X15682Y-25794D01*
X15686Y-25785D01*
X15693Y-25778D01*
X15700Y-25771D01*
X15708Y-25767D01*
X15718Y-25764D01*
X15727Y-25763D01*
X15736Y-25763D01*
X15746Y-25766D01*
X15754Y-25770D01*
X15762Y-25776D01*
X15768Y-25784D01*
X15773Y-25792D01*
X15776Y-25801D01*
X15777Y-25811D01*
X15778Y-25812D01*
X16178Y-25812D02*
X15778Y-25812D01*
X15778Y-25812D02*
X15778Y-25212D01*
X15778Y-25212D02*
X16178Y-25212D01*
X16578Y-25212D02*
X16978Y-25212D01*
X16978Y-25212D02*
X16978Y-25812D01*
X16978Y-25812D02*
X16578Y-25812D01*
X47314Y-25369D02*
X47313Y-25378D01*
X47310Y-25388D01*
X47305Y-25396D01*
X47299Y-25404D01*
X47291Y-25410D01*
X47283Y-25415D01*
X47274Y-25417D01*
X47264Y-25418D01*
X47255Y-25418D01*
X47246Y-25415D01*
X47237Y-25410D01*
X47230Y-25404D01*
X47223Y-25397D01*
X47219Y-25388D01*
X47216Y-25379D01*
X47215Y-25369D01*
X47215Y-25360D01*
X47218Y-25351D01*
X47222Y-25342D01*
X47229Y-25335D01*
X47236Y-25328D01*
X47244Y-25324D01*
X47254Y-25321D01*
X47263Y-25320D01*
X47272Y-25320D01*
X47282Y-25323D01*
X47290Y-25327D01*
X47298Y-25333D01*
X47304Y-25341D01*
X47309Y-25349D01*
X47312Y-25358D01*
X47313Y-25368D01*
X47314Y-25369D01*
X46814Y-25369D02*
X47214Y-25369D01*
X47214Y-25369D02*
X47214Y-25969D01*
X47214Y-25969D02*
X46814Y-25969D01*
X46414Y-25969D02*
X46014Y-25969D01*
X46014Y-25969D02*
X46014Y-25369D01*
X46014Y-25369D02*
X46414Y-25369D01*
X43530Y-27067D02*
X43529Y-27076D01*
X43526Y-27086D01*
X43521Y-27094D01*
X43515Y-27102D01*
X43507Y-27108D01*
X43499Y-27113D01*
X43490Y-27115D01*
X43480Y-27116D01*
X43471Y-27116D01*
X43462Y-27113D01*
X43453Y-27108D01*
X43446Y-27102D01*
X43439Y-27095D01*
X43435Y-27086D01*
X43432Y-27077D01*
X43431Y-27067D01*
X43431Y-27058D01*
X43434Y-27049D01*
X43438Y-27040D01*
X43445Y-27033D01*
X43452Y-27026D01*
X43460Y-27022D01*
X43470Y-27019D01*
X43479Y-27018D01*
X43488Y-27018D01*
X43498Y-27021D01*
X43506Y-27025D01*
X43514Y-27031D01*
X43520Y-27039D01*
X43525Y-27047D01*
X43528Y-27056D01*
X43529Y-27066D01*
X43530Y-27067D01*
X43480Y-27517D02*
X43480Y-27117D01*
X43480Y-27117D02*
X44080Y-27117D01*
X44080Y-27117D02*
X44080Y-27517D01*
X44080Y-27917D02*
X44080Y-28317D01*
X44080Y-28317D02*
X43480Y-28317D01*
X43480Y-28317D02*
X43480Y-27917D01*
X51404Y-27067D02*
X51403Y-27076D01*
X51400Y-27086D01*
X51395Y-27094D01*
X51389Y-27102D01*
X51381Y-27108D01*
X51373Y-27113D01*
X51364Y-27115D01*
X51354Y-27116D01*
X51345Y-27116D01*
X51336Y-27113D01*
X51327Y-27108D01*
X51320Y-27102D01*
X51313Y-27095D01*
X51309Y-27086D01*
X51306Y-27077D01*
X51305Y-27067D01*
X51305Y-27058D01*
X51308Y-27049D01*
X51312Y-27040D01*
X51319Y-27033D01*
X51326Y-27026D01*
X51334Y-27022D01*
X51344Y-27019D01*
X51353Y-27018D01*
X51362Y-27018D01*
X51372Y-27021D01*
X51380Y-27025D01*
X51388Y-27031D01*
X51394Y-27039D01*
X51399Y-27047D01*
X51402Y-27056D01*
X51403Y-27066D01*
X51404Y-27067D01*
X51354Y-27517D02*
X51354Y-27117D01*
X51354Y-27117D02*
X51954Y-27117D01*
X51954Y-27117D02*
X51954Y-27517D01*
X51954Y-27917D02*
X51954Y-28317D01*
X51954Y-28317D02*
X51354Y-28317D01*
X51354Y-28317D02*
X51354Y-27917D01*
X07809Y-21912D02*
X07809Y-22812D01*
X07809Y-22812D02*
X07309Y-22812D01*
X07309Y-22812D02*
X07309Y-21912D01*
X07309Y-21912D02*
X07809Y-21912D01*
X12786Y-20300D02*
X12785Y-20309D01*
X12782Y-20319D01*
X12777Y-20327D01*
X12771Y-20335D01*
X12763Y-20341D01*
X12755Y-20346D01*
X12746Y-20348D01*
X12736Y-20349D01*
X12727Y-20349D01*
X12718Y-20346D01*
X12709Y-20341D01*
X12702Y-20335D01*
X12695Y-20328D01*
X12691Y-20319D01*
X12688Y-20310D01*
X12687Y-20300D01*
X12687Y-20291D01*
X12690Y-20282D01*
X12694Y-20273D01*
X12701Y-20266D01*
X12708Y-20259D01*
X12716Y-20255D01*
X12726Y-20252D01*
X12735Y-20251D01*
X12744Y-20251D01*
X12754Y-20254D01*
X12762Y-20258D01*
X12770Y-20264D01*
X12776Y-20272D01*
X12781Y-20280D01*
X12784Y-20289D01*
X12785Y-20299D01*
X12786Y-20300D01*
X13186Y-20300D02*
X12786Y-20300D01*
X12786Y-20300D02*
X12786Y-19700D01*
X12786Y-19700D02*
X13186Y-19700D01*
X13586Y-19700D02*
X13986Y-19700D01*
X13986Y-19700D02*
X13986Y-20300D01*
X13986Y-20300D02*
X13586Y-20300D01*
X21925Y-25847D02*
X21924Y-25856D01*
X21921Y-25866D01*
X21916Y-25874D01*
X21910Y-25882D01*
X21902Y-25888D01*
X21894Y-25893D01*
X21885Y-25895D01*
X21875Y-25896D01*
X21866Y-25896D01*
X21857Y-25893D01*
X21848Y-25888D01*
X21841Y-25882D01*
X21834Y-25875D01*
X21830Y-25866D01*
X21827Y-25857D01*
X21826Y-25847D01*
X21826Y-25838D01*
X21829Y-25829D01*
X21833Y-25820D01*
X21840Y-25813D01*
X21847Y-25806D01*
X21855Y-25802D01*
X21865Y-25799D01*
X21874Y-25798D01*
X21883Y-25798D01*
X21893Y-25801D01*
X21901Y-25805D01*
X21909Y-25811D01*
X21915Y-25819D01*
X21920Y-25827D01*
X21923Y-25836D01*
X21924Y-25846D01*
X21925Y-25847D01*
X21875Y-25397D02*
X21875Y-25797D01*
X21875Y-25797D02*
X21275Y-25797D01*
X21275Y-25797D02*
X21275Y-25397D01*
X21275Y-24997D02*
X21275Y-24597D01*
X21275Y-24597D02*
X21875Y-24597D01*
X21875Y-24597D02*
X21875Y-24997D01*
X31566Y-27731D02*
X31565Y-27740D01*
X31562Y-27750D01*
X31557Y-27758D01*
X31551Y-27766D01*
X31543Y-27772D01*
X31535Y-27777D01*
X31526Y-27779D01*
X31516Y-27780D01*
X31507Y-27780D01*
X31498Y-27777D01*
X31489Y-27772D01*
X31482Y-27766D01*
X31475Y-27759D01*
X31471Y-27750D01*
X31468Y-27741D01*
X31467Y-27731D01*
X31467Y-27722D01*
X31470Y-27713D01*
X31474Y-27704D01*
X31481Y-27697D01*
X31488Y-27690D01*
X31496Y-27686D01*
X31506Y-27683D01*
X31515Y-27682D01*
X31524Y-27682D01*
X31534Y-27685D01*
X31542Y-27689D01*
X31550Y-27695D01*
X31556Y-27703D01*
X31561Y-27711D01*
X31564Y-27720D01*
X31565Y-27730D01*
X31566Y-27731D01*
X31066Y-27731D02*
X31466Y-27731D01*
X31466Y-27731D02*
X31466Y-28331D01*
X31466Y-28331D02*
X31066Y-28331D01*
X30666Y-28331D02*
X30266Y-28331D01*
X30266Y-28331D02*
X30266Y-27731D01*
X30266Y-27731D02*
X30666Y-27731D01*
G54D15*
X28716Y-24969D02*
X33016Y-24969D01*
X33016Y-24969D02*
X33016Y-26369D01*
X33016Y-26369D02*
X28716Y-26369D01*
X28716Y-26369D02*
X28716Y-24969D01*
X28716Y-25469D02*
X29016Y-25469D01*
X29016Y-25469D02*
X29016Y-25869D01*
X29016Y-25869D02*
X28716Y-25869D01*
G54D14*
X09786Y-19583D02*
X10686Y-19583D01*
X10686Y-19583D02*
X10686Y-18933D01*
X09786Y-18233D02*
X09786Y-17583D01*
X09786Y-17583D02*
X10686Y-17583D01*
X10686Y-17583D02*
X10686Y-18233D01*
X09786Y-18933D02*
X09786Y-19583D01*
G54D16*
X29527Y-17008D02*
X29527Y-22992D01*
X29527Y-22992D02*
X36063Y-22992D01*
X36063Y-22992D02*
X36063Y-17087D01*
G54D17*
X36063Y-17087D02*
X36063Y-17008D01*
G54D16*
X36063Y-17008D02*
X29527Y-17008D01*
X05788Y-27913D02*
X08032Y-27913D01*
X08032Y-27913D02*
X08032Y-24685D01*
X08032Y-24685D02*
X05788Y-24685D01*
X05788Y-24685D02*
X05788Y-27913D01*
G54D15*
X15922Y-22595D02*
X15422Y-22595D01*
X15875Y-22176D02*
X15899Y-22195D01*
X15922Y-22252D01*
X15922Y-22290D01*
X15899Y-22348D01*
X15851Y-22386D01*
X15803Y-22405D01*
X15708Y-22424D01*
X15637Y-22424D01*
X15541Y-22405D01*
X15494Y-22386D01*
X15446Y-22348D01*
X15422Y-22290D01*
X15422Y-22252D01*
X15446Y-22195D01*
X15470Y-22176D01*
X15922Y-21795D02*
X15922Y-22024D01*
X15922Y-21910D02*
X15422Y-21910D01*
X15494Y-21948D01*
X15541Y-21986D01*
X15565Y-22024D01*
X17172Y-22681D02*
X17172Y-22910D01*
X17172Y-22796D02*
X16672Y-22796D01*
X16744Y-22834D01*
X16791Y-22872D01*
X16815Y-22910D01*
X16672Y-22338D02*
X16672Y-22415D01*
X16696Y-22453D01*
X16720Y-22472D01*
X16791Y-22510D01*
X16887Y-22529D01*
X17077Y-22529D01*
X17125Y-22510D01*
X17149Y-22491D01*
X17172Y-22453D01*
X17172Y-22376D01*
X17149Y-22338D01*
X17125Y-22319D01*
X17077Y-22300D01*
X16958Y-22300D01*
X16910Y-22319D01*
X16887Y-22338D01*
X16863Y-22376D01*
X16863Y-22453D01*
X16887Y-22491D01*
X16910Y-22510D01*
X16958Y-22529D01*
X16672Y-22129D02*
X17077Y-22129D01*
X17125Y-22110D01*
X17149Y-22091D01*
X17172Y-22053D01*
X17172Y-21976D01*
X17149Y-21938D01*
X17125Y-21919D01*
X17077Y-21900D01*
X16672Y-21900D01*
X16720Y-21729D02*
X16696Y-21710D01*
X16672Y-21672D01*
X16672Y-21576D01*
X16696Y-21538D01*
X16720Y-21519D01*
X16768Y-21500D01*
X16815Y-21500D01*
X16887Y-21519D01*
X17172Y-21748D01*
X17172Y-21500D01*
X46473Y-22595D02*
X45973Y-22595D01*
X46426Y-22176D02*
X46450Y-22195D01*
X46473Y-22252D01*
X46473Y-22290D01*
X46450Y-22348D01*
X46402Y-22386D01*
X46354Y-22405D01*
X46259Y-22424D01*
X46188Y-22424D01*
X46092Y-22405D01*
X46045Y-22386D01*
X45997Y-22348D01*
X45973Y-22290D01*
X45973Y-22252D01*
X45997Y-22195D01*
X46021Y-22176D01*
X46021Y-22024D02*
X45997Y-22005D01*
X45973Y-21967D01*
X45973Y-21871D01*
X45997Y-21833D01*
X46021Y-21814D01*
X46069Y-21795D01*
X46116Y-21795D01*
X46188Y-21814D01*
X46473Y-22043D01*
X46473Y-21795D01*
X47223Y-22719D02*
X47223Y-22471D01*
X47414Y-22605D01*
X47414Y-22547D01*
X47438Y-22509D01*
X47461Y-22490D01*
X47509Y-22471D01*
X47628Y-22471D01*
X47676Y-22490D01*
X47700Y-22509D01*
X47723Y-22547D01*
X47723Y-22662D01*
X47700Y-22700D01*
X47676Y-22719D01*
X47271Y-22319D02*
X47247Y-22300D01*
X47223Y-22262D01*
X47223Y-22166D01*
X47247Y-22128D01*
X47271Y-22109D01*
X47319Y-22090D01*
X47366Y-22090D01*
X47438Y-22109D01*
X47723Y-22338D01*
X47723Y-22090D01*
X47438Y-21862D02*
X47414Y-21900D01*
X47390Y-21919D01*
X47342Y-21938D01*
X47319Y-21938D01*
X47271Y-21919D01*
X47247Y-21900D01*
X47223Y-21862D01*
X47223Y-21785D01*
X47247Y-21747D01*
X47271Y-21728D01*
X47319Y-21709D01*
X47342Y-21709D01*
X47390Y-21728D01*
X47414Y-21747D01*
X47438Y-21785D01*
X47438Y-21862D01*
X47461Y-21900D01*
X47485Y-21919D01*
X47533Y-21938D01*
X47628Y-21938D01*
X47676Y-21919D01*
X47700Y-21900D01*
X47723Y-21862D01*
X47723Y-21785D01*
X47700Y-21747D01*
X47676Y-21728D01*
X47628Y-21709D01*
X47533Y-21709D01*
X47485Y-21728D01*
X47461Y-21747D01*
X47438Y-21785D01*
G54D18*
X09149Y-24838D02*
X08990Y-24949D01*
X09149Y-25029D02*
X08814Y-25029D01*
X08814Y-24902D01*
X08830Y-24870D01*
X08846Y-24854D01*
X08878Y-24838D01*
X08926Y-24838D01*
X08958Y-24854D01*
X08974Y-24870D01*
X08990Y-24902D01*
X08990Y-25029D01*
X09149Y-24519D02*
X09149Y-24710D01*
X09149Y-24614D02*
X08814Y-24614D01*
X08862Y-24646D01*
X08894Y-24678D01*
X08910Y-24710D01*
X10724Y-24208D02*
X10565Y-24319D01*
X10724Y-24399D02*
X10389Y-24399D01*
X10389Y-24272D01*
X10405Y-24240D01*
X10421Y-24224D01*
X10453Y-24208D01*
X10501Y-24208D01*
X10533Y-24224D01*
X10549Y-24240D01*
X10565Y-24272D01*
X10565Y-24399D01*
X10421Y-24080D02*
X10405Y-24064D01*
X10389Y-24032D01*
X10389Y-23953D01*
X10405Y-23921D01*
X10421Y-23905D01*
X10453Y-23889D01*
X10485Y-23889D01*
X10533Y-23905D01*
X10724Y-24096D01*
X10724Y-23889D01*
X24942Y-28619D02*
X24942Y-28890D01*
X24958Y-28922D01*
X24974Y-28938D01*
X25006Y-28954D01*
X25069Y-28954D01*
X25101Y-28938D01*
X25117Y-28922D01*
X25133Y-28890D01*
X25133Y-28619D01*
X25261Y-28619D02*
X25468Y-28619D01*
X25357Y-28747D01*
X25404Y-28747D01*
X25436Y-28763D01*
X25452Y-28779D01*
X25468Y-28811D01*
X25468Y-28890D01*
X25452Y-28922D01*
X25436Y-28938D01*
X25404Y-28954D01*
X25309Y-28954D01*
X25277Y-28938D01*
X25261Y-28922D01*
X22780Y-27773D02*
X22796Y-27789D01*
X22812Y-27837D01*
X22812Y-27869D01*
X22796Y-27916D01*
X22764Y-27948D01*
X22732Y-27964D01*
X22669Y-27980D01*
X22621Y-27980D01*
X22557Y-27964D01*
X22525Y-27948D01*
X22493Y-27916D01*
X22477Y-27869D01*
X22477Y-27837D01*
X22493Y-27789D01*
X22509Y-27773D01*
X22621Y-27581D02*
X22605Y-27613D01*
X22589Y-27629D01*
X22557Y-27645D01*
X22541Y-27645D01*
X22509Y-27629D01*
X22493Y-27613D01*
X22477Y-27581D01*
X22477Y-27518D01*
X22493Y-27486D01*
X22509Y-27470D01*
X22541Y-27454D01*
X22557Y-27454D01*
X22589Y-27470D01*
X22605Y-27486D01*
X22621Y-27518D01*
X22621Y-27581D01*
X22637Y-27613D01*
X22653Y-27629D01*
X22684Y-27645D01*
X22748Y-27645D01*
X22780Y-27629D01*
X22796Y-27613D01*
X22812Y-27581D01*
X22812Y-27518D01*
X22796Y-27486D01*
X22780Y-27470D01*
X22748Y-27454D01*
X22684Y-27454D01*
X22653Y-27470D01*
X22637Y-27486D01*
X22621Y-27518D01*
X27503Y-27820D02*
X27487Y-27836D01*
X27439Y-27852D01*
X27407Y-27852D01*
X27360Y-27836D01*
X27328Y-27804D01*
X27312Y-27772D01*
X27296Y-27709D01*
X27296Y-27661D01*
X27312Y-27597D01*
X27328Y-27565D01*
X27360Y-27533D01*
X27407Y-27517D01*
X27439Y-27517D01*
X27487Y-27533D01*
X27503Y-27549D01*
X27663Y-27852D02*
X27727Y-27852D01*
X27758Y-27836D01*
X27774Y-27820D01*
X27806Y-27772D01*
X27822Y-27709D01*
X27822Y-27581D01*
X27806Y-27549D01*
X27790Y-27533D01*
X27758Y-27517D01*
X27695Y-27517D01*
X27663Y-27533D01*
X27647Y-27549D01*
X27631Y-27581D01*
X27631Y-27661D01*
X27647Y-27693D01*
X27663Y-27709D01*
X27695Y-27724D01*
X27758Y-27724D01*
X27790Y-27709D01*
X27806Y-27693D01*
X27822Y-27661D01*
X24982Y-25615D02*
X24966Y-25631D01*
X24918Y-25647D01*
X24886Y-25647D01*
X24839Y-25631D01*
X24807Y-25599D01*
X24791Y-25567D01*
X24775Y-25504D01*
X24775Y-25456D01*
X24791Y-25392D01*
X24807Y-25360D01*
X24839Y-25328D01*
X24886Y-25312D01*
X24918Y-25312D01*
X24966Y-25328D01*
X24982Y-25344D01*
X25301Y-25647D02*
X25110Y-25647D01*
X25206Y-25647D02*
X25206Y-25312D01*
X25174Y-25360D01*
X25142Y-25392D01*
X25110Y-25408D01*
X25509Y-25312D02*
X25540Y-25312D01*
X25572Y-25328D01*
X25588Y-25344D01*
X25604Y-25376D01*
X25620Y-25440D01*
X25620Y-25519D01*
X25604Y-25583D01*
X25588Y-25615D01*
X25572Y-25631D01*
X25540Y-25647D01*
X25509Y-25647D01*
X25477Y-25631D01*
X25461Y-25615D01*
X25445Y-25583D01*
X25429Y-25519D01*
X25429Y-25440D01*
X25445Y-25376D01*
X25461Y-25344D01*
X25477Y-25328D01*
X25509Y-25312D01*
X16637Y-28607D02*
X16621Y-28623D01*
X16573Y-28639D01*
X16541Y-28639D01*
X16494Y-28623D01*
X16462Y-28591D01*
X16446Y-28559D01*
X16430Y-28496D01*
X16430Y-28448D01*
X16446Y-28384D01*
X16462Y-28352D01*
X16494Y-28320D01*
X16541Y-28304D01*
X16573Y-28304D01*
X16621Y-28320D01*
X16637Y-28336D01*
X16956Y-28639D02*
X16765Y-28639D01*
X16861Y-28639D02*
X16861Y-28304D01*
X16829Y-28352D01*
X16797Y-28384D01*
X16765Y-28400D01*
X13802Y-28607D02*
X13786Y-28623D01*
X13738Y-28639D01*
X13706Y-28639D01*
X13659Y-28623D01*
X13627Y-28591D01*
X13611Y-28559D01*
X13595Y-28496D01*
X13595Y-28448D01*
X13611Y-28384D01*
X13627Y-28352D01*
X13659Y-28320D01*
X13706Y-28304D01*
X13738Y-28304D01*
X13786Y-28320D01*
X13802Y-28336D01*
X13930Y-28336D02*
X13946Y-28320D01*
X13978Y-28304D01*
X14057Y-28304D01*
X14089Y-28320D01*
X14105Y-28336D01*
X14121Y-28368D01*
X14121Y-28400D01*
X14105Y-28448D01*
X13914Y-28639D01*
X14121Y-28639D01*
X12229Y-21631D02*
X12245Y-21647D01*
X12261Y-21695D01*
X12261Y-21727D01*
X12245Y-21774D01*
X12213Y-21806D01*
X12181Y-21822D01*
X12118Y-21838D01*
X12070Y-21838D01*
X12006Y-21822D01*
X11974Y-21806D01*
X11942Y-21774D01*
X11926Y-21727D01*
X11926Y-21695D01*
X11942Y-21647D01*
X11958Y-21631D01*
X11926Y-21519D02*
X11926Y-21312D01*
X12054Y-21423D01*
X12054Y-21376D01*
X12070Y-21344D01*
X12086Y-21328D01*
X12118Y-21312D01*
X12197Y-21312D01*
X12229Y-21328D01*
X12245Y-21344D01*
X12261Y-21376D01*
X12261Y-21471D01*
X12245Y-21503D01*
X12229Y-21519D01*
X17267Y-25615D02*
X17251Y-25631D01*
X17203Y-25647D01*
X17171Y-25647D01*
X17124Y-25631D01*
X17092Y-25599D01*
X17076Y-25567D01*
X17060Y-25504D01*
X17060Y-25456D01*
X17076Y-25392D01*
X17092Y-25360D01*
X17124Y-25328D01*
X17171Y-25312D01*
X17203Y-25312D01*
X17251Y-25328D01*
X17267Y-25344D01*
X17554Y-25424D02*
X17554Y-25647D01*
X17475Y-25296D02*
X17395Y-25535D01*
X17602Y-25535D01*
X47661Y-25772D02*
X47645Y-25788D01*
X47597Y-25804D01*
X47565Y-25804D01*
X47518Y-25788D01*
X47486Y-25756D01*
X47470Y-25724D01*
X47454Y-25661D01*
X47454Y-25613D01*
X47470Y-25549D01*
X47486Y-25517D01*
X47518Y-25485D01*
X47565Y-25469D01*
X47597Y-25469D01*
X47645Y-25485D01*
X47661Y-25501D01*
X47964Y-25469D02*
X47805Y-25469D01*
X47789Y-25629D01*
X47805Y-25613D01*
X47837Y-25597D01*
X47916Y-25597D01*
X47948Y-25613D01*
X47964Y-25629D01*
X47980Y-25661D01*
X47980Y-25740D01*
X47964Y-25772D01*
X47948Y-25788D01*
X47916Y-25804D01*
X47837Y-25804D01*
X47805Y-25788D01*
X47789Y-25772D01*
X43253Y-27773D02*
X43269Y-27789D01*
X43285Y-27837D01*
X43285Y-27869D01*
X43269Y-27916D01*
X43237Y-27948D01*
X43205Y-27964D01*
X43142Y-27980D01*
X43094Y-27980D01*
X43030Y-27964D01*
X42998Y-27948D01*
X42966Y-27916D01*
X42950Y-27869D01*
X42950Y-27837D01*
X42966Y-27789D01*
X42982Y-27773D01*
X42950Y-27486D02*
X42950Y-27549D01*
X42966Y-27581D01*
X42982Y-27597D01*
X43030Y-27629D01*
X43094Y-27645D01*
X43221Y-27645D01*
X43253Y-27629D01*
X43269Y-27613D01*
X43285Y-27581D01*
X43285Y-27518D01*
X43269Y-27486D01*
X43253Y-27470D01*
X43221Y-27454D01*
X43142Y-27454D01*
X43110Y-27470D01*
X43094Y-27486D01*
X43078Y-27518D01*
X43078Y-27581D01*
X43094Y-27613D01*
X43110Y-27629D01*
X43142Y-27645D01*
X52544Y-27773D02*
X52560Y-27789D01*
X52576Y-27837D01*
X52576Y-27869D01*
X52560Y-27916D01*
X52528Y-27948D01*
X52496Y-27964D01*
X52433Y-27980D01*
X52385Y-27980D01*
X52321Y-27964D01*
X52289Y-27948D01*
X52257Y-27916D01*
X52241Y-27869D01*
X52241Y-27837D01*
X52257Y-27789D01*
X52273Y-27773D01*
X52241Y-27661D02*
X52241Y-27438D01*
X52576Y-27581D01*
X08324Y-22418D02*
X08324Y-22577D01*
X07989Y-22577D01*
X08324Y-22131D02*
X08324Y-22322D01*
X08324Y-22226D02*
X07989Y-22226D01*
X08037Y-22258D01*
X08069Y-22290D01*
X08085Y-22322D01*
X13330Y-20765D02*
X13219Y-20606D01*
X13139Y-20765D02*
X13139Y-20430D01*
X13266Y-20430D01*
X13298Y-20446D01*
X13314Y-20462D01*
X13330Y-20494D01*
X13330Y-20542D01*
X13314Y-20574D01*
X13298Y-20590D01*
X13266Y-20606D01*
X13139Y-20606D01*
X13442Y-20430D02*
X13649Y-20430D01*
X13538Y-20558D01*
X13585Y-20558D01*
X13617Y-20574D01*
X13633Y-20590D01*
X13649Y-20622D01*
X13649Y-20701D01*
X13633Y-20733D01*
X13617Y-20749D01*
X13585Y-20765D01*
X13490Y-20765D01*
X13458Y-20749D01*
X13442Y-20733D01*
X21080Y-25253D02*
X20921Y-25364D01*
X21080Y-25444D02*
X20745Y-25444D01*
X20745Y-25317D01*
X20761Y-25285D01*
X20777Y-25269D01*
X20809Y-25253D01*
X20857Y-25253D01*
X20889Y-25269D01*
X20905Y-25285D01*
X20921Y-25317D01*
X20921Y-25444D01*
X20857Y-24966D02*
X21080Y-24966D01*
X20729Y-25045D02*
X20968Y-25125D01*
X20968Y-24918D01*
X30651Y-28764D02*
X30635Y-28780D01*
X30587Y-28796D01*
X30555Y-28796D01*
X30508Y-28780D01*
X30476Y-28748D01*
X30460Y-28716D01*
X30444Y-28653D01*
X30444Y-28605D01*
X30460Y-28541D01*
X30476Y-28509D01*
X30508Y-28477D01*
X30555Y-28461D01*
X30587Y-28461D01*
X30635Y-28477D01*
X30651Y-28493D01*
X30970Y-28796D02*
X30779Y-28796D01*
X30875Y-28796D02*
X30875Y-28461D01*
X30843Y-28509D01*
X30811Y-28541D01*
X30779Y-28557D01*
X31289Y-28796D02*
X31098Y-28796D01*
X31194Y-28796D02*
X31194Y-28461D01*
X31162Y-28509D01*
X31130Y-28541D01*
X31098Y-28557D01*
G54D14*
X30523Y-25131D02*
X30523Y-25455D01*
X30545Y-25493D01*
X30566Y-25512D01*
X30609Y-25531D01*
X30695Y-25531D01*
X30737Y-25512D01*
X30759Y-25493D01*
X30780Y-25455D01*
X30780Y-25131D01*
X30973Y-25169D02*
X30994Y-25150D01*
X31037Y-25131D01*
X31144Y-25131D01*
X31187Y-25150D01*
X31208Y-25169D01*
X31230Y-25207D01*
X31230Y-25245D01*
X31208Y-25302D01*
X30951Y-25531D01*
X31230Y-25531D01*
X30308Y-25864D02*
X30308Y-26131D01*
X30201Y-25712D02*
X30094Y-25998D01*
X30372Y-25998D01*
X30630Y-25731D02*
X30673Y-25731D01*
X30716Y-25750D01*
X30737Y-25769D01*
X30758Y-25807D01*
X30780Y-25883D01*
X30780Y-25979D01*
X30758Y-26055D01*
X30737Y-26093D01*
X30716Y-26112D01*
X30673Y-26131D01*
X30630Y-26131D01*
X30587Y-26112D01*
X30566Y-26093D01*
X30544Y-26055D01*
X30523Y-25979D01*
X30523Y-25883D01*
X30544Y-25807D01*
X30566Y-25769D01*
X30587Y-25750D01*
X30630Y-25731D01*
X31187Y-25731D02*
X30973Y-25731D01*
X30952Y-25921D01*
X30973Y-25902D01*
X31016Y-25883D01*
X31123Y-25883D01*
X31166Y-25902D01*
X31187Y-25921D01*
X31209Y-25959D01*
X31209Y-26055D01*
X31187Y-26093D01*
X31166Y-26112D01*
X31123Y-26131D01*
X31016Y-26131D01*
X30973Y-26112D01*
X30952Y-26093D01*
X31488Y-25731D02*
X31531Y-25731D01*
X31574Y-25750D01*
X31595Y-25769D01*
X31616Y-25807D01*
X31638Y-25883D01*
X31638Y-25979D01*
X31616Y-26055D01*
X31595Y-26093D01*
X31574Y-26112D01*
X31531Y-26131D01*
X31488Y-26131D01*
X31445Y-26112D01*
X31424Y-26093D01*
X31402Y-26055D01*
X31381Y-25979D01*
X31381Y-25883D01*
X31402Y-25807D01*
X31424Y-25769D01*
X31445Y-25750D01*
X31488Y-25731D01*
G54D18*
X10021Y-20103D02*
X10005Y-20119D01*
X09957Y-20135D01*
X09925Y-20135D01*
X09878Y-20119D01*
X09846Y-20087D01*
X09830Y-20055D01*
X09814Y-19992D01*
X09814Y-19944D01*
X09830Y-19880D01*
X09846Y-19848D01*
X09878Y-19816D01*
X09925Y-19800D01*
X09957Y-19800D01*
X10005Y-19816D01*
X10021Y-19832D01*
X10340Y-20135D02*
X10149Y-20135D01*
X10245Y-20135D02*
X10245Y-19800D01*
X10213Y-19848D01*
X10181Y-19880D01*
X10149Y-19896D01*
X10468Y-19832D02*
X10484Y-19816D01*
X10516Y-19800D01*
X10595Y-19800D01*
X10627Y-19816D01*
X10643Y-19832D01*
X10659Y-19864D01*
X10659Y-19896D01*
X10643Y-19944D01*
X10452Y-20135D01*
X10659Y-20135D01*
G54D13*
X15776Y-19057D02*
X15645Y-18870D01*
X15551Y-19057D02*
X15551Y-18663D01*
X15701Y-18663D01*
X15738Y-18682D01*
X15757Y-18701D01*
X15776Y-18739D01*
X15776Y-18795D01*
X15757Y-18832D01*
X15738Y-18851D01*
X15701Y-18870D01*
X15551Y-18870D01*
X15945Y-18851D02*
X16076Y-18851D01*
X16132Y-19057D02*
X15945Y-19057D01*
X15945Y-18663D01*
X16132Y-18663D01*
X16282Y-19039D02*
X16338Y-19057D01*
X16432Y-19057D01*
X16470Y-19039D01*
X16488Y-19020D01*
X16507Y-18982D01*
X16507Y-18945D01*
X16488Y-18907D01*
X16470Y-18889D01*
X16432Y-18870D01*
X16357Y-18851D01*
X16320Y-18832D01*
X16301Y-18814D01*
X16282Y-18776D01*
X16282Y-18739D01*
X16301Y-18701D01*
X16320Y-18682D01*
X16357Y-18663D01*
X16451Y-18663D01*
X16507Y-18682D01*
X16676Y-18851D02*
X16807Y-18851D01*
X16863Y-19057D02*
X16676Y-19057D01*
X16676Y-18663D01*
X16863Y-18663D01*
X16976Y-18663D02*
X17201Y-18663D01*
X17088Y-19057D02*
X17088Y-18663D01*
X17538Y-19057D02*
X17313Y-19057D01*
X17426Y-19057D02*
X17426Y-18663D01*
X17388Y-18720D01*
X17351Y-18757D01*
X17313Y-18776D01*
X07889Y-20099D02*
X07852Y-20080D01*
X07795Y-20080D01*
X07739Y-20099D01*
X07702Y-20137D01*
X07683Y-20174D01*
X07664Y-20249D01*
X07664Y-20306D01*
X07683Y-20381D01*
X07702Y-20418D01*
X07739Y-20456D01*
X07795Y-20474D01*
X07833Y-20474D01*
X07889Y-20456D01*
X07908Y-20437D01*
X07908Y-20306D01*
X07833Y-20306D01*
X08077Y-20474D02*
X08077Y-20080D01*
X08302Y-20474D01*
X08302Y-20080D01*
X08490Y-20474D02*
X08490Y-20080D01*
X08584Y-20080D01*
X08640Y-20099D01*
X08677Y-20137D01*
X08696Y-20174D01*
X08715Y-20249D01*
X08715Y-20306D01*
X08696Y-20381D01*
X08677Y-20418D01*
X08640Y-20456D01*
X08584Y-20474D01*
X08490Y-20474D01*
G54D19*
X20343Y-21891D02*
X20212Y-21704D01*
X20118Y-21891D02*
X20118Y-21497D01*
X20268Y-21497D01*
X20305Y-21516D01*
X20324Y-21535D01*
X20343Y-21573D01*
X20343Y-21629D01*
X20324Y-21666D01*
X20305Y-21685D01*
X20268Y-21704D01*
X20118Y-21704D01*
X20512Y-21685D02*
X20643Y-21685D01*
X20699Y-21891D02*
X20512Y-21891D01*
X20512Y-21497D01*
X20699Y-21497D01*
X20849Y-21873D02*
X20905Y-21891D01*
X20999Y-21891D01*
X21037Y-21873D01*
X21055Y-21854D01*
X21074Y-21816D01*
X21074Y-21779D01*
X21055Y-21741D01*
X21037Y-21723D01*
X20999Y-21704D01*
X20924Y-21685D01*
X20887Y-21666D01*
X20868Y-21648D01*
X20849Y-21610D01*
X20849Y-21573D01*
X20868Y-21535D01*
X20887Y-21516D01*
X20924Y-21497D01*
X21018Y-21497D01*
X21074Y-21516D01*
X21243Y-21685D02*
X21374Y-21685D01*
X21430Y-21891D02*
X21243Y-21891D01*
X21243Y-21497D01*
X21430Y-21497D01*
X21543Y-21497D02*
X21768Y-21497D01*
X21655Y-21891D02*
X21655Y-21497D01*
X21880Y-21535D02*
X21899Y-21516D01*
X21936Y-21497D01*
X22030Y-21497D01*
X22068Y-21516D01*
X22086Y-21535D01*
X22105Y-21573D01*
X22105Y-21610D01*
X22086Y-21666D01*
X21861Y-21891D01*
X22105Y-21891D01*
G54D12*
X20088Y-19742D02*
X20174Y-19771D01*
X20317Y-19771D01*
X20374Y-19742D01*
X20403Y-19714D01*
X20431Y-19657D01*
X20431Y-19599D01*
X20403Y-19542D01*
X20374Y-19514D01*
X20317Y-19485D01*
X20203Y-19457D01*
X20145Y-19428D01*
X20117Y-19399D01*
X20088Y-19342D01*
X20088Y-19285D01*
X20117Y-19228D01*
X20145Y-19199D01*
X20203Y-19171D01*
X20345Y-19171D01*
X20431Y-19199D01*
X21031Y-19714D02*
X21002Y-19742D01*
X20916Y-19771D01*
X20859Y-19771D01*
X20774Y-19742D01*
X20716Y-19685D01*
X20688Y-19628D01*
X20659Y-19514D01*
X20659Y-19428D01*
X20688Y-19314D01*
X20716Y-19257D01*
X20774Y-19199D01*
X20859Y-19171D01*
X20916Y-19171D01*
X21002Y-19199D01*
X21031Y-19228D01*
X21574Y-19771D02*
X21288Y-19771D01*
X21288Y-19171D01*
X21774Y-19771D02*
X21774Y-19171D01*
X22117Y-19771D02*
X21860Y-19428D01*
X22117Y-19171D02*
X21774Y-19514D01*
X22994Y-19456D02*
X22994Y-18856D01*
X23194Y-19284D01*
X23394Y-18856D01*
X23394Y-19456D01*
X23794Y-18856D02*
X23908Y-18856D01*
X23966Y-18884D01*
X24023Y-18942D01*
X24051Y-19056D01*
X24051Y-19256D01*
X24023Y-19370D01*
X23966Y-19427D01*
X23908Y-19456D01*
X23794Y-19456D01*
X23737Y-19427D01*
X23680Y-19370D01*
X23651Y-19256D01*
X23651Y-19056D01*
X23680Y-18942D01*
X23737Y-18884D01*
X23794Y-18856D01*
X24280Y-19427D02*
X24366Y-19456D01*
X24509Y-19456D01*
X24566Y-19427D01*
X24595Y-19399D01*
X24623Y-19342D01*
X24623Y-19284D01*
X24595Y-19227D01*
X24566Y-19199D01*
X24509Y-19170D01*
X24395Y-19142D01*
X24337Y-19113D01*
X24309Y-19084D01*
X24280Y-19027D01*
X24280Y-18970D01*
X24309Y-18913D01*
X24337Y-18884D01*
X24395Y-18856D01*
X24537Y-18856D01*
X24623Y-18884D01*
X24880Y-19456D02*
X24880Y-18856D01*
X17797Y-19298D02*
X17797Y-18698D01*
X17997Y-19126D01*
X18197Y-18698D01*
X18197Y-19298D01*
X18483Y-19298D02*
X18483Y-18698D01*
X18740Y-19269D02*
X18826Y-19298D01*
X18969Y-19298D01*
X19026Y-19269D01*
X19055Y-19241D01*
X19083Y-19184D01*
X19083Y-19126D01*
X19055Y-19069D01*
X19026Y-19041D01*
X18969Y-19012D01*
X18855Y-18984D01*
X18797Y-18955D01*
X18769Y-18926D01*
X18740Y-18869D01*
X18740Y-18812D01*
X18769Y-18755D01*
X18797Y-18726D01*
X18855Y-18698D01*
X18997Y-18698D01*
X19083Y-18726D01*
X19454Y-18698D02*
X19568Y-18698D01*
X19626Y-18726D01*
X19683Y-18784D01*
X19711Y-18898D01*
X19711Y-19098D01*
X19683Y-19212D01*
X19626Y-19269D01*
X19568Y-19298D01*
X19454Y-19298D01*
X19397Y-19269D01*
X19340Y-19212D01*
X19311Y-19098D01*
X19311Y-18898D01*
X19340Y-18784D01*
X19397Y-18726D01*
X19454Y-18698D01*
%LPC*%
G54D20*
X09291Y-29134D03*
X50236Y-25039D03*
G54D21*
X17313Y-24101D03*
X16998Y-24101D03*
X16683Y-24101D03*
X16368Y-24101D03*
X16053Y-24101D03*
X15738Y-24101D03*
X15423Y-24101D03*
X15108Y-24101D03*
X15110Y-20335D03*
X17320Y-20335D03*
X17000Y-20335D03*
X16680Y-20335D03*
X16370Y-20335D03*
X16050Y-20335D03*
X15740Y-20335D03*
X15420Y-20335D03*
G54D22*
X14320Y-23317D03*
X14320Y-23003D03*
X14320Y-22687D03*
X14320Y-22373D03*
X14320Y-22057D03*
X14320Y-21743D03*
X14320Y-21427D03*
X14320Y-21113D03*
X18100Y-23315D03*
X18100Y-23005D03*
X18100Y-22685D03*
X18100Y-22375D03*
X18100Y-22065D03*
X18100Y-21745D03*
X18100Y-21425D03*
X18100Y-21105D03*
G54D21*
X47864Y-24101D03*
X47549Y-24101D03*
X47234Y-24101D03*
X46919Y-24101D03*
X46604Y-24101D03*
X46289Y-24101D03*
X45974Y-24101D03*
X45659Y-24101D03*
X45661Y-20335D03*
X47871Y-20335D03*
X47551Y-20335D03*
X47231Y-20335D03*
X46921Y-20335D03*
X46601Y-20335D03*
X46291Y-20335D03*
X45971Y-20335D03*
G54D22*
X44871Y-23317D03*
X44871Y-23003D03*
X44871Y-22687D03*
X44871Y-22373D03*
X44871Y-22057D03*
X44871Y-21743D03*
X44871Y-21427D03*
X44871Y-21113D03*
X48651Y-23315D03*
X48651Y-23005D03*
X48651Y-22685D03*
X48651Y-22375D03*
X48651Y-22065D03*
X48651Y-21745D03*
X48651Y-21425D03*
X48651Y-21105D03*
G54D23*
X13367Y-27087D03*
X17185Y-27087D03*
X49626Y-27559D03*
X45808Y-27559D03*
G54D24*
X09764Y-25532D03*
X09764Y-24232D03*
X11339Y-24902D03*
X11339Y-23602D03*
G54D25*
X24697Y-27342D03*
X24697Y-28092D03*
X25697Y-27342D03*
X24697Y-27717D03*
X25697Y-28092D03*
G54D26*
X23307Y-28092D03*
X23307Y-27342D03*
G54D27*
X27184Y-28346D03*
X27934Y-28346D03*
X25572Y-26142D03*
X24822Y-26142D03*
X17068Y-29134D03*
X16318Y-29134D03*
X13483Y-29134D03*
X14233Y-29134D03*
G54D26*
X12756Y-21200D03*
X12756Y-21950D03*
G54D27*
X16003Y-25512D03*
X16753Y-25512D03*
X46989Y-25669D03*
X46239Y-25669D03*
G54D26*
X43780Y-27342D03*
X43780Y-28092D03*
X51654Y-27342D03*
X51654Y-28092D03*
G54D28*
X07559Y-22062D03*
X07559Y-22662D03*
G54D27*
X13011Y-20000D03*
X13761Y-20000D03*
G54D26*
X21575Y-25572D03*
X21575Y-24822D03*
G54D27*
X31241Y-28031D03*
X30491Y-28031D03*
G54D29*
X29116Y-26669D03*
X29616Y-26669D03*
X30116Y-26669D03*
X30616Y-26669D03*
X31116Y-26669D03*
X31616Y-26669D03*
X32116Y-26669D03*
X32616Y-26669D03*
X32616Y-24669D03*
X32116Y-24669D03*
X31616Y-24669D03*
X31116Y-24669D03*
X30616Y-24669D03*
X30116Y-24669D03*
X29616Y-24669D03*
X29116Y-24669D03*
G54D24*
X10236Y-19233D03*
X10236Y-17933D03*
G54D30*
X12795Y-17323D03*
X13977Y-17323D03*
X16220Y-17323D03*
X46260Y-17323D03*
X45079Y-17323D03*
X43898Y-17323D03*
X42716Y-17323D03*
X41535Y-17323D03*
X40354Y-17323D03*
G54D31*
X55118Y-29882D03*
X55118Y-28701D03*
X55118Y-27520D03*
X55118Y-26338D03*
X55118Y-25157D03*
X55118Y-23976D03*
X55118Y-22638D03*
X55118Y-21457D03*
X55118Y-20276D03*
X55118Y-19094D03*
X55118Y-17913D03*
X55118Y-16732D03*
X08189Y-19174D03*
X08189Y-17992D03*
G54D30*
X49449Y-17323D03*
X19094Y-17323D03*
X20276Y-17323D03*
G54D32*
X21102Y-22677D03*
X21102Y-20630D03*
X23937Y-20315D03*
X18740Y-20157D03*
G54D33*
X35732Y-18858D03*
X35732Y-19291D03*
X35732Y-19724D03*
X35732Y-20157D03*
X35732Y-20591D03*
X35732Y-21024D03*
X35732Y-21457D03*
X35732Y-21890D03*
G54D34*
X35767Y-22445D03*
G54D35*
X35767Y-17461D03*
G54D36*
X29921Y-22657D03*
X29921Y-17343D03*
G54D37*
X35118Y-22699D03*
G54D38*
X32204Y-22699D03*
G54D39*
X07569Y-25787D03*
X07569Y-26043D03*
X07569Y-26299D03*
X07569Y-26555D03*
X07569Y-26811D03*
G54D40*
X06359Y-25920D03*
X06359Y-26678D03*
G54D41*
X07650Y-25157D03*
X07650Y-27441D03*
G54D42*
X06516Y-25226D03*
G54D43*
X07126Y-25123D03*
X07126Y-27475D03*
G54D42*
X06516Y-27372D03*
M02*
