G04 (created by PCBNEW-RS274X (2012-apr-16-27)-stable) date 2013-01-24T21:57:43 CET*
G01*
G70*
G90*
%MOIN*%
G04 Gerber Fmt 3.4, Leading zero omitted, Abs format*
%FSLAX34Y34*%
G04 APERTURE LIST*
%ADD10C,0.006000*%
%ADD11C,0.015000*%
%ADD12C,0.098700*%
%ADD13R,0.037700X0.098700*%
%ADD14R,0.098700X0.037700*%
%ADD15R,0.240500X0.102700*%
%ADD16R,0.100000X0.080000*%
%ADD17R,0.050000X0.040000*%
%ADD18R,0.075000X0.055000*%
%ADD19R,0.055000X0.075000*%
%ADD20R,0.065000X0.045000*%
%ADD21R,0.040000X0.065000*%
%ADD22R,0.118400X0.216900*%
%ADD23R,0.216900X0.118400*%
%ADD24C,0.118400*%
%ADD25R,0.086100X0.051500*%
%ADD26R,0.079100X0.083000*%
%ADD27R,0.079100X0.086900*%
%ADD28R,0.086900X0.079100*%
%ADD29R,0.071200X0.070800*%
%ADD30R,0.075100X0.070800*%
%ADD31R,0.088900X0.035700*%
%ADD32R,0.118400X0.076100*%
%ADD33R,0.075100X0.098700*%
%ADD34R,0.116500X0.071200*%
%ADD35R,0.047600X0.091900*%
G04 APERTURE END LIST*
G54D10*
G54D11*
X05827Y-30394D02*
X05827Y-16220D01*
X56220Y-30394D02*
X05827Y-30394D01*
X56220Y-16220D02*
X56220Y-30394D01*
X05827Y-16220D02*
X56220Y-16220D01*
G54D12*
X09291Y-29134D03*
X50236Y-25039D03*
G54D13*
X17313Y-24101D03*
X16998Y-24101D03*
X16683Y-24101D03*
X16368Y-24101D03*
X16053Y-24101D03*
X15738Y-24101D03*
X15423Y-24101D03*
X15108Y-24101D03*
X15110Y-20335D03*
X17320Y-20335D03*
X17000Y-20335D03*
X16680Y-20335D03*
X16370Y-20335D03*
X16050Y-20335D03*
X15740Y-20335D03*
X15420Y-20335D03*
G54D14*
X14320Y-23317D03*
X14320Y-23003D03*
X14320Y-22687D03*
X14320Y-22373D03*
X14320Y-22057D03*
X14320Y-21743D03*
X14320Y-21427D03*
X14320Y-21113D03*
X18100Y-23315D03*
X18100Y-23005D03*
X18100Y-22685D03*
X18100Y-22375D03*
X18100Y-22065D03*
X18100Y-21745D03*
X18100Y-21425D03*
X18100Y-21105D03*
G54D13*
X47864Y-24101D03*
X47549Y-24101D03*
X47234Y-24101D03*
X46919Y-24101D03*
X46604Y-24101D03*
X46289Y-24101D03*
X45974Y-24101D03*
X45659Y-24101D03*
X45661Y-20335D03*
X47871Y-20335D03*
X47551Y-20335D03*
X47231Y-20335D03*
X46921Y-20335D03*
X46601Y-20335D03*
X46291Y-20335D03*
X45971Y-20335D03*
G54D14*
X44871Y-23317D03*
X44871Y-23003D03*
X44871Y-22687D03*
X44871Y-22373D03*
X44871Y-22057D03*
X44871Y-21743D03*
X44871Y-21427D03*
X44871Y-21113D03*
X48651Y-23315D03*
X48651Y-23005D03*
X48651Y-22685D03*
X48651Y-22375D03*
X48651Y-22065D03*
X48651Y-21745D03*
X48651Y-21425D03*
X48651Y-21105D03*
G54D15*
X13367Y-27087D03*
X17185Y-27087D03*
X49626Y-27559D03*
X45808Y-27559D03*
G54D16*
X09764Y-25532D03*
X09764Y-24232D03*
X11339Y-24902D03*
X11339Y-23602D03*
G54D17*
X24697Y-27342D03*
X24697Y-28092D03*
X25697Y-27342D03*
X24697Y-27717D03*
X25697Y-28092D03*
G54D18*
X23307Y-28092D03*
X23307Y-27342D03*
G54D19*
X27184Y-28346D03*
X27934Y-28346D03*
X25572Y-26142D03*
X24822Y-26142D03*
X17068Y-29134D03*
X16318Y-29134D03*
X13483Y-29134D03*
X14233Y-29134D03*
G54D18*
X12756Y-21200D03*
X12756Y-21950D03*
G54D19*
X16003Y-25512D03*
X16753Y-25512D03*
X46989Y-25669D03*
X46239Y-25669D03*
G54D18*
X43780Y-27342D03*
X43780Y-28092D03*
X51654Y-27342D03*
X51654Y-28092D03*
G54D20*
X07559Y-22062D03*
X07559Y-22662D03*
G54D19*
X13011Y-20000D03*
X13761Y-20000D03*
G54D18*
X21575Y-25572D03*
X21575Y-24822D03*
G54D19*
X31241Y-28031D03*
X30491Y-28031D03*
G54D21*
X29116Y-26669D03*
X29616Y-26669D03*
X30116Y-26669D03*
X30616Y-26669D03*
X31116Y-26669D03*
X31616Y-26669D03*
X32116Y-26669D03*
X32616Y-26669D03*
X32616Y-24669D03*
X32116Y-24669D03*
X31616Y-24669D03*
X31116Y-24669D03*
X30616Y-24669D03*
X30116Y-24669D03*
X29616Y-24669D03*
X29116Y-24669D03*
G54D16*
X10236Y-19233D03*
X10236Y-17933D03*
G54D22*
X12795Y-17323D03*
X13977Y-17323D03*
X16220Y-17323D03*
X46260Y-17323D03*
X45079Y-17323D03*
X43898Y-17323D03*
X42716Y-17323D03*
X41535Y-17323D03*
X40354Y-17323D03*
G54D23*
X55118Y-29882D03*
X55118Y-28701D03*
X55118Y-27520D03*
X55118Y-26338D03*
X55118Y-25157D03*
X55118Y-23976D03*
X55118Y-22638D03*
X55118Y-21457D03*
X55118Y-20276D03*
X55118Y-19094D03*
X55118Y-17913D03*
X55118Y-16732D03*
X08189Y-19174D03*
X08189Y-17992D03*
G54D22*
X49449Y-17323D03*
X19094Y-17323D03*
X20276Y-17323D03*
G54D24*
X21102Y-22677D03*
X21102Y-20630D03*
X23937Y-20315D03*
X18740Y-20157D03*
G54D25*
X35732Y-18858D03*
X35732Y-19291D03*
X35732Y-19724D03*
X35732Y-20157D03*
X35732Y-20591D03*
X35732Y-21024D03*
X35732Y-21457D03*
X35732Y-21890D03*
G54D26*
X35767Y-22445D03*
G54D27*
X35767Y-17461D03*
G54D28*
X29921Y-22657D03*
X29921Y-17343D03*
G54D29*
X35118Y-22699D03*
G54D30*
X32204Y-22699D03*
G54D31*
X07569Y-25787D03*
X07569Y-26043D03*
X07569Y-26299D03*
X07569Y-26555D03*
X07569Y-26811D03*
G54D32*
X06359Y-25920D03*
X06359Y-26678D03*
G54D33*
X07650Y-25157D03*
X07650Y-27441D03*
G54D34*
X06516Y-25226D03*
G54D35*
X07126Y-25123D03*
X07126Y-27475D03*
G54D34*
X06516Y-27372D03*
M02*
