M48
;DRILL file {Pcbnew (2012-apr-16-27)-stable} date 2013-01-24T21:57:49 CET
;FORMAT={-:-/ absolute / metric / decimal}
FMAT,2
METRIC,TZ
T1C0.635
T2C0.650
T3C0.701
T4C1.999
%
G90
G05
M71
T1
X24.000Y-57.600
X24.000Y-70.000
X25.199Y-52.799
X29.200Y-47.201
X29.200Y-52.799
X34.000Y-62.799
X54.801Y-69.200
X68.001Y-68.400
X70.000Y-60.000
X90.800Y-69.601
X95.199Y-58.001
X95.199Y-65.199
X95.601Y-74.399
X98.001Y-50.401
X98.001Y-53.599
X101.600Y-74.399
X108.001Y-68.001
X121.201Y-47.201
T4
X23.599Y-74.000
X127.599Y-63.599
T2
X19.629Y-64.374G85X19.233Y-64.374
G05
X19.629Y-69.225G85X19.233Y-69.225
G05
T3
X16.650Y-64.074G85X16.152Y-64.074
G05
X16.650Y-69.525G85X16.152Y-69.525
G05
T0
M30
