G04 (created by PCBNEW-RS274X (2012-apr-16-27)-stable) date 2013-01-06T12:38:16 CET*
G01*
G70*
G90*
%MOIN*%
G04 Gerber Fmt 3.4, Leading zero omitted, Abs format*
%FSLAX34Y34*%
G04 APERTURE LIST*
%ADD10C,0.006000*%
%ADD11C,0.007900*%
%ADD12C,0.078700*%
%ADD13R,0.017700X0.078700*%
%ADD14R,0.078700X0.017700*%
%ADD15R,0.220500X0.082700*%
%ADD16R,0.080000X0.060000*%
%ADD17R,0.068900X0.015700*%
%ADD18R,0.098400X0.056100*%
%ADD19R,0.055100X0.078700*%
%ADD20R,0.096500X0.051200*%
%ADD21R,0.027600X0.071900*%
%ADD22R,0.030000X0.020000*%
%ADD23R,0.055000X0.035000*%
%ADD24R,0.035000X0.055000*%
%ADD25R,0.045000X0.025000*%
%ADD26R,0.066100X0.031500*%
%ADD27R,0.059100X0.063000*%
%ADD28R,0.059100X0.066900*%
%ADD29R,0.066900X0.059100*%
%ADD30R,0.051200X0.050800*%
%ADD31R,0.055100X0.050800*%
%ADD32R,0.020000X0.045000*%
%ADD33R,0.098400X0.196900*%
%ADD34R,0.196900X0.098400*%
%ADD35C,0.098400*%
%ADD36C,0.015700*%
%ADD37C,0.059100*%
%ADD38C,0.010000*%
G04 APERTURE END LIST*
G54D10*
G54D11*
X22597Y-17850D02*
X22410Y-17850D01*
X22410Y-17326D01*
X22729Y-17576D02*
X22860Y-17576D01*
X22916Y-17850D02*
X22729Y-17850D01*
X22729Y-17326D01*
X22916Y-17326D01*
X23085Y-17850D02*
X23085Y-17326D01*
X23179Y-17326D01*
X23235Y-17351D01*
X23272Y-17401D01*
X23291Y-17451D01*
X23310Y-17551D01*
X23310Y-17626D01*
X23291Y-17725D01*
X23272Y-17775D01*
X23235Y-17825D01*
X23179Y-17850D01*
X23085Y-17850D01*
X23648Y-17825D02*
X23610Y-17850D01*
X23535Y-17850D01*
X23498Y-17825D01*
X23479Y-17800D01*
X23460Y-17750D01*
X23460Y-17601D01*
X23479Y-17551D01*
X23498Y-17526D01*
X23535Y-17501D01*
X23610Y-17501D01*
X23648Y-17526D01*
X23986Y-17501D02*
X23986Y-17850D01*
X23817Y-17501D02*
X23817Y-17775D01*
X23836Y-17825D01*
X23873Y-17850D01*
X23929Y-17850D01*
X23967Y-17825D01*
X23986Y-17800D01*
X24173Y-17850D02*
X24173Y-17326D01*
X24173Y-17526D02*
X24210Y-17501D01*
X24285Y-17501D01*
X24323Y-17526D01*
X24342Y-17551D01*
X24360Y-17601D01*
X24360Y-17750D01*
X24342Y-17800D01*
X24323Y-17825D01*
X24285Y-17850D01*
X24210Y-17850D01*
X24173Y-17825D01*
X24679Y-17825D02*
X24641Y-17850D01*
X24566Y-17850D01*
X24529Y-17825D01*
X24510Y-17775D01*
X24510Y-17576D01*
X24529Y-17526D01*
X24566Y-17501D01*
X24641Y-17501D01*
X24679Y-17526D01*
X24698Y-17576D01*
X24698Y-17626D01*
X24510Y-17675D01*
X25073Y-17850D02*
X24848Y-17850D01*
X24961Y-17850D02*
X24961Y-17326D01*
X24923Y-17401D01*
X24886Y-17451D01*
X24848Y-17476D01*
X25448Y-17850D02*
X25223Y-17850D01*
X25336Y-17850D02*
X25336Y-17326D01*
X25298Y-17401D01*
X25261Y-17451D01*
X25223Y-17476D01*
X25523Y-17900D02*
X25823Y-17900D01*
X26086Y-17825D02*
X26048Y-17850D01*
X25973Y-17850D01*
X25936Y-17825D01*
X25917Y-17800D01*
X25898Y-17750D01*
X25898Y-17601D01*
X25917Y-17551D01*
X25936Y-17526D01*
X25973Y-17501D01*
X26048Y-17501D01*
X26086Y-17526D01*
X26199Y-17501D02*
X26349Y-17501D01*
X26255Y-17326D02*
X26255Y-17775D01*
X26274Y-17825D01*
X26311Y-17850D01*
X26349Y-17850D01*
X26480Y-17850D02*
X26480Y-17501D01*
X26480Y-17601D02*
X26499Y-17551D01*
X26517Y-17526D01*
X26555Y-17501D01*
X26592Y-17501D01*
X26780Y-17850D02*
X26743Y-17825D01*
X26724Y-17775D01*
X26724Y-17326D01*
X26836Y-17900D02*
X27136Y-17900D01*
X27230Y-17850D02*
X27230Y-17501D01*
X27230Y-17601D02*
X27249Y-17551D01*
X27267Y-17526D01*
X27305Y-17501D01*
X27342Y-17501D01*
X27624Y-17825D02*
X27586Y-17850D01*
X27511Y-17850D01*
X27474Y-17825D01*
X27455Y-17775D01*
X27455Y-17576D01*
X27474Y-17526D01*
X27511Y-17501D01*
X27586Y-17501D01*
X27624Y-17526D01*
X27643Y-17576D01*
X27643Y-17626D01*
X27455Y-17675D01*
X27774Y-17501D02*
X27868Y-17850D01*
X27962Y-17501D01*
X28318Y-17850D02*
X28093Y-17850D01*
X28206Y-17850D02*
X28206Y-17326D01*
X28168Y-17401D01*
X28131Y-17451D01*
X28093Y-17476D01*
G54D12*
X09291Y-29134D03*
X50236Y-25039D03*
G54D13*
X17313Y-24101D03*
X16998Y-24101D03*
X16683Y-24101D03*
X16368Y-24101D03*
X16053Y-24101D03*
X15738Y-24101D03*
X15423Y-24101D03*
X15108Y-24101D03*
X15110Y-20335D03*
X17320Y-20335D03*
X17000Y-20335D03*
X16680Y-20335D03*
X16370Y-20335D03*
X16050Y-20335D03*
X15740Y-20335D03*
X15420Y-20335D03*
G54D14*
X14320Y-23317D03*
X14320Y-23003D03*
X14320Y-22687D03*
X14320Y-22373D03*
X14320Y-22057D03*
X14320Y-21743D03*
X14320Y-21427D03*
X14320Y-21113D03*
X18100Y-23315D03*
X18100Y-23005D03*
X18100Y-22685D03*
X18100Y-22375D03*
X18100Y-22065D03*
X18100Y-21745D03*
X18100Y-21425D03*
X18100Y-21105D03*
G54D13*
X47864Y-24101D03*
X47549Y-24101D03*
X47234Y-24101D03*
X46919Y-24101D03*
X46604Y-24101D03*
X46289Y-24101D03*
X45974Y-24101D03*
X45659Y-24101D03*
X45661Y-20335D03*
X47871Y-20335D03*
X47551Y-20335D03*
X47231Y-20335D03*
X46921Y-20335D03*
X46601Y-20335D03*
X46291Y-20335D03*
X45971Y-20335D03*
G54D14*
X44871Y-23317D03*
X44871Y-23003D03*
X44871Y-22687D03*
X44871Y-22373D03*
X44871Y-22057D03*
X44871Y-21743D03*
X44871Y-21427D03*
X44871Y-21113D03*
X48651Y-23315D03*
X48651Y-23005D03*
X48651Y-22685D03*
X48651Y-22375D03*
X48651Y-22065D03*
X48651Y-21745D03*
X48651Y-21425D03*
X48651Y-21105D03*
G54D15*
X13367Y-27087D03*
X17185Y-27087D03*
X49626Y-27559D03*
X45808Y-27559D03*
G54D16*
X09764Y-25532D03*
X09764Y-24232D03*
X11339Y-24902D03*
X11339Y-23602D03*
G54D17*
X07569Y-25787D03*
X07569Y-26043D03*
X07569Y-26299D03*
X07569Y-26555D03*
X07569Y-26811D03*
G54D18*
X06359Y-25920D03*
X06359Y-26678D03*
G54D19*
X07650Y-25157D03*
X07650Y-27441D03*
G54D20*
X06516Y-25226D03*
G54D21*
X07126Y-25123D03*
X07126Y-27475D03*
G54D20*
X06516Y-27372D03*
G54D22*
X24697Y-27342D03*
X24697Y-28092D03*
X25697Y-27342D03*
X24697Y-27717D03*
X25697Y-28092D03*
G54D23*
X23307Y-28092D03*
X23307Y-27342D03*
G54D24*
X27184Y-28346D03*
X27934Y-28346D03*
X25572Y-26142D03*
X24822Y-26142D03*
X17068Y-29134D03*
X16318Y-29134D03*
X13483Y-29134D03*
X14233Y-29134D03*
G54D23*
X12756Y-21200D03*
X12756Y-21950D03*
G54D24*
X16003Y-25512D03*
X16753Y-25512D03*
X46989Y-25669D03*
X46239Y-25669D03*
G54D23*
X43780Y-27342D03*
X43780Y-28092D03*
X51654Y-27342D03*
X51654Y-28092D03*
G54D25*
X07559Y-22062D03*
X07559Y-22662D03*
G54D24*
X13011Y-20000D03*
X13761Y-20000D03*
G54D23*
X21575Y-25572D03*
X21575Y-24822D03*
G54D26*
X35732Y-18858D03*
X35732Y-19291D03*
X35732Y-19724D03*
X35732Y-20157D03*
X35732Y-20591D03*
X35732Y-21024D03*
X35732Y-21457D03*
X35732Y-21890D03*
G54D27*
X35767Y-22445D03*
G54D28*
X35767Y-17461D03*
G54D29*
X29921Y-22657D03*
X29921Y-17343D03*
G54D30*
X35118Y-22699D03*
G54D31*
X32204Y-22699D03*
G54D24*
X31241Y-28031D03*
X30491Y-28031D03*
G54D32*
X29116Y-26669D03*
X29616Y-26669D03*
X30116Y-26669D03*
X30616Y-26669D03*
X31116Y-26669D03*
X31616Y-26669D03*
X32116Y-26669D03*
X32616Y-26669D03*
X32616Y-24669D03*
X32116Y-24669D03*
X31616Y-24669D03*
X31116Y-24669D03*
X30616Y-24669D03*
X30116Y-24669D03*
X29616Y-24669D03*
X29116Y-24669D03*
G54D16*
X10236Y-19233D03*
X10236Y-17933D03*
G54D33*
X12795Y-17323D03*
X13977Y-17323D03*
X16220Y-17323D03*
X46260Y-17323D03*
X45079Y-17323D03*
X43898Y-17323D03*
X42716Y-17323D03*
X41535Y-17323D03*
X40354Y-17323D03*
G54D34*
X55118Y-29882D03*
X55118Y-28701D03*
X55118Y-27520D03*
X55118Y-26338D03*
X55118Y-25157D03*
X55118Y-23976D03*
X55118Y-22638D03*
X55118Y-21457D03*
X55118Y-20276D03*
X55118Y-19094D03*
X55118Y-17913D03*
X55118Y-16732D03*
X08189Y-19174D03*
X08189Y-17992D03*
G54D33*
X49449Y-17323D03*
X19094Y-17323D03*
X20276Y-17323D03*
G54D35*
X21102Y-22677D03*
X21102Y-20630D03*
X23937Y-20315D03*
X18740Y-20157D03*
X13386Y-24724D03*
X09921Y-20787D03*
X11496Y-18583D03*
X11496Y-20787D03*
X47717Y-18583D03*
X21575Y-27244D03*
X38583Y-19843D03*
X27559Y-23622D03*
X09449Y-22677D03*
X09449Y-27559D03*
X37480Y-22835D03*
X35748Y-27402D03*
X37638Y-29291D03*
X40000Y-29291D03*
X37480Y-25669D03*
X42520Y-26772D03*
X38583Y-21102D03*
X26772Y-26929D03*
G54D36*
X16221Y-24882D02*
X16536Y-24882D01*
X47551Y-22842D02*
X47551Y-20335D01*
X47551Y-18749D02*
X47717Y-18583D01*
X46604Y-24101D02*
X46604Y-24872D01*
X25197Y-27559D02*
X25197Y-27873D01*
X11496Y-18583D02*
X11496Y-20787D01*
X21575Y-27244D02*
X22423Y-28092D01*
X13711Y-23317D02*
X14320Y-23317D01*
X46989Y-25257D02*
X46989Y-25669D01*
X11496Y-20787D02*
X09921Y-20787D01*
X14320Y-23003D02*
X15444Y-23003D01*
X15444Y-23003D02*
X15758Y-23317D01*
X13711Y-23317D02*
X13386Y-23642D01*
X47234Y-25049D02*
X47234Y-24101D01*
X16753Y-25099D02*
X16753Y-25512D01*
X15758Y-23317D02*
X16053Y-23612D01*
X47551Y-19213D02*
X48976Y-19213D01*
X16053Y-24714D02*
X16221Y-24882D01*
X24978Y-28092D02*
X24697Y-28092D01*
X47234Y-24101D02*
X47234Y-23159D01*
X47234Y-23159D02*
X47551Y-22842D01*
X49449Y-18740D02*
X49449Y-17323D01*
X48976Y-19213D02*
X49449Y-18740D01*
X24697Y-27342D02*
X24980Y-27342D01*
X25197Y-27873D02*
X24978Y-28092D01*
X22423Y-28092D02*
X23307Y-28092D01*
X47551Y-20335D02*
X47551Y-19213D01*
X47551Y-19213D02*
X47551Y-18749D01*
X47026Y-25257D02*
X47234Y-25049D01*
X23307Y-28092D02*
X24697Y-28092D01*
X24980Y-27342D02*
X25197Y-27559D01*
X13386Y-23642D02*
X13386Y-24724D01*
X46604Y-24872D02*
X46989Y-25257D01*
X46989Y-25257D02*
X47026Y-25257D01*
X16053Y-24101D02*
X16053Y-24714D01*
X21575Y-25572D02*
X21575Y-27244D01*
X16536Y-24882D02*
X16753Y-25099D01*
X16053Y-23612D02*
X16053Y-24101D01*
X14320Y-23317D02*
X15758Y-23317D01*
X13543Y-27087D02*
X14233Y-27777D01*
X13367Y-27087D02*
X13543Y-27087D01*
X15108Y-24101D02*
X15108Y-25817D01*
X14233Y-27777D02*
X14233Y-29134D01*
X15108Y-25817D02*
X13838Y-27087D01*
X13838Y-27087D02*
X13367Y-27087D01*
X16693Y-27087D02*
X17185Y-27087D01*
X17185Y-27087D02*
X17164Y-27087D01*
X15423Y-25817D02*
X16693Y-27087D01*
X16318Y-27933D02*
X16318Y-29134D01*
X15423Y-24101D02*
X15423Y-25817D01*
X17164Y-27087D02*
X16318Y-27933D01*
X26360Y-28092D02*
X25697Y-28092D01*
X26614Y-28346D02*
X26360Y-28092D01*
X27184Y-28346D02*
X26614Y-28346D01*
X17481Y-19055D02*
X24881Y-19055D01*
X31181Y-23150D02*
X30866Y-23465D01*
X31753Y-23150D02*
X31181Y-23150D01*
X16680Y-20335D02*
X16680Y-19856D01*
X16680Y-19856D02*
X17481Y-19055D01*
X29291Y-23465D02*
X24881Y-19055D01*
X30866Y-23465D02*
X29291Y-23465D01*
X32204Y-22699D02*
X31753Y-23150D01*
X27087Y-25827D02*
X32280Y-25827D01*
X18100Y-21745D02*
X23005Y-21745D01*
X23465Y-22205D02*
X27087Y-25827D01*
X32616Y-25494D02*
X32616Y-24669D01*
X32283Y-25824D02*
X32616Y-25494D01*
X23005Y-21745D02*
X23465Y-22205D01*
X32280Y-25827D02*
X32283Y-25827D01*
X32283Y-25827D02*
X32283Y-25824D01*
X39528Y-19685D02*
X38898Y-19055D01*
X32441Y-24094D02*
X36220Y-24094D01*
X36220Y-24094D02*
X38741Y-24094D01*
X39528Y-19685D02*
X39528Y-23307D01*
X39528Y-23307D02*
X38741Y-24094D01*
X32116Y-24669D02*
X32116Y-24419D01*
X35732Y-19291D02*
X37402Y-19291D01*
X37402Y-19291D02*
X37638Y-19055D01*
X32116Y-24419D02*
X32441Y-24094D01*
X38898Y-19055D02*
X37638Y-19055D01*
X38583Y-19843D02*
X38464Y-19724D01*
X29449Y-24095D02*
X28032Y-24095D01*
X29616Y-24262D02*
X29449Y-24095D01*
X28032Y-24095D02*
X27559Y-23622D01*
X29616Y-24669D02*
X29616Y-24262D01*
X38464Y-19724D02*
X35732Y-19724D01*
X18740Y-19370D02*
X18740Y-20157D01*
X35748Y-23465D02*
X36850Y-22363D01*
X29134Y-23780D02*
X31023Y-23780D01*
X17320Y-19688D02*
X17638Y-19370D01*
X31338Y-23465D02*
X35748Y-23465D01*
X36575Y-21457D02*
X35732Y-21457D01*
X17320Y-20335D02*
X17320Y-19688D01*
X31023Y-23780D02*
X31338Y-23465D01*
X36850Y-21732D02*
X36575Y-21457D01*
X36850Y-22363D02*
X36850Y-21732D01*
X24724Y-19370D02*
X29134Y-23780D01*
X17638Y-19370D02*
X18740Y-19370D01*
X18740Y-19370D02*
X24724Y-19370D01*
X19055Y-21105D02*
X19055Y-21102D01*
X23229Y-21024D02*
X23310Y-21105D01*
X21890Y-19685D02*
X23229Y-21024D01*
X23937Y-20315D02*
X23937Y-20316D01*
X23937Y-20316D02*
X23229Y-21024D01*
X20472Y-19685D02*
X21890Y-19685D01*
X19055Y-21102D02*
X20472Y-19685D01*
X30116Y-24845D02*
X29764Y-25197D01*
X18100Y-21105D02*
X19055Y-21105D01*
X30116Y-24669D02*
X30116Y-24845D01*
X23310Y-21105D02*
X27411Y-25197D01*
X29764Y-25197D02*
X27411Y-25197D01*
X53399Y-22375D02*
X53662Y-22638D01*
X53071Y-22375D02*
X53399Y-22375D01*
X53662Y-22638D02*
X55118Y-22638D01*
X48651Y-22375D02*
X53071Y-22375D01*
X48651Y-22065D02*
X53053Y-22065D01*
X53661Y-21457D02*
X55118Y-21457D01*
X53053Y-22065D02*
X53661Y-21457D01*
X48651Y-21745D02*
X52271Y-21745D01*
X53740Y-20276D02*
X55118Y-20276D01*
X52271Y-21745D02*
X53740Y-20276D01*
X48651Y-21425D02*
X51331Y-21425D01*
X53662Y-19094D02*
X55118Y-19094D01*
X51331Y-21425D02*
X53662Y-19094D01*
X53740Y-17913D02*
X55118Y-17913D01*
X50548Y-21105D02*
X53740Y-17913D01*
X50391Y-21105D02*
X50548Y-21105D01*
X48651Y-21105D02*
X50391Y-21105D01*
X54292Y-16732D02*
X55118Y-16732D01*
X50394Y-20630D02*
X54292Y-16732D01*
X48166Y-20630D02*
X50394Y-20630D01*
X47871Y-20335D02*
X48166Y-20630D01*
X45971Y-17612D02*
X46260Y-17323D01*
X45971Y-20335D02*
X45971Y-17612D01*
X45661Y-19205D02*
X45079Y-18623D01*
X45661Y-20335D02*
X45661Y-19205D01*
X45079Y-18623D02*
X45079Y-17323D01*
X44262Y-21113D02*
X43898Y-20749D01*
X43898Y-20749D02*
X43898Y-17323D01*
X44871Y-21113D02*
X44262Y-21113D01*
X44871Y-21427D02*
X44104Y-21427D01*
X42716Y-20039D02*
X42716Y-17323D01*
X44104Y-21427D02*
X42716Y-20039D01*
X44871Y-21743D02*
X43948Y-21743D01*
X43948Y-21743D02*
X41535Y-19330D01*
X41535Y-19330D02*
X41535Y-17323D01*
X40354Y-18622D02*
X40354Y-17323D01*
X43789Y-22057D02*
X40354Y-18622D01*
X44871Y-22057D02*
X43789Y-22057D01*
X44871Y-23317D02*
X42992Y-23307D01*
X42992Y-30079D02*
X52126Y-30079D01*
X54921Y-30079D02*
X55118Y-29882D01*
X52126Y-30079D02*
X54921Y-30079D01*
X42992Y-23307D02*
X40787Y-25512D01*
X40787Y-27874D02*
X42992Y-30079D01*
X40787Y-25512D02*
X40787Y-27874D01*
X44095Y-29764D02*
X51811Y-29764D01*
X51811Y-29764D02*
X52756Y-29764D01*
X43150Y-29764D02*
X44095Y-29764D01*
X45659Y-24419D02*
X45354Y-24724D01*
X52756Y-29764D02*
X53819Y-28701D01*
X45354Y-24724D02*
X42047Y-24724D01*
X42047Y-24724D02*
X41102Y-25669D01*
X53819Y-28701D02*
X55118Y-28701D01*
X41102Y-27716D02*
X43150Y-29764D01*
X45659Y-24101D02*
X45659Y-24419D01*
X41102Y-25669D02*
X41102Y-27716D01*
X41417Y-27559D02*
X42992Y-29134D01*
X53740Y-27520D02*
X55118Y-27520D01*
X42205Y-25039D02*
X41417Y-25827D01*
X51811Y-29449D02*
X53740Y-27520D01*
X45512Y-25039D02*
X42205Y-25039D01*
X51653Y-29449D02*
X51811Y-29449D01*
X43307Y-29449D02*
X44252Y-29449D01*
X42992Y-29134D02*
X43307Y-29449D01*
X45974Y-24577D02*
X45512Y-25039D01*
X44252Y-29449D02*
X51653Y-29449D01*
X45974Y-24101D02*
X45974Y-24577D01*
X41417Y-25827D02*
X41417Y-27559D01*
X50717Y-23315D02*
X53740Y-26338D01*
X53740Y-26338D02*
X55118Y-26338D01*
X48651Y-23315D02*
X50717Y-23315D01*
X53648Y-25157D02*
X55118Y-25157D01*
X51496Y-23005D02*
X53648Y-25157D01*
X48651Y-23005D02*
X51496Y-23005D01*
X48651Y-22685D02*
X52449Y-22685D01*
X52449Y-22685D02*
X53740Y-23976D01*
X53740Y-23976D02*
X55118Y-23976D01*
X15118Y-19685D02*
X16220Y-18583D01*
X16220Y-18583D02*
X16220Y-17323D01*
X15110Y-20335D02*
X15110Y-19685D01*
X15110Y-19685D02*
X15118Y-19685D01*
X13761Y-19782D02*
X13761Y-20000D01*
X15110Y-19685D02*
X15110Y-19677D01*
X14803Y-19370D02*
X14173Y-19370D01*
X15110Y-19677D02*
X14803Y-19370D01*
X14173Y-19370D02*
X13761Y-19782D01*
X31616Y-25234D02*
X31616Y-24669D01*
X31342Y-25508D02*
X31616Y-25234D01*
X18100Y-21425D02*
X21102Y-21425D01*
X23157Y-21425D02*
X27247Y-25508D01*
X27247Y-25508D02*
X31342Y-25508D01*
X21102Y-21425D02*
X21102Y-20630D01*
X21102Y-21425D02*
X23157Y-21425D01*
X31116Y-24669D02*
X31116Y-24160D01*
X35732Y-20591D02*
X36812Y-20591D01*
X38268Y-23149D02*
X37637Y-23780D01*
X31496Y-23780D02*
X36062Y-23780D01*
X38268Y-22047D02*
X38268Y-23149D01*
X31116Y-24160D02*
X31496Y-23780D01*
X36062Y-23780D02*
X37637Y-23780D01*
X36812Y-20591D02*
X38268Y-22047D01*
X42824Y-23003D02*
X43768Y-23003D01*
X43768Y-23003D02*
X44871Y-23003D01*
X17480Y-25039D02*
X18898Y-25039D01*
X21260Y-29606D02*
X36221Y-29606D01*
X18898Y-25039D02*
X19843Y-25984D01*
X19843Y-25984D02*
X19843Y-28189D01*
X36221Y-29606D02*
X37953Y-27874D01*
X37953Y-27874D02*
X42824Y-23003D01*
X17313Y-24101D02*
X17313Y-24872D01*
X19843Y-28189D02*
X21260Y-29606D01*
X17313Y-24872D02*
X17480Y-25039D01*
X21575Y-28976D02*
X35906Y-28976D01*
X20472Y-23307D02*
X20472Y-23465D01*
X42509Y-22373D02*
X43454Y-22373D01*
X21102Y-22677D02*
X20316Y-22677D01*
X20316Y-22677D02*
X20079Y-22914D01*
X20472Y-24882D02*
X20472Y-27873D01*
X20472Y-23465D02*
X20472Y-24882D01*
X18100Y-22065D02*
X19230Y-22065D01*
X20079Y-22914D02*
X20472Y-23307D01*
X20472Y-24822D02*
X20472Y-24882D01*
X21575Y-24822D02*
X20472Y-24822D01*
X35906Y-28976D02*
X37323Y-27559D01*
X37323Y-27559D02*
X42509Y-22373D01*
X19230Y-22065D02*
X20079Y-22914D01*
X20472Y-27873D02*
X21575Y-28976D01*
X43454Y-22373D02*
X44871Y-22373D01*
X36063Y-29291D02*
X37638Y-27717D01*
X20157Y-24251D02*
X20157Y-28031D01*
X37638Y-27717D02*
X42668Y-22687D01*
X42668Y-22687D02*
X43612Y-22687D01*
X20157Y-28031D02*
X21417Y-29291D01*
X18100Y-23315D02*
X19221Y-23315D01*
X19221Y-23315D02*
X20157Y-24251D01*
X21417Y-29291D02*
X36063Y-29291D01*
X43612Y-22687D02*
X44871Y-22687D01*
X10552Y-26299D02*
X11339Y-25512D01*
X07569Y-26299D02*
X10552Y-26299D01*
X11339Y-25512D02*
X11339Y-24902D01*
X07569Y-26043D02*
X09253Y-26043D01*
X09253Y-26043D02*
X09764Y-25532D01*
X14320Y-22373D02*
X12568Y-22373D01*
X12568Y-22373D02*
X11339Y-23602D01*
X12146Y-24232D02*
X09764Y-24232D01*
X14320Y-22687D02*
X13691Y-22687D01*
X13691Y-22687D02*
X12146Y-24232D01*
X07650Y-25344D02*
X07347Y-25344D01*
X06457Y-25226D02*
X06457Y-25822D01*
X06359Y-27274D02*
X06457Y-27372D01*
X07532Y-27372D02*
X07650Y-27254D01*
X07347Y-25344D02*
X07126Y-25123D01*
X07559Y-22662D02*
X07126Y-23095D01*
X07650Y-27254D02*
X07347Y-27254D01*
X06457Y-25822D02*
X06359Y-25920D01*
X06359Y-26678D02*
X06359Y-27274D01*
X06359Y-25920D02*
X06359Y-26678D01*
X06575Y-25344D02*
X06457Y-25226D01*
X07126Y-23095D02*
X07126Y-25123D01*
X07650Y-25344D02*
X06575Y-25344D01*
X07347Y-27254D02*
X07126Y-27475D01*
X06457Y-27372D02*
X07532Y-27372D01*
X14320Y-21743D02*
X13554Y-21743D01*
X13554Y-21743D02*
X13011Y-21200D01*
X13011Y-21200D02*
X12756Y-21200D01*
X47549Y-24101D02*
X47549Y-25984D01*
X43780Y-27342D02*
X45591Y-27342D01*
X45974Y-27559D02*
X45808Y-27559D01*
X47549Y-25984D02*
X45974Y-27559D01*
X45591Y-27342D02*
X45808Y-27559D01*
X47864Y-24101D02*
X47864Y-25974D01*
X49843Y-27342D02*
X49626Y-27559D01*
X47864Y-25974D02*
X49449Y-27559D01*
X49449Y-27559D02*
X49626Y-27559D01*
X51654Y-27342D02*
X49843Y-27342D01*
X25039Y-25512D02*
X24822Y-25729D01*
X13483Y-29134D02*
X12441Y-29134D01*
X08701Y-26811D02*
X07569Y-26811D01*
X32616Y-26317D02*
X32441Y-26142D01*
X46289Y-24101D02*
X46289Y-25619D01*
X26300Y-25512D02*
X25039Y-25512D01*
X32616Y-26669D02*
X32616Y-26317D01*
X24822Y-25729D02*
X24822Y-26142D01*
X26930Y-26142D02*
X26300Y-25512D01*
X32441Y-26142D02*
X26930Y-26142D01*
X35119Y-28031D02*
X32284Y-28031D01*
X12756Y-29764D02*
X16764Y-29764D01*
X16378Y-26299D02*
X18582Y-26299D01*
X10176Y-21950D02*
X09449Y-22677D01*
X12756Y-21950D02*
X10176Y-21950D01*
X09449Y-27559D02*
X08701Y-26811D01*
X09449Y-27559D02*
X11024Y-29134D01*
X17637Y-29921D02*
X19843Y-29921D01*
X35748Y-27402D02*
X35119Y-28031D01*
X34803Y-21417D02*
X35196Y-21024D01*
G54D37*
X06614Y-16850D02*
X12322Y-16850D01*
G54D36*
X42520Y-27559D02*
X43053Y-28092D01*
X17068Y-29460D02*
X17068Y-29134D01*
X16003Y-25924D02*
X16378Y-26299D01*
X46289Y-24101D02*
X46289Y-23134D01*
X37008Y-29921D02*
X37638Y-29291D01*
X31241Y-28444D02*
X31241Y-28031D01*
X19843Y-29921D02*
X37008Y-29921D01*
X12441Y-29134D02*
X12441Y-29449D01*
X46919Y-23140D02*
X46601Y-22822D01*
X50612Y-29134D02*
X51654Y-28092D01*
G54D37*
X06733Y-19174D02*
X06299Y-18740D01*
X06299Y-18740D02*
X06299Y-17165D01*
G54D36*
X42520Y-26142D02*
X42520Y-26772D01*
X14320Y-22057D02*
X12863Y-22057D01*
X46239Y-25669D02*
X42993Y-25669D01*
X23307Y-27342D02*
X23877Y-27342D01*
X37480Y-21732D02*
X37480Y-22835D01*
X17480Y-29764D02*
X17637Y-29921D01*
X37480Y-25669D02*
X35748Y-27402D01*
X23877Y-27342D02*
X24252Y-27717D01*
X46289Y-23134D02*
X46601Y-22822D01*
G54D37*
X08189Y-19174D02*
X06733Y-19174D01*
G54D36*
X16764Y-29764D02*
X17480Y-29764D01*
X43780Y-28505D02*
X44409Y-29134D01*
X46919Y-24101D02*
X46919Y-23140D01*
X34803Y-22384D02*
X34803Y-21417D01*
X42993Y-25669D02*
X42520Y-26142D01*
G54D37*
X12322Y-16850D02*
X12795Y-17323D01*
G54D36*
X24822Y-26142D02*
X24822Y-26397D01*
X19055Y-26772D02*
X19055Y-28662D01*
X11024Y-29134D02*
X13483Y-29134D01*
X32284Y-28031D02*
X32616Y-27699D01*
X12441Y-29134D02*
X13483Y-29134D01*
X46289Y-25619D02*
X46239Y-25669D01*
X36772Y-21024D02*
X37480Y-21732D01*
X24822Y-26397D02*
X23877Y-27342D01*
X19055Y-28662D02*
X18583Y-29134D01*
X24252Y-27717D02*
X24697Y-27717D01*
G54D37*
X06299Y-17165D02*
X06614Y-16850D01*
G54D36*
X12863Y-22057D02*
X12756Y-21950D01*
X28249Y-28661D02*
X31024Y-28661D01*
X32616Y-26669D02*
X32616Y-27699D01*
X31241Y-28031D02*
X32284Y-28031D01*
X42520Y-26772D02*
X42520Y-27559D01*
X46601Y-22822D02*
X46601Y-20335D01*
X31024Y-28661D02*
X31241Y-28444D01*
X32616Y-27699D02*
X32616Y-26919D01*
X35732Y-21024D02*
X36772Y-21024D01*
X27934Y-28346D02*
X28249Y-28661D01*
X37323Y-25827D02*
X35748Y-27402D01*
X35118Y-22699D02*
X34803Y-22384D01*
X12441Y-29449D02*
X12756Y-29764D01*
X16764Y-29764D02*
X17068Y-29460D01*
X18583Y-29134D02*
X17068Y-29134D01*
X15738Y-24101D02*
X15738Y-25247D01*
X43780Y-28092D02*
X43780Y-28505D01*
X16003Y-25512D02*
X16003Y-25924D01*
X18582Y-26299D02*
X19055Y-26772D01*
X44409Y-29134D02*
X50612Y-29134D01*
X40000Y-29291D02*
X37638Y-29291D01*
X35196Y-21024D02*
X35732Y-21024D01*
X15738Y-25247D02*
X16003Y-25512D01*
X43053Y-28092D02*
X43780Y-28092D01*
X16050Y-20335D02*
X16050Y-19540D01*
X17165Y-18425D02*
X18741Y-18425D01*
X16050Y-19540D02*
X17165Y-18425D01*
X18741Y-18425D02*
X19094Y-18072D01*
X19094Y-18072D02*
X19094Y-17323D01*
X17323Y-18740D02*
X19842Y-18740D01*
X16370Y-20335D02*
X16370Y-19693D01*
X20276Y-18306D02*
X20276Y-17323D01*
X16370Y-19693D02*
X17323Y-18740D01*
X19842Y-18740D02*
X20276Y-18306D01*
X25697Y-27342D02*
X25697Y-26267D01*
X25697Y-26267D02*
X25572Y-26142D01*
X35732Y-20157D02*
X37638Y-20157D01*
X37638Y-20157D02*
X38583Y-21102D01*
X26359Y-27342D02*
X25697Y-27342D01*
X29116Y-26947D02*
X30200Y-28031D01*
X30200Y-28031D02*
X30491Y-28031D01*
X28721Y-27342D02*
X25697Y-27342D01*
X29116Y-26947D02*
X28721Y-27342D01*
X29116Y-26669D02*
X29116Y-26947D01*
X26772Y-26929D02*
X26359Y-27342D01*
G54D10*
G36*
X42714Y-30344D02*
X17493Y-30344D01*
X17493Y-29246D01*
X17493Y-29022D01*
X17492Y-28908D01*
X17492Y-28809D01*
X17454Y-28718D01*
X17384Y-28648D01*
X17292Y-28610D01*
X17180Y-28609D01*
X17118Y-28671D01*
X17118Y-29084D01*
X17431Y-29084D01*
X17493Y-29022D01*
X17493Y-29246D01*
X17431Y-29184D01*
X17118Y-29184D01*
X17118Y-29597D01*
X17180Y-29659D01*
X17292Y-29658D01*
X17384Y-29620D01*
X17454Y-29550D01*
X17492Y-29459D01*
X17492Y-29360D01*
X17493Y-29246D01*
X17493Y-30344D01*
X13433Y-30344D01*
X13433Y-29597D01*
X13433Y-29184D01*
X13433Y-29084D01*
X13433Y-28671D01*
X13371Y-28609D01*
X13259Y-28610D01*
X13167Y-28648D01*
X13097Y-28718D01*
X13059Y-28809D01*
X13059Y-28908D01*
X13058Y-29022D01*
X13120Y-29084D01*
X13433Y-29084D01*
X13433Y-29184D01*
X13120Y-29184D01*
X13058Y-29246D01*
X13059Y-29360D01*
X13059Y-29459D01*
X13097Y-29550D01*
X13167Y-29620D01*
X13259Y-29658D01*
X13371Y-29659D01*
X13433Y-29597D01*
X13433Y-30344D01*
X09813Y-30344D01*
X09813Y-29239D01*
X09813Y-29031D01*
X09734Y-28839D01*
X09587Y-28692D01*
X09396Y-28612D01*
X09188Y-28612D01*
X08996Y-28691D01*
X08849Y-28838D01*
X08769Y-29029D01*
X08769Y-29237D01*
X08848Y-29429D01*
X08995Y-29576D01*
X09186Y-29656D01*
X09394Y-29656D01*
X09586Y-29577D01*
X09733Y-29430D01*
X09813Y-29239D01*
X09813Y-30344D01*
X05877Y-30344D01*
X05877Y-28239D01*
X08396Y-28239D01*
X08396Y-26664D01*
X11919Y-26664D01*
X11919Y-27895D01*
X12420Y-28396D01*
X13365Y-28396D01*
X13586Y-28617D01*
X13533Y-28671D01*
X13533Y-29034D01*
X13533Y-29084D01*
X13533Y-29184D01*
X13533Y-29234D01*
X13533Y-29597D01*
X13595Y-29659D01*
X13707Y-29658D01*
X13711Y-29656D01*
X16714Y-29656D01*
X16751Y-29619D01*
X16752Y-29620D01*
X16844Y-29658D01*
X16956Y-29659D01*
X17018Y-29597D01*
X17018Y-29234D01*
X17018Y-29184D01*
X17018Y-29084D01*
X17018Y-29034D01*
X17018Y-28671D01*
X16956Y-28609D01*
X16900Y-28609D01*
X16900Y-28525D01*
X17029Y-28396D01*
X18132Y-28396D01*
X18790Y-27738D01*
X18790Y-26750D01*
X18446Y-26406D01*
X16399Y-26406D01*
X16030Y-26037D01*
X16103Y-26037D01*
X16103Y-26034D01*
X16112Y-26034D01*
X16115Y-26037D01*
X16227Y-26036D01*
X16231Y-26034D01*
X17215Y-26034D01*
X17215Y-25404D01*
X18719Y-25404D01*
X19478Y-26163D01*
X19478Y-28367D01*
X21081Y-29971D01*
X36399Y-29971D01*
X40422Y-25948D01*
X40422Y-28052D01*
X42714Y-30344D01*
X42714Y-30344D01*
G37*
G54D38*
X42714Y-30344D02*
X17493Y-30344D01*
X17493Y-29246D01*
X17493Y-29022D01*
X17492Y-28908D01*
X17492Y-28809D01*
X17454Y-28718D01*
X17384Y-28648D01*
X17292Y-28610D01*
X17180Y-28609D01*
X17118Y-28671D01*
X17118Y-29084D01*
X17431Y-29084D01*
X17493Y-29022D01*
X17493Y-29246D01*
X17431Y-29184D01*
X17118Y-29184D01*
X17118Y-29597D01*
X17180Y-29659D01*
X17292Y-29658D01*
X17384Y-29620D01*
X17454Y-29550D01*
X17492Y-29459D01*
X17492Y-29360D01*
X17493Y-29246D01*
X17493Y-30344D01*
X13433Y-30344D01*
X13433Y-29597D01*
X13433Y-29184D01*
X13433Y-29084D01*
X13433Y-28671D01*
X13371Y-28609D01*
X13259Y-28610D01*
X13167Y-28648D01*
X13097Y-28718D01*
X13059Y-28809D01*
X13059Y-28908D01*
X13058Y-29022D01*
X13120Y-29084D01*
X13433Y-29084D01*
X13433Y-29184D01*
X13120Y-29184D01*
X13058Y-29246D01*
X13059Y-29360D01*
X13059Y-29459D01*
X13097Y-29550D01*
X13167Y-29620D01*
X13259Y-29658D01*
X13371Y-29659D01*
X13433Y-29597D01*
X13433Y-30344D01*
X09813Y-30344D01*
X09813Y-29239D01*
X09813Y-29031D01*
X09734Y-28839D01*
X09587Y-28692D01*
X09396Y-28612D01*
X09188Y-28612D01*
X08996Y-28691D01*
X08849Y-28838D01*
X08769Y-29029D01*
X08769Y-29237D01*
X08848Y-29429D01*
X08995Y-29576D01*
X09186Y-29656D01*
X09394Y-29656D01*
X09586Y-29577D01*
X09733Y-29430D01*
X09813Y-29239D01*
X09813Y-30344D01*
X05877Y-30344D01*
X05877Y-28239D01*
X08396Y-28239D01*
X08396Y-26664D01*
X11919Y-26664D01*
X11919Y-27895D01*
X12420Y-28396D01*
X13365Y-28396D01*
X13586Y-28617D01*
X13533Y-28671D01*
X13533Y-29034D01*
X13533Y-29084D01*
X13533Y-29184D01*
X13533Y-29234D01*
X13533Y-29597D01*
X13595Y-29659D01*
X13707Y-29658D01*
X13711Y-29656D01*
X16714Y-29656D01*
X16751Y-29619D01*
X16752Y-29620D01*
X16844Y-29658D01*
X16956Y-29659D01*
X17018Y-29597D01*
X17018Y-29234D01*
X17018Y-29184D01*
X17018Y-29084D01*
X17018Y-29034D01*
X17018Y-28671D01*
X16956Y-28609D01*
X16900Y-28609D01*
X16900Y-28525D01*
X17029Y-28396D01*
X18132Y-28396D01*
X18790Y-27738D01*
X18790Y-26750D01*
X18446Y-26406D01*
X16399Y-26406D01*
X16030Y-26037D01*
X16103Y-26037D01*
X16103Y-26034D01*
X16112Y-26034D01*
X16115Y-26037D01*
X16227Y-26036D01*
X16231Y-26034D01*
X17215Y-26034D01*
X17215Y-25404D01*
X18719Y-25404D01*
X19478Y-26163D01*
X19478Y-28367D01*
X21081Y-29971D01*
X36399Y-29971D01*
X40422Y-25948D01*
X40422Y-28052D01*
X42714Y-30344D01*
G54D10*
G36*
X15383Y-18877D02*
X15255Y-19005D01*
X14716Y-19005D01*
X14716Y-17434D01*
X14655Y-17373D01*
X14027Y-17373D01*
X14027Y-18493D01*
X14088Y-18554D01*
X14518Y-18553D01*
X14608Y-18516D01*
X14678Y-18446D01*
X14715Y-18356D01*
X14715Y-18258D01*
X14716Y-17434D01*
X14716Y-19005D01*
X13995Y-19005D01*
X13522Y-19478D01*
X13178Y-19478D01*
X13122Y-19478D01*
X13061Y-19539D01*
X13061Y-19900D01*
X13061Y-19950D01*
X13061Y-20050D01*
X13061Y-20100D01*
X13061Y-20461D01*
X13122Y-20522D01*
X13178Y-20521D01*
X13178Y-20737D01*
X12961Y-20737D01*
X12961Y-20461D01*
X12961Y-20050D01*
X12961Y-19950D01*
X12961Y-19539D01*
X12900Y-19478D01*
X12787Y-19479D01*
X12697Y-19516D01*
X12627Y-19586D01*
X12590Y-19676D01*
X12590Y-19774D01*
X12589Y-19889D01*
X12650Y-19950D01*
X12961Y-19950D01*
X12961Y-20050D01*
X12650Y-20050D01*
X12589Y-20111D01*
X12590Y-20226D01*
X12590Y-20324D01*
X12627Y-20414D01*
X12697Y-20484D01*
X12787Y-20521D01*
X12900Y-20522D01*
X12961Y-20461D01*
X12961Y-20737D01*
X12233Y-20737D01*
X12233Y-21367D01*
X09627Y-21367D01*
X09341Y-21081D01*
X09341Y-20493D01*
X09627Y-20207D01*
X10916Y-20207D01*
X10916Y-18375D01*
X10842Y-18375D01*
X10845Y-18372D01*
X10882Y-18282D01*
X10883Y-18044D01*
X10822Y-17983D01*
X10336Y-17983D01*
X10286Y-17983D01*
X10186Y-17983D01*
X10136Y-17983D01*
X09650Y-17983D01*
X09589Y-18044D01*
X09590Y-18282D01*
X09627Y-18372D01*
X09630Y-18375D01*
X09419Y-18375D01*
X09420Y-18103D01*
X09359Y-18042D01*
X08289Y-18042D01*
X08239Y-18042D01*
X08139Y-18042D01*
X08139Y-17942D01*
X08239Y-17942D01*
X08289Y-17942D01*
X09359Y-17942D01*
X09420Y-17881D01*
X09419Y-17530D01*
X09612Y-17530D01*
X09590Y-17584D01*
X09589Y-17822D01*
X09650Y-17883D01*
X10136Y-17883D01*
X10186Y-17883D01*
X10286Y-17883D01*
X10336Y-17883D01*
X10822Y-17883D01*
X10883Y-17822D01*
X10882Y-17584D01*
X10859Y-17530D01*
X12076Y-17530D01*
X12076Y-18633D01*
X13593Y-18633D01*
X13593Y-18553D01*
X13866Y-18554D01*
X13927Y-18493D01*
X13927Y-17423D01*
X13927Y-17373D01*
X13927Y-17273D01*
X14027Y-17273D01*
X14077Y-17273D01*
X14655Y-17273D01*
X14716Y-17212D01*
X14715Y-16428D01*
X15383Y-16428D01*
X15383Y-18877D01*
X15383Y-18877D01*
G37*
G54D38*
X15383Y-18877D02*
X15255Y-19005D01*
X14716Y-19005D01*
X14716Y-17434D01*
X14655Y-17373D01*
X14027Y-17373D01*
X14027Y-18493D01*
X14088Y-18554D01*
X14518Y-18553D01*
X14608Y-18516D01*
X14678Y-18446D01*
X14715Y-18356D01*
X14715Y-18258D01*
X14716Y-17434D01*
X14716Y-19005D01*
X13995Y-19005D01*
X13522Y-19478D01*
X13178Y-19478D01*
X13122Y-19478D01*
X13061Y-19539D01*
X13061Y-19900D01*
X13061Y-19950D01*
X13061Y-20050D01*
X13061Y-20100D01*
X13061Y-20461D01*
X13122Y-20522D01*
X13178Y-20521D01*
X13178Y-20737D01*
X12961Y-20737D01*
X12961Y-20461D01*
X12961Y-20050D01*
X12961Y-19950D01*
X12961Y-19539D01*
X12900Y-19478D01*
X12787Y-19479D01*
X12697Y-19516D01*
X12627Y-19586D01*
X12590Y-19676D01*
X12590Y-19774D01*
X12589Y-19889D01*
X12650Y-19950D01*
X12961Y-19950D01*
X12961Y-20050D01*
X12650Y-20050D01*
X12589Y-20111D01*
X12590Y-20226D01*
X12590Y-20324D01*
X12627Y-20414D01*
X12697Y-20484D01*
X12787Y-20521D01*
X12900Y-20522D01*
X12961Y-20461D01*
X12961Y-20737D01*
X12233Y-20737D01*
X12233Y-21367D01*
X09627Y-21367D01*
X09341Y-21081D01*
X09341Y-20493D01*
X09627Y-20207D01*
X10916Y-20207D01*
X10916Y-18375D01*
X10842Y-18375D01*
X10845Y-18372D01*
X10882Y-18282D01*
X10883Y-18044D01*
X10822Y-17983D01*
X10336Y-17983D01*
X10286Y-17983D01*
X10186Y-17983D01*
X10136Y-17983D01*
X09650Y-17983D01*
X09589Y-18044D01*
X09590Y-18282D01*
X09627Y-18372D01*
X09630Y-18375D01*
X09419Y-18375D01*
X09420Y-18103D01*
X09359Y-18042D01*
X08289Y-18042D01*
X08239Y-18042D01*
X08139Y-18042D01*
X08139Y-17942D01*
X08239Y-17942D01*
X08289Y-17942D01*
X09359Y-17942D01*
X09420Y-17881D01*
X09419Y-17530D01*
X09612Y-17530D01*
X09590Y-17584D01*
X09589Y-17822D01*
X09650Y-17883D01*
X10136Y-17883D01*
X10186Y-17883D01*
X10286Y-17883D01*
X10336Y-17883D01*
X10822Y-17883D01*
X10883Y-17822D01*
X10882Y-17584D01*
X10859Y-17530D01*
X12076Y-17530D01*
X12076Y-18633D01*
X13593Y-18633D01*
X13593Y-18553D01*
X13866Y-18554D01*
X13927Y-18493D01*
X13927Y-17423D01*
X13927Y-17373D01*
X13927Y-17273D01*
X14027Y-17273D01*
X14077Y-17273D01*
X14655Y-17273D01*
X14716Y-17212D01*
X14715Y-16428D01*
X15383Y-16428D01*
X15383Y-18877D01*
G54D10*
G36*
X12845Y-17373D02*
X12745Y-17373D01*
X12745Y-17273D01*
X12845Y-17273D01*
X12845Y-17373D01*
X12845Y-17373D01*
G37*
G54D38*
X12845Y-17373D02*
X12745Y-17373D01*
X12745Y-17273D01*
X12845Y-17273D01*
X12845Y-17373D01*
G54D10*
G36*
X13336Y-21997D02*
X12420Y-21997D01*
X12417Y-22000D01*
X12295Y-22000D01*
X12234Y-22061D01*
X12235Y-22174D01*
X12237Y-22179D01*
X11475Y-22942D01*
X10501Y-22942D01*
X10501Y-23572D01*
X08926Y-23572D01*
X08926Y-25619D01*
X08239Y-25619D01*
X08239Y-24517D01*
X08139Y-24517D01*
X08139Y-19852D01*
X08139Y-19224D01*
X07019Y-19224D01*
X06958Y-19285D01*
X06959Y-19715D01*
X06996Y-19805D01*
X07066Y-19875D01*
X07156Y-19912D01*
X07254Y-19912D01*
X08078Y-19913D01*
X08139Y-19852D01*
X08139Y-24517D01*
X07452Y-24517D01*
X07452Y-23171D01*
X07580Y-23042D01*
X08081Y-23042D01*
X08081Y-22155D01*
X08031Y-22155D01*
X08031Y-21951D01*
X08030Y-21888D01*
X07993Y-21798D01*
X07923Y-21728D01*
X07833Y-21691D01*
X07735Y-21691D01*
X07670Y-21690D01*
X07609Y-21751D01*
X07609Y-22012D01*
X07970Y-22012D01*
X08031Y-21951D01*
X08031Y-22155D01*
X08013Y-22155D01*
X07970Y-22112D01*
X07659Y-22112D01*
X07609Y-22112D01*
X07509Y-22112D01*
X07509Y-22012D01*
X07509Y-21751D01*
X07448Y-21690D01*
X07383Y-21691D01*
X07285Y-21691D01*
X07195Y-21728D01*
X07125Y-21798D01*
X07088Y-21888D01*
X07087Y-21951D01*
X07148Y-22012D01*
X07509Y-22012D01*
X07509Y-22112D01*
X07459Y-22112D01*
X07148Y-22112D01*
X07105Y-22155D01*
X06879Y-22155D01*
X06879Y-22814D01*
X06722Y-22971D01*
X06722Y-24517D01*
X05877Y-24517D01*
X05877Y-16270D01*
X12065Y-16270D01*
X12057Y-16290D01*
X12057Y-16388D01*
X12056Y-17212D01*
X12067Y-17223D01*
X12056Y-17223D01*
X12056Y-17273D01*
X06879Y-17273D01*
X06879Y-18790D01*
X06958Y-18790D01*
X06958Y-19063D01*
X07019Y-19124D01*
X08089Y-19124D01*
X08139Y-19124D01*
X08239Y-19124D01*
X08289Y-19124D01*
X09359Y-19124D01*
X09420Y-19063D01*
X09419Y-18790D01*
X09631Y-18790D01*
X09627Y-18794D01*
X09590Y-18884D01*
X09589Y-19122D01*
X09650Y-19183D01*
X10136Y-19183D01*
X10186Y-19183D01*
X10286Y-19183D01*
X10286Y-19283D01*
X10286Y-19333D01*
X10286Y-19719D01*
X10347Y-19780D01*
X10501Y-19779D01*
X10501Y-19793D01*
X10186Y-19793D01*
X10186Y-19719D01*
X10186Y-19283D01*
X09650Y-19283D01*
X09589Y-19344D01*
X09590Y-19582D01*
X09627Y-19672D01*
X09697Y-19742D01*
X09787Y-19779D01*
X09885Y-19779D01*
X10125Y-19780D01*
X10186Y-19719D01*
X10186Y-19793D01*
X09585Y-19793D01*
X09420Y-19957D01*
X09420Y-19285D01*
X09359Y-19224D01*
X08239Y-19224D01*
X08239Y-19852D01*
X08300Y-19913D01*
X09124Y-19912D01*
X09222Y-19912D01*
X09312Y-19875D01*
X09382Y-19805D01*
X09419Y-19715D01*
X09420Y-19285D01*
X09420Y-19957D01*
X08926Y-20451D01*
X08926Y-21123D01*
X09585Y-21782D01*
X12234Y-21782D01*
X12234Y-21839D01*
X12295Y-21900D01*
X12656Y-21900D01*
X12706Y-21900D01*
X12806Y-21900D01*
X12856Y-21900D01*
X13217Y-21900D01*
X13271Y-21846D01*
X13336Y-21911D01*
X13336Y-21997D01*
X13336Y-21997D01*
G37*
G54D38*
X13336Y-21997D02*
X12420Y-21997D01*
X12417Y-22000D01*
X12295Y-22000D01*
X12234Y-22061D01*
X12235Y-22174D01*
X12237Y-22179D01*
X11475Y-22942D01*
X10501Y-22942D01*
X10501Y-23572D01*
X08926Y-23572D01*
X08926Y-25619D01*
X08239Y-25619D01*
X08239Y-24517D01*
X08139Y-24517D01*
X08139Y-19852D01*
X08139Y-19224D01*
X07019Y-19224D01*
X06958Y-19285D01*
X06959Y-19715D01*
X06996Y-19805D01*
X07066Y-19875D01*
X07156Y-19912D01*
X07254Y-19912D01*
X08078Y-19913D01*
X08139Y-19852D01*
X08139Y-24517D01*
X07452Y-24517D01*
X07452Y-23171D01*
X07580Y-23042D01*
X08081Y-23042D01*
X08081Y-22155D01*
X08031Y-22155D01*
X08031Y-21951D01*
X08030Y-21888D01*
X07993Y-21798D01*
X07923Y-21728D01*
X07833Y-21691D01*
X07735Y-21691D01*
X07670Y-21690D01*
X07609Y-21751D01*
X07609Y-22012D01*
X07970Y-22012D01*
X08031Y-21951D01*
X08031Y-22155D01*
X08013Y-22155D01*
X07970Y-22112D01*
X07659Y-22112D01*
X07609Y-22112D01*
X07509Y-22112D01*
X07509Y-22012D01*
X07509Y-21751D01*
X07448Y-21690D01*
X07383Y-21691D01*
X07285Y-21691D01*
X07195Y-21728D01*
X07125Y-21798D01*
X07088Y-21888D01*
X07087Y-21951D01*
X07148Y-22012D01*
X07509Y-22012D01*
X07509Y-22112D01*
X07459Y-22112D01*
X07148Y-22112D01*
X07105Y-22155D01*
X06879Y-22155D01*
X06879Y-22814D01*
X06722Y-22971D01*
X06722Y-24517D01*
X05877Y-24517D01*
X05877Y-16270D01*
X12065Y-16270D01*
X12057Y-16290D01*
X12057Y-16388D01*
X12056Y-17212D01*
X12067Y-17223D01*
X12056Y-17223D01*
X12056Y-17273D01*
X06879Y-17273D01*
X06879Y-18790D01*
X06958Y-18790D01*
X06958Y-19063D01*
X07019Y-19124D01*
X08089Y-19124D01*
X08139Y-19124D01*
X08239Y-19124D01*
X08289Y-19124D01*
X09359Y-19124D01*
X09420Y-19063D01*
X09419Y-18790D01*
X09631Y-18790D01*
X09627Y-18794D01*
X09590Y-18884D01*
X09589Y-19122D01*
X09650Y-19183D01*
X10136Y-19183D01*
X10186Y-19183D01*
X10286Y-19183D01*
X10286Y-19283D01*
X10286Y-19333D01*
X10286Y-19719D01*
X10347Y-19780D01*
X10501Y-19779D01*
X10501Y-19793D01*
X10186Y-19793D01*
X10186Y-19719D01*
X10186Y-19283D01*
X09650Y-19283D01*
X09589Y-19344D01*
X09590Y-19582D01*
X09627Y-19672D01*
X09697Y-19742D01*
X09787Y-19779D01*
X09885Y-19779D01*
X10125Y-19780D01*
X10186Y-19719D01*
X10186Y-19793D01*
X09585Y-19793D01*
X09420Y-19957D01*
X09420Y-19285D01*
X09359Y-19224D01*
X08239Y-19224D01*
X08239Y-19852D01*
X08300Y-19913D01*
X09124Y-19912D01*
X09222Y-19912D01*
X09312Y-19875D01*
X09382Y-19805D01*
X09419Y-19715D01*
X09420Y-19285D01*
X09420Y-19957D01*
X08926Y-20451D01*
X08926Y-21123D01*
X09585Y-21782D01*
X12234Y-21782D01*
X12234Y-21839D01*
X12295Y-21900D01*
X12656Y-21900D01*
X12706Y-21900D01*
X12806Y-21900D01*
X12856Y-21900D01*
X13217Y-21900D01*
X13271Y-21846D01*
X13336Y-21911D01*
X13336Y-21997D01*
G54D10*
G36*
X14596Y-25619D02*
X12577Y-25619D01*
X11948Y-26249D01*
X11145Y-26249D01*
X11675Y-25719D01*
X11832Y-25719D01*
X12176Y-25375D01*
X12176Y-24617D01*
X12304Y-24617D01*
X13407Y-23515D01*
X13651Y-23515D01*
X13651Y-23830D01*
X14596Y-23830D01*
X14596Y-25619D01*
X14596Y-25619D01*
G37*
G54D38*
X14596Y-25619D02*
X12577Y-25619D01*
X11948Y-26249D01*
X11145Y-26249D01*
X11675Y-25719D01*
X11832Y-25719D01*
X12176Y-25375D01*
X12176Y-24617D01*
X12304Y-24617D01*
X13407Y-23515D01*
X13651Y-23515D01*
X13651Y-23830D01*
X14596Y-23830D01*
X14596Y-25619D01*
G54D10*
G36*
X26178Y-25462D02*
X24989Y-25462D01*
X24989Y-25620D01*
X24933Y-25620D01*
X24872Y-25681D01*
X24872Y-26042D01*
X24872Y-26092D01*
X24872Y-26192D01*
X24872Y-26242D01*
X24872Y-26603D01*
X24933Y-26664D01*
X24989Y-26663D01*
X24989Y-26879D01*
X24772Y-26879D01*
X24772Y-26603D01*
X24772Y-26192D01*
X24772Y-26092D01*
X24772Y-25681D01*
X24711Y-25620D01*
X24598Y-25621D01*
X24508Y-25658D01*
X24438Y-25728D01*
X24401Y-25818D01*
X24401Y-25916D01*
X24400Y-26031D01*
X24461Y-26092D01*
X24772Y-26092D01*
X24772Y-26192D01*
X24461Y-26192D01*
X24400Y-26253D01*
X24401Y-26368D01*
X24401Y-26466D01*
X24438Y-26556D01*
X24508Y-26626D01*
X24598Y-26663D01*
X24711Y-26664D01*
X24772Y-26603D01*
X24772Y-26879D01*
X24202Y-26879D01*
X24202Y-27509D01*
X23828Y-27509D01*
X23829Y-27453D01*
X23829Y-27231D01*
X23828Y-27118D01*
X23791Y-27028D01*
X23721Y-26958D01*
X23631Y-26921D01*
X23533Y-26921D01*
X23418Y-26920D01*
X23357Y-26981D01*
X23357Y-27292D01*
X23768Y-27292D01*
X23829Y-27231D01*
X23829Y-27453D01*
X23768Y-27392D01*
X23407Y-27392D01*
X23357Y-27392D01*
X23257Y-27392D01*
X23257Y-27292D01*
X23257Y-26981D01*
X23196Y-26920D01*
X23081Y-26921D01*
X22983Y-26921D01*
X22893Y-26958D01*
X22823Y-27028D01*
X22786Y-27118D01*
X22785Y-27231D01*
X22846Y-27292D01*
X23257Y-27292D01*
X23257Y-27392D01*
X23207Y-27392D01*
X22846Y-27392D01*
X22785Y-27453D01*
X22785Y-27509D01*
X22412Y-27509D01*
X22412Y-26908D01*
X22255Y-26751D01*
X22255Y-24359D01*
X20837Y-24359D01*
X20837Y-23515D01*
X21596Y-23515D01*
X21940Y-23171D01*
X21940Y-22097D01*
X22814Y-22097D01*
X26178Y-25462D01*
X26178Y-25462D01*
G37*
G54D38*
X26178Y-25462D02*
X24989Y-25462D01*
X24989Y-25620D01*
X24933Y-25620D01*
X24872Y-25681D01*
X24872Y-26042D01*
X24872Y-26092D01*
X24872Y-26192D01*
X24872Y-26242D01*
X24872Y-26603D01*
X24933Y-26664D01*
X24989Y-26663D01*
X24989Y-26879D01*
X24772Y-26879D01*
X24772Y-26603D01*
X24772Y-26192D01*
X24772Y-26092D01*
X24772Y-25681D01*
X24711Y-25620D01*
X24598Y-25621D01*
X24508Y-25658D01*
X24438Y-25728D01*
X24401Y-25818D01*
X24401Y-25916D01*
X24400Y-26031D01*
X24461Y-26092D01*
X24772Y-26092D01*
X24772Y-26192D01*
X24461Y-26192D01*
X24400Y-26253D01*
X24401Y-26368D01*
X24401Y-26466D01*
X24438Y-26556D01*
X24508Y-26626D01*
X24598Y-26663D01*
X24711Y-26664D01*
X24772Y-26603D01*
X24772Y-26879D01*
X24202Y-26879D01*
X24202Y-27509D01*
X23828Y-27509D01*
X23829Y-27453D01*
X23829Y-27231D01*
X23828Y-27118D01*
X23791Y-27028D01*
X23721Y-26958D01*
X23631Y-26921D01*
X23533Y-26921D01*
X23418Y-26920D01*
X23357Y-26981D01*
X23357Y-27292D01*
X23768Y-27292D01*
X23829Y-27231D01*
X23829Y-27453D01*
X23768Y-27392D01*
X23407Y-27392D01*
X23357Y-27392D01*
X23257Y-27392D01*
X23257Y-27292D01*
X23257Y-26981D01*
X23196Y-26920D01*
X23081Y-26921D01*
X22983Y-26921D01*
X22893Y-26958D01*
X22823Y-27028D01*
X22786Y-27118D01*
X22785Y-27231D01*
X22846Y-27292D01*
X23257Y-27292D01*
X23257Y-27392D01*
X23207Y-27392D01*
X22846Y-27392D01*
X22785Y-27453D01*
X22785Y-27509D01*
X22412Y-27509D01*
X22412Y-26908D01*
X22255Y-26751D01*
X22255Y-24359D01*
X20837Y-24359D01*
X20837Y-23515D01*
X21596Y-23515D01*
X21940Y-23171D01*
X21940Y-22097D01*
X22814Y-22097D01*
X26178Y-25462D01*
G54D10*
G36*
X43186Y-21997D02*
X42341Y-21997D01*
X35727Y-28611D01*
X32963Y-28611D01*
X32963Y-26780D01*
X32963Y-26558D01*
X32962Y-26493D01*
X32962Y-26395D01*
X32925Y-26305D01*
X32855Y-26235D01*
X32765Y-26198D01*
X32727Y-26197D01*
X32666Y-26258D01*
X32666Y-26619D01*
X32902Y-26619D01*
X32963Y-26558D01*
X32963Y-26780D01*
X32902Y-26719D01*
X32666Y-26719D01*
X32666Y-27080D01*
X32727Y-27141D01*
X32765Y-27140D01*
X32855Y-27103D01*
X32925Y-27033D01*
X32962Y-26943D01*
X32962Y-26845D01*
X32963Y-26780D01*
X32963Y-28611D01*
X31663Y-28611D01*
X31663Y-28142D01*
X31663Y-27920D01*
X31662Y-27805D01*
X31662Y-27707D01*
X31625Y-27617D01*
X31555Y-27547D01*
X31465Y-27510D01*
X31352Y-27509D01*
X31291Y-27570D01*
X31291Y-27981D01*
X31602Y-27981D01*
X31663Y-27920D01*
X31663Y-28142D01*
X31602Y-28081D01*
X31291Y-28081D01*
X31291Y-28492D01*
X31352Y-28553D01*
X31465Y-28552D01*
X31555Y-28515D01*
X31625Y-28445D01*
X31662Y-28355D01*
X31662Y-28257D01*
X31663Y-28142D01*
X31663Y-28611D01*
X28355Y-28611D01*
X28355Y-28572D01*
X28356Y-28457D01*
X28356Y-28235D01*
X28355Y-28120D01*
X28355Y-28022D01*
X28318Y-27932D01*
X28248Y-27862D01*
X28158Y-27825D01*
X28045Y-27824D01*
X27984Y-27885D01*
X27984Y-28296D01*
X28295Y-28296D01*
X28356Y-28235D01*
X28356Y-28457D01*
X28295Y-28396D01*
X28034Y-28396D01*
X27984Y-28396D01*
X27884Y-28396D01*
X27884Y-28296D01*
X27884Y-28246D01*
X27884Y-27885D01*
X27823Y-27824D01*
X27767Y-27824D01*
X27767Y-27767D01*
X28840Y-27767D01*
X29134Y-27473D01*
X29871Y-28210D01*
X29871Y-28554D01*
X31074Y-28554D01*
X31074Y-28552D01*
X31130Y-28553D01*
X31191Y-28492D01*
X31191Y-28131D01*
X31191Y-28081D01*
X31191Y-27981D01*
X31191Y-27931D01*
X31191Y-27570D01*
X31130Y-27509D01*
X31074Y-27509D01*
X31074Y-27352D01*
X30286Y-27352D01*
X30286Y-27137D01*
X32459Y-27137D01*
X32467Y-27140D01*
X32505Y-27141D01*
X32566Y-27080D01*
X32566Y-26769D01*
X32566Y-26719D01*
X32566Y-26619D01*
X32566Y-26569D01*
X32566Y-26258D01*
X32505Y-26197D01*
X32491Y-26197D01*
X32491Y-26163D01*
X32963Y-25690D01*
X32963Y-24459D01*
X38919Y-24459D01*
X39893Y-23486D01*
X39893Y-19507D01*
X39076Y-18690D01*
X37459Y-18690D01*
X37302Y-18848D01*
X36428Y-18848D01*
X36428Y-16800D01*
X29241Y-16800D01*
X29241Y-22871D01*
X28561Y-22191D01*
X28561Y-18173D01*
X28561Y-17025D01*
X22148Y-17025D01*
X22148Y-18173D01*
X28561Y-18173D01*
X28561Y-22191D01*
X25060Y-18690D01*
X21152Y-18690D01*
X21152Y-16270D01*
X39478Y-16270D01*
X39478Y-18633D01*
X39822Y-18633D01*
X43186Y-21997D01*
X43186Y-21997D01*
G37*
G54D38*
X43186Y-21997D02*
X42341Y-21997D01*
X35727Y-28611D01*
X32963Y-28611D01*
X32963Y-26780D01*
X32963Y-26558D01*
X32962Y-26493D01*
X32962Y-26395D01*
X32925Y-26305D01*
X32855Y-26235D01*
X32765Y-26198D01*
X32727Y-26197D01*
X32666Y-26258D01*
X32666Y-26619D01*
X32902Y-26619D01*
X32963Y-26558D01*
X32963Y-26780D01*
X32902Y-26719D01*
X32666Y-26719D01*
X32666Y-27080D01*
X32727Y-27141D01*
X32765Y-27140D01*
X32855Y-27103D01*
X32925Y-27033D01*
X32962Y-26943D01*
X32962Y-26845D01*
X32963Y-26780D01*
X32963Y-28611D01*
X31663Y-28611D01*
X31663Y-28142D01*
X31663Y-27920D01*
X31662Y-27805D01*
X31662Y-27707D01*
X31625Y-27617D01*
X31555Y-27547D01*
X31465Y-27510D01*
X31352Y-27509D01*
X31291Y-27570D01*
X31291Y-27981D01*
X31602Y-27981D01*
X31663Y-27920D01*
X31663Y-28142D01*
X31602Y-28081D01*
X31291Y-28081D01*
X31291Y-28492D01*
X31352Y-28553D01*
X31465Y-28552D01*
X31555Y-28515D01*
X31625Y-28445D01*
X31662Y-28355D01*
X31662Y-28257D01*
X31663Y-28142D01*
X31663Y-28611D01*
X28355Y-28611D01*
X28355Y-28572D01*
X28356Y-28457D01*
X28356Y-28235D01*
X28355Y-28120D01*
X28355Y-28022D01*
X28318Y-27932D01*
X28248Y-27862D01*
X28158Y-27825D01*
X28045Y-27824D01*
X27984Y-27885D01*
X27984Y-28296D01*
X28295Y-28296D01*
X28356Y-28235D01*
X28356Y-28457D01*
X28295Y-28396D01*
X28034Y-28396D01*
X27984Y-28396D01*
X27884Y-28396D01*
X27884Y-28296D01*
X27884Y-28246D01*
X27884Y-27885D01*
X27823Y-27824D01*
X27767Y-27824D01*
X27767Y-27767D01*
X28840Y-27767D01*
X29134Y-27473D01*
X29871Y-28210D01*
X29871Y-28554D01*
X31074Y-28554D01*
X31074Y-28552D01*
X31130Y-28553D01*
X31191Y-28492D01*
X31191Y-28131D01*
X31191Y-28081D01*
X31191Y-27981D01*
X31191Y-27931D01*
X31191Y-27570D01*
X31130Y-27509D01*
X31074Y-27509D01*
X31074Y-27352D01*
X30286Y-27352D01*
X30286Y-27137D01*
X32459Y-27137D01*
X32467Y-27140D01*
X32505Y-27141D01*
X32566Y-27080D01*
X32566Y-26769D01*
X32566Y-26719D01*
X32566Y-26619D01*
X32566Y-26569D01*
X32566Y-26258D01*
X32505Y-26197D01*
X32491Y-26197D01*
X32491Y-26163D01*
X32963Y-25690D01*
X32963Y-24459D01*
X38919Y-24459D01*
X39893Y-23486D01*
X39893Y-19507D01*
X39076Y-18690D01*
X37459Y-18690D01*
X37302Y-18848D01*
X36428Y-18848D01*
X36428Y-16800D01*
X29241Y-16800D01*
X29241Y-22871D01*
X28561Y-22191D01*
X28561Y-18173D01*
X28561Y-17025D01*
X22148Y-17025D01*
X22148Y-18173D01*
X28561Y-18173D01*
X28561Y-22191D01*
X25060Y-18690D01*
X21152Y-18690D01*
X21152Y-16270D01*
X39478Y-16270D01*
X39478Y-18633D01*
X39822Y-18633D01*
X43186Y-21997D01*
G54D10*
G36*
X46343Y-25154D02*
X46289Y-25208D01*
X46289Y-25569D01*
X46289Y-25619D01*
X46289Y-25719D01*
X46189Y-25719D01*
X46189Y-25619D01*
X46189Y-25208D01*
X46128Y-25147D01*
X46015Y-25148D01*
X45925Y-25185D01*
X45855Y-25255D01*
X45818Y-25345D01*
X45818Y-25443D01*
X45817Y-25558D01*
X45878Y-25619D01*
X46189Y-25619D01*
X46189Y-25719D01*
X46139Y-25719D01*
X45878Y-25719D01*
X45817Y-25780D01*
X45818Y-25895D01*
X45818Y-25993D01*
X45855Y-26083D01*
X45864Y-26092D01*
X45333Y-26092D01*
X44703Y-26722D01*
X43100Y-26722D01*
X43100Y-27924D01*
X43258Y-27924D01*
X43258Y-27981D01*
X43319Y-28042D01*
X43680Y-28042D01*
X43730Y-28042D01*
X43830Y-28042D01*
X43880Y-28042D01*
X44241Y-28042D01*
X44302Y-27981D01*
X44301Y-27924D01*
X44359Y-27924D01*
X44359Y-29084D01*
X44302Y-29084D01*
X44302Y-28203D01*
X44241Y-28142D01*
X43830Y-28142D01*
X43830Y-28453D01*
X43891Y-28514D01*
X44006Y-28513D01*
X44104Y-28513D01*
X44194Y-28476D01*
X44264Y-28406D01*
X44301Y-28316D01*
X44302Y-28203D01*
X44302Y-29084D01*
X43730Y-29084D01*
X43730Y-28453D01*
X43730Y-28142D01*
X43319Y-28142D01*
X43258Y-28203D01*
X43259Y-28316D01*
X43296Y-28406D01*
X43366Y-28476D01*
X43456Y-28513D01*
X43554Y-28513D01*
X43669Y-28514D01*
X43730Y-28453D01*
X43730Y-29084D01*
X43486Y-29084D01*
X41782Y-27381D01*
X41782Y-26005D01*
X42383Y-25404D01*
X45690Y-25404D01*
X46249Y-24845D01*
X46249Y-25060D01*
X46343Y-25154D01*
X46343Y-25154D01*
G37*
G54D38*
X46343Y-25154D02*
X46289Y-25208D01*
X46289Y-25569D01*
X46289Y-25619D01*
X46289Y-25719D01*
X46189Y-25719D01*
X46189Y-25619D01*
X46189Y-25208D01*
X46128Y-25147D01*
X46015Y-25148D01*
X45925Y-25185D01*
X45855Y-25255D01*
X45818Y-25345D01*
X45818Y-25443D01*
X45817Y-25558D01*
X45878Y-25619D01*
X46189Y-25619D01*
X46189Y-25719D01*
X46139Y-25719D01*
X45878Y-25719D01*
X45817Y-25780D01*
X45818Y-25895D01*
X45818Y-25993D01*
X45855Y-26083D01*
X45864Y-26092D01*
X45333Y-26092D01*
X44703Y-26722D01*
X43100Y-26722D01*
X43100Y-27924D01*
X43258Y-27924D01*
X43258Y-27981D01*
X43319Y-28042D01*
X43680Y-28042D01*
X43730Y-28042D01*
X43830Y-28042D01*
X43880Y-28042D01*
X44241Y-28042D01*
X44302Y-27981D01*
X44301Y-27924D01*
X44359Y-27924D01*
X44359Y-29084D01*
X44302Y-29084D01*
X44302Y-28203D01*
X44241Y-28142D01*
X43830Y-28142D01*
X43830Y-28453D01*
X43891Y-28514D01*
X44006Y-28513D01*
X44104Y-28513D01*
X44194Y-28476D01*
X44264Y-28406D01*
X44301Y-28316D01*
X44302Y-28203D01*
X44302Y-29084D01*
X43730Y-29084D01*
X43730Y-28453D01*
X43730Y-28142D01*
X43319Y-28142D01*
X43258Y-28203D01*
X43259Y-28316D01*
X43296Y-28406D01*
X43366Y-28476D01*
X43456Y-28513D01*
X43554Y-28513D01*
X43669Y-28514D01*
X43730Y-28453D01*
X43730Y-29084D01*
X43486Y-29084D01*
X41782Y-27381D01*
X41782Y-26005D01*
X42383Y-25404D01*
X45690Y-25404D01*
X46249Y-24845D01*
X46249Y-25060D01*
X46343Y-25154D01*
G54D10*
G36*
X53808Y-27194D02*
X53522Y-27194D01*
X52176Y-28540D01*
X52176Y-28203D01*
X52115Y-28142D01*
X51704Y-28142D01*
X51704Y-28453D01*
X51765Y-28514D01*
X51880Y-28513D01*
X51978Y-28513D01*
X52068Y-28476D01*
X52138Y-28406D01*
X52175Y-28316D01*
X52176Y-28203D01*
X52176Y-28540D01*
X51633Y-29084D01*
X51604Y-29084D01*
X51604Y-28453D01*
X51604Y-28142D01*
X51193Y-28142D01*
X51132Y-28203D01*
X51133Y-28316D01*
X51170Y-28406D01*
X51240Y-28476D01*
X51330Y-28513D01*
X51428Y-28513D01*
X51543Y-28514D01*
X51604Y-28453D01*
X51604Y-29084D01*
X50444Y-29084D01*
X50444Y-28239D01*
X51074Y-28239D01*
X51074Y-27924D01*
X51132Y-27924D01*
X51132Y-27981D01*
X51193Y-28042D01*
X51554Y-28042D01*
X51604Y-28042D01*
X51704Y-28042D01*
X51754Y-28042D01*
X52115Y-28042D01*
X52176Y-27981D01*
X52175Y-27924D01*
X52176Y-27924D01*
X52176Y-26722D01*
X50758Y-26722D01*
X50758Y-25144D01*
X50758Y-24936D01*
X50679Y-24744D01*
X50532Y-24597D01*
X50341Y-24517D01*
X50133Y-24517D01*
X49941Y-24596D01*
X49794Y-24743D01*
X49714Y-24934D01*
X49714Y-25142D01*
X49793Y-25334D01*
X49940Y-25481D01*
X50131Y-25561D01*
X50339Y-25561D01*
X50531Y-25482D01*
X50678Y-25335D01*
X50758Y-25144D01*
X50758Y-26722D01*
X50730Y-26722D01*
X50257Y-26249D01*
X48682Y-26249D01*
X48239Y-25806D01*
X48239Y-23987D01*
X48554Y-23987D01*
X48554Y-23672D01*
X50530Y-23672D01*
X53522Y-26664D01*
X53808Y-26664D01*
X53808Y-27194D01*
X53808Y-27194D01*
G37*
G54D38*
X53808Y-27194D02*
X53522Y-27194D01*
X52176Y-28540D01*
X52176Y-28203D01*
X52115Y-28142D01*
X51704Y-28142D01*
X51704Y-28453D01*
X51765Y-28514D01*
X51880Y-28513D01*
X51978Y-28513D01*
X52068Y-28476D01*
X52138Y-28406D01*
X52175Y-28316D01*
X52176Y-28203D01*
X52176Y-28540D01*
X51633Y-29084D01*
X51604Y-29084D01*
X51604Y-28453D01*
X51604Y-28142D01*
X51193Y-28142D01*
X51132Y-28203D01*
X51133Y-28316D01*
X51170Y-28406D01*
X51240Y-28476D01*
X51330Y-28513D01*
X51428Y-28513D01*
X51543Y-28514D01*
X51604Y-28453D01*
X51604Y-29084D01*
X50444Y-29084D01*
X50444Y-28239D01*
X51074Y-28239D01*
X51074Y-27924D01*
X51132Y-27924D01*
X51132Y-27981D01*
X51193Y-28042D01*
X51554Y-28042D01*
X51604Y-28042D01*
X51704Y-28042D01*
X51754Y-28042D01*
X52115Y-28042D01*
X52176Y-27981D01*
X52175Y-27924D01*
X52176Y-27924D01*
X52176Y-26722D01*
X50758Y-26722D01*
X50758Y-25144D01*
X50758Y-24936D01*
X50679Y-24744D01*
X50532Y-24597D01*
X50341Y-24517D01*
X50133Y-24517D01*
X49941Y-24596D01*
X49794Y-24743D01*
X49714Y-24934D01*
X49714Y-25142D01*
X49793Y-25334D01*
X49940Y-25481D01*
X50131Y-25561D01*
X50339Y-25561D01*
X50531Y-25482D01*
X50678Y-25335D01*
X50758Y-25144D01*
X50758Y-26722D01*
X50730Y-26722D01*
X50257Y-26249D01*
X48682Y-26249D01*
X48239Y-25806D01*
X48239Y-23987D01*
X48554Y-23987D01*
X48554Y-23672D01*
X50530Y-23672D01*
X53522Y-26664D01*
X53808Y-26664D01*
X53808Y-27194D01*
G54D10*
G36*
X53808Y-16672D02*
X50215Y-20265D01*
X50188Y-20265D01*
X50188Y-17434D01*
X50127Y-17373D01*
X49499Y-17373D01*
X49499Y-18493D01*
X49560Y-18554D01*
X49990Y-18553D01*
X50080Y-18516D01*
X50150Y-18446D01*
X50187Y-18356D01*
X50187Y-18258D01*
X50188Y-17434D01*
X50188Y-20265D01*
X49399Y-20265D01*
X49399Y-18493D01*
X49399Y-17373D01*
X48771Y-17373D01*
X48710Y-17434D01*
X48711Y-18258D01*
X48711Y-18356D01*
X48748Y-18446D01*
X48818Y-18516D01*
X48908Y-18553D01*
X49338Y-18554D01*
X49399Y-18493D01*
X49399Y-20265D01*
X48367Y-20265D01*
X48239Y-20136D01*
X48239Y-19635D01*
X46349Y-19635D01*
X46349Y-18633D01*
X47137Y-18633D01*
X47137Y-16270D01*
X48719Y-16270D01*
X48711Y-16290D01*
X48711Y-16388D01*
X48710Y-17212D01*
X48771Y-17273D01*
X49349Y-17273D01*
X49399Y-17273D01*
X49499Y-17273D01*
X49549Y-17273D01*
X50127Y-17273D01*
X50188Y-17212D01*
X50187Y-16388D01*
X50187Y-16290D01*
X50178Y-16270D01*
X53808Y-16270D01*
X53808Y-16672D01*
X53808Y-16672D01*
G37*
G54D38*
X53808Y-16672D02*
X50215Y-20265D01*
X50188Y-20265D01*
X50188Y-17434D01*
X50127Y-17373D01*
X49499Y-17373D01*
X49499Y-18493D01*
X49560Y-18554D01*
X49990Y-18553D01*
X50080Y-18516D01*
X50150Y-18446D01*
X50187Y-18356D01*
X50187Y-18258D01*
X50188Y-17434D01*
X50188Y-20265D01*
X49399Y-20265D01*
X49399Y-18493D01*
X49399Y-17373D01*
X48771Y-17373D01*
X48710Y-17434D01*
X48711Y-18258D01*
X48711Y-18356D01*
X48748Y-18446D01*
X48818Y-18516D01*
X48908Y-18553D01*
X49338Y-18554D01*
X49399Y-18493D01*
X49399Y-20265D01*
X48367Y-20265D01*
X48239Y-20136D01*
X48239Y-19635D01*
X46349Y-19635D01*
X46349Y-18633D01*
X47137Y-18633D01*
X47137Y-16270D01*
X48719Y-16270D01*
X48711Y-16290D01*
X48711Y-16388D01*
X48710Y-17212D01*
X48771Y-17273D01*
X49349Y-17273D01*
X49399Y-17273D01*
X49499Y-17273D01*
X49549Y-17273D01*
X50127Y-17273D01*
X50188Y-17212D01*
X50187Y-16388D01*
X50187Y-16290D01*
X50178Y-16270D01*
X53808Y-16270D01*
X53808Y-16672D01*
G54D10*
G36*
X26336Y-28611D02*
X25094Y-28611D01*
X25094Y-28203D01*
X25033Y-28142D01*
X24747Y-28142D01*
X24747Y-28378D01*
X24807Y-28438D01*
X24896Y-28438D01*
X24986Y-28401D01*
X25056Y-28331D01*
X25093Y-28241D01*
X25094Y-28203D01*
X25094Y-28611D01*
X24647Y-28611D01*
X24647Y-28378D01*
X24647Y-28142D01*
X24361Y-28142D01*
X24300Y-28203D01*
X24301Y-28241D01*
X24338Y-28331D01*
X24408Y-28401D01*
X24498Y-28438D01*
X24587Y-28438D01*
X24647Y-28378D01*
X24647Y-28611D01*
X23829Y-28611D01*
X23829Y-28203D01*
X23768Y-28142D01*
X23357Y-28142D01*
X23357Y-28453D01*
X23418Y-28514D01*
X23533Y-28513D01*
X23631Y-28513D01*
X23721Y-28476D01*
X23791Y-28406D01*
X23828Y-28316D01*
X23829Y-28203D01*
X23829Y-28611D01*
X23257Y-28611D01*
X23257Y-28453D01*
X23257Y-28142D01*
X22846Y-28142D01*
X22785Y-28203D01*
X22786Y-28316D01*
X22823Y-28406D01*
X22893Y-28476D01*
X22983Y-28513D01*
X23081Y-28513D01*
X23196Y-28514D01*
X23257Y-28453D01*
X23257Y-28611D01*
X21753Y-28611D01*
X21525Y-28383D01*
X21525Y-25933D01*
X21525Y-25622D01*
X21114Y-25622D01*
X21053Y-25683D01*
X21054Y-25796D01*
X21091Y-25886D01*
X21161Y-25956D01*
X21251Y-25993D01*
X21349Y-25993D01*
X21464Y-25994D01*
X21525Y-25933D01*
X21525Y-28383D01*
X20837Y-27696D01*
X20837Y-25404D01*
X21053Y-25404D01*
X21053Y-25461D01*
X21114Y-25522D01*
X21475Y-25522D01*
X21525Y-25522D01*
X21625Y-25522D01*
X21625Y-25622D01*
X21625Y-25672D01*
X21625Y-25933D01*
X21686Y-25994D01*
X21801Y-25993D01*
X21840Y-25993D01*
X21840Y-26793D01*
X21997Y-26950D01*
X21997Y-27580D01*
X22341Y-27924D01*
X22785Y-27924D01*
X22785Y-27981D01*
X22846Y-28042D01*
X23207Y-28042D01*
X23257Y-28042D01*
X23357Y-28042D01*
X23407Y-28042D01*
X23768Y-28042D01*
X23829Y-27981D01*
X23828Y-27924D01*
X23916Y-27924D01*
X24073Y-28081D01*
X25060Y-28081D01*
X25147Y-27994D01*
X25147Y-28396D01*
X26121Y-28396D01*
X26336Y-28611D01*
X26336Y-28611D01*
G37*
G54D38*
X26336Y-28611D02*
X25094Y-28611D01*
X25094Y-28203D01*
X25033Y-28142D01*
X24747Y-28142D01*
X24747Y-28378D01*
X24807Y-28438D01*
X24896Y-28438D01*
X24986Y-28401D01*
X25056Y-28331D01*
X25093Y-28241D01*
X25094Y-28203D01*
X25094Y-28611D01*
X24647Y-28611D01*
X24647Y-28378D01*
X24647Y-28142D01*
X24361Y-28142D01*
X24300Y-28203D01*
X24301Y-28241D01*
X24338Y-28331D01*
X24408Y-28401D01*
X24498Y-28438D01*
X24587Y-28438D01*
X24647Y-28378D01*
X24647Y-28611D01*
X23829Y-28611D01*
X23829Y-28203D01*
X23768Y-28142D01*
X23357Y-28142D01*
X23357Y-28453D01*
X23418Y-28514D01*
X23533Y-28513D01*
X23631Y-28513D01*
X23721Y-28476D01*
X23791Y-28406D01*
X23828Y-28316D01*
X23829Y-28203D01*
X23829Y-28611D01*
X23257Y-28611D01*
X23257Y-28453D01*
X23257Y-28142D01*
X22846Y-28142D01*
X22785Y-28203D01*
X22786Y-28316D01*
X22823Y-28406D01*
X22893Y-28476D01*
X22983Y-28513D01*
X23081Y-28513D01*
X23196Y-28514D01*
X23257Y-28453D01*
X23257Y-28611D01*
X21753Y-28611D01*
X21525Y-28383D01*
X21525Y-25933D01*
X21525Y-25622D01*
X21114Y-25622D01*
X21053Y-25683D01*
X21054Y-25796D01*
X21091Y-25886D01*
X21161Y-25956D01*
X21251Y-25993D01*
X21349Y-25993D01*
X21464Y-25994D01*
X21525Y-25933D01*
X21525Y-28383D01*
X20837Y-27696D01*
X20837Y-25404D01*
X21053Y-25404D01*
X21053Y-25461D01*
X21114Y-25522D01*
X21475Y-25522D01*
X21525Y-25522D01*
X21625Y-25522D01*
X21625Y-25622D01*
X21625Y-25672D01*
X21625Y-25933D01*
X21686Y-25994D01*
X21801Y-25993D01*
X21840Y-25993D01*
X21840Y-26793D01*
X21997Y-26950D01*
X21997Y-27580D01*
X22341Y-27924D01*
X22785Y-27924D01*
X22785Y-27981D01*
X22846Y-28042D01*
X23207Y-28042D01*
X23257Y-28042D01*
X23357Y-28042D01*
X23407Y-28042D01*
X23768Y-28042D01*
X23829Y-27981D01*
X23828Y-27924D01*
X23916Y-27924D01*
X24073Y-28081D01*
X25060Y-28081D01*
X25147Y-27994D01*
X25147Y-28396D01*
X26121Y-28396D01*
X26336Y-28611D01*
M02*
