G04 (created by PCBNEW-RS274X (2012-apr-16-27)-stable) date 2013-01-06T12:38:16 CET*
G01*
G70*
G90*
%MOIN*%
G04 Gerber Fmt 3.4, Leading zero omitted, Abs format*
%FSLAX34Y34*%
G04 APERTURE LIST*
%ADD10C,0.006000*%
%ADD11C,0.015000*%
%ADD12C,0.005000*%
%ADD13C,0.002000*%
%ADD14C,0.003900*%
%ADD15C,0.008000*%
%ADD16C,0.012000*%
%ADD17C,0.004500*%
G04 APERTURE END LIST*
G54D10*
X17310Y-20225D02*
X17310Y-20675D01*
X15130Y-20225D02*
X15130Y-20665D01*
X17310Y-20225D02*
X15130Y-20225D01*
X17780Y-21105D02*
X18210Y-21105D01*
X17790Y-23315D02*
X18210Y-23315D01*
X18210Y-23325D02*
X18220Y-21105D01*
X14240Y-23305D02*
X14230Y-21135D01*
X14930Y-23735D02*
X17760Y-23735D01*
X14240Y-21125D02*
X14650Y-21125D01*
X14690Y-23485D02*
X14690Y-20705D01*
X17770Y-20685D02*
X14730Y-20685D01*
X17770Y-23735D02*
X17770Y-20735D01*
X15100Y-24185D02*
X17320Y-24185D01*
X17320Y-24185D02*
X17320Y-23735D01*
X14920Y-23731D02*
X14690Y-23501D01*
X15100Y-24183D02*
X15100Y-23731D01*
X14690Y-23305D02*
X14238Y-23305D01*
X15282Y-23323D02*
X15278Y-23359D01*
X15267Y-23394D01*
X15250Y-23427D01*
X15227Y-23455D01*
X15199Y-23478D01*
X15166Y-23496D01*
X15131Y-23507D01*
X15095Y-23510D01*
X15059Y-23507D01*
X15024Y-23497D01*
X14992Y-23480D01*
X14963Y-23457D01*
X14939Y-23429D01*
X14922Y-23397D01*
X14911Y-23362D01*
X14907Y-23325D01*
X14910Y-23290D01*
X14920Y-23254D01*
X14936Y-23222D01*
X14959Y-23193D01*
X14987Y-23169D01*
X15019Y-23151D01*
X15054Y-23140D01*
X15091Y-23136D01*
X15126Y-23138D01*
X15161Y-23148D01*
X15194Y-23165D01*
X15223Y-23187D01*
X15247Y-23215D01*
X15265Y-23247D01*
X15277Y-23282D01*
X15281Y-23318D01*
X15282Y-23323D01*
X47861Y-20225D02*
X47861Y-20675D01*
X45681Y-20225D02*
X45681Y-20665D01*
X47861Y-20225D02*
X45681Y-20225D01*
X48331Y-21105D02*
X48761Y-21105D01*
X48341Y-23315D02*
X48761Y-23315D01*
X48761Y-23325D02*
X48771Y-21105D01*
X44791Y-23305D02*
X44781Y-21135D01*
X45481Y-23735D02*
X48311Y-23735D01*
X44791Y-21125D02*
X45201Y-21125D01*
X45241Y-23485D02*
X45241Y-20705D01*
X48321Y-20685D02*
X45281Y-20685D01*
X48321Y-23735D02*
X48321Y-20735D01*
X45651Y-24185D02*
X47871Y-24185D01*
X47871Y-24185D02*
X47871Y-23735D01*
X45471Y-23731D02*
X45241Y-23501D01*
X45651Y-24183D02*
X45651Y-23731D01*
X45241Y-23305D02*
X44789Y-23305D01*
X45833Y-23323D02*
X45829Y-23359D01*
X45818Y-23394D01*
X45801Y-23427D01*
X45778Y-23455D01*
X45750Y-23478D01*
X45717Y-23496D01*
X45682Y-23507D01*
X45646Y-23510D01*
X45610Y-23507D01*
X45575Y-23497D01*
X45543Y-23480D01*
X45514Y-23457D01*
X45490Y-23429D01*
X45473Y-23397D01*
X45462Y-23362D01*
X45458Y-23325D01*
X45461Y-23290D01*
X45471Y-23254D01*
X45487Y-23222D01*
X45510Y-23193D01*
X45538Y-23169D01*
X45570Y-23151D01*
X45605Y-23140D01*
X45642Y-23136D01*
X45677Y-23138D01*
X45712Y-23148D01*
X45745Y-23165D01*
X45774Y-23187D01*
X45798Y-23215D01*
X45816Y-23247D01*
X45828Y-23282D01*
X45832Y-23318D01*
X45833Y-23323D01*
G54D11*
X12973Y-28071D02*
X17579Y-28071D01*
X17579Y-26103D02*
X12973Y-26103D01*
X17579Y-28071D02*
X17579Y-27737D01*
X17579Y-26103D02*
X17579Y-26437D01*
X12973Y-28071D02*
X12973Y-27737D01*
X12973Y-26103D02*
X12973Y-26437D01*
X50020Y-26575D02*
X45414Y-26575D01*
X45414Y-28543D02*
X50020Y-28543D01*
X45414Y-26575D02*
X45414Y-26909D01*
X45414Y-28543D02*
X45414Y-28209D01*
X50020Y-26575D02*
X50020Y-26909D01*
X50020Y-28543D02*
X50020Y-28209D01*
G54D12*
X09314Y-25882D02*
X10214Y-25882D01*
X10214Y-25882D02*
X10214Y-25232D01*
X09314Y-24532D02*
X09314Y-23882D01*
X09314Y-23882D02*
X10214Y-23882D01*
X10214Y-23882D02*
X10214Y-24532D01*
X09314Y-25232D02*
X09314Y-25882D01*
X10889Y-25252D02*
X11789Y-25252D01*
X11789Y-25252D02*
X11789Y-24602D01*
X10889Y-23902D02*
X10889Y-23252D01*
X10889Y-23252D02*
X11789Y-23252D01*
X11789Y-23252D02*
X11789Y-23902D01*
X10889Y-24602D02*
X10889Y-25252D01*
G54D13*
X05788Y-27913D02*
X08032Y-27913D01*
X08032Y-27913D02*
X08032Y-24685D01*
X08032Y-24685D02*
X05788Y-24685D01*
X05788Y-24685D02*
X05788Y-27913D01*
G54D12*
X25547Y-28317D02*
X24847Y-28317D01*
X24847Y-28317D02*
X24847Y-27117D01*
X24847Y-27117D02*
X25547Y-27117D01*
X25547Y-27117D02*
X25547Y-28317D01*
X23657Y-28367D02*
X23656Y-28376D01*
X23653Y-28386D01*
X23648Y-28394D01*
X23642Y-28402D01*
X23634Y-28408D01*
X23626Y-28413D01*
X23617Y-28415D01*
X23607Y-28416D01*
X23598Y-28416D01*
X23589Y-28413D01*
X23580Y-28408D01*
X23573Y-28402D01*
X23566Y-28395D01*
X23562Y-28386D01*
X23559Y-28377D01*
X23558Y-28367D01*
X23558Y-28358D01*
X23561Y-28349D01*
X23565Y-28340D01*
X23572Y-28333D01*
X23579Y-28326D01*
X23587Y-28322D01*
X23597Y-28319D01*
X23606Y-28318D01*
X23615Y-28318D01*
X23625Y-28321D01*
X23633Y-28325D01*
X23641Y-28331D01*
X23647Y-28339D01*
X23652Y-28347D01*
X23655Y-28356D01*
X23656Y-28366D01*
X23657Y-28367D01*
X23607Y-27917D02*
X23607Y-28317D01*
X23607Y-28317D02*
X23007Y-28317D01*
X23007Y-28317D02*
X23007Y-27917D01*
X23007Y-27517D02*
X23007Y-27117D01*
X23007Y-27117D02*
X23607Y-27117D01*
X23607Y-27117D02*
X23607Y-27517D01*
X26959Y-28646D02*
X26958Y-28655D01*
X26955Y-28665D01*
X26950Y-28673D01*
X26944Y-28681D01*
X26936Y-28687D01*
X26928Y-28692D01*
X26919Y-28694D01*
X26909Y-28695D01*
X26900Y-28695D01*
X26891Y-28692D01*
X26882Y-28687D01*
X26875Y-28681D01*
X26868Y-28674D01*
X26864Y-28665D01*
X26861Y-28656D01*
X26860Y-28646D01*
X26860Y-28637D01*
X26863Y-28628D01*
X26867Y-28619D01*
X26874Y-28612D01*
X26881Y-28605D01*
X26889Y-28601D01*
X26899Y-28598D01*
X26908Y-28597D01*
X26917Y-28597D01*
X26927Y-28600D01*
X26935Y-28604D01*
X26943Y-28610D01*
X26949Y-28618D01*
X26954Y-28626D01*
X26957Y-28635D01*
X26958Y-28645D01*
X26959Y-28646D01*
X27359Y-28646D02*
X26959Y-28646D01*
X26959Y-28646D02*
X26959Y-28046D01*
X26959Y-28046D02*
X27359Y-28046D01*
X27759Y-28046D02*
X28159Y-28046D01*
X28159Y-28046D02*
X28159Y-28646D01*
X28159Y-28646D02*
X27759Y-28646D01*
X25897Y-25842D02*
X25896Y-25851D01*
X25893Y-25861D01*
X25888Y-25869D01*
X25882Y-25877D01*
X25874Y-25883D01*
X25866Y-25888D01*
X25857Y-25890D01*
X25847Y-25891D01*
X25838Y-25891D01*
X25829Y-25888D01*
X25820Y-25883D01*
X25813Y-25877D01*
X25806Y-25870D01*
X25802Y-25861D01*
X25799Y-25852D01*
X25798Y-25842D01*
X25798Y-25833D01*
X25801Y-25824D01*
X25805Y-25815D01*
X25812Y-25808D01*
X25819Y-25801D01*
X25827Y-25797D01*
X25837Y-25794D01*
X25846Y-25793D01*
X25855Y-25793D01*
X25865Y-25796D01*
X25873Y-25800D01*
X25881Y-25806D01*
X25887Y-25814D01*
X25892Y-25822D01*
X25895Y-25831D01*
X25896Y-25841D01*
X25897Y-25842D01*
X25397Y-25842D02*
X25797Y-25842D01*
X25797Y-25842D02*
X25797Y-26442D01*
X25797Y-26442D02*
X25397Y-26442D01*
X24997Y-26442D02*
X24597Y-26442D01*
X24597Y-26442D02*
X24597Y-25842D01*
X24597Y-25842D02*
X24997Y-25842D01*
X17393Y-28834D02*
X17392Y-28843D01*
X17389Y-28853D01*
X17384Y-28861D01*
X17378Y-28869D01*
X17370Y-28875D01*
X17362Y-28880D01*
X17353Y-28882D01*
X17343Y-28883D01*
X17334Y-28883D01*
X17325Y-28880D01*
X17316Y-28875D01*
X17309Y-28869D01*
X17302Y-28862D01*
X17298Y-28853D01*
X17295Y-28844D01*
X17294Y-28834D01*
X17294Y-28825D01*
X17297Y-28816D01*
X17301Y-28807D01*
X17308Y-28800D01*
X17315Y-28793D01*
X17323Y-28789D01*
X17333Y-28786D01*
X17342Y-28785D01*
X17351Y-28785D01*
X17361Y-28788D01*
X17369Y-28792D01*
X17377Y-28798D01*
X17383Y-28806D01*
X17388Y-28814D01*
X17391Y-28823D01*
X17392Y-28833D01*
X17393Y-28834D01*
X16893Y-28834D02*
X17293Y-28834D01*
X17293Y-28834D02*
X17293Y-29434D01*
X17293Y-29434D02*
X16893Y-29434D01*
X16493Y-29434D02*
X16093Y-29434D01*
X16093Y-29434D02*
X16093Y-28834D01*
X16093Y-28834D02*
X16493Y-28834D01*
X13258Y-29434D02*
X13257Y-29443D01*
X13254Y-29453D01*
X13249Y-29461D01*
X13243Y-29469D01*
X13235Y-29475D01*
X13227Y-29480D01*
X13218Y-29482D01*
X13208Y-29483D01*
X13199Y-29483D01*
X13190Y-29480D01*
X13181Y-29475D01*
X13174Y-29469D01*
X13167Y-29462D01*
X13163Y-29453D01*
X13160Y-29444D01*
X13159Y-29434D01*
X13159Y-29425D01*
X13162Y-29416D01*
X13166Y-29407D01*
X13173Y-29400D01*
X13180Y-29393D01*
X13188Y-29389D01*
X13198Y-29386D01*
X13207Y-29385D01*
X13216Y-29385D01*
X13226Y-29388D01*
X13234Y-29392D01*
X13242Y-29398D01*
X13248Y-29406D01*
X13253Y-29414D01*
X13256Y-29423D01*
X13257Y-29433D01*
X13258Y-29434D01*
X13658Y-29434D02*
X13258Y-29434D01*
X13258Y-29434D02*
X13258Y-28834D01*
X13258Y-28834D02*
X13658Y-28834D01*
X14058Y-28834D02*
X14458Y-28834D01*
X14458Y-28834D02*
X14458Y-29434D01*
X14458Y-29434D02*
X14058Y-29434D01*
X12506Y-20925D02*
X12505Y-20934D01*
X12502Y-20944D01*
X12497Y-20952D01*
X12491Y-20960D01*
X12483Y-20966D01*
X12475Y-20971D01*
X12466Y-20973D01*
X12456Y-20974D01*
X12447Y-20974D01*
X12438Y-20971D01*
X12429Y-20966D01*
X12422Y-20960D01*
X12415Y-20953D01*
X12411Y-20944D01*
X12408Y-20935D01*
X12407Y-20925D01*
X12407Y-20916D01*
X12410Y-20907D01*
X12414Y-20898D01*
X12421Y-20891D01*
X12428Y-20884D01*
X12436Y-20880D01*
X12446Y-20877D01*
X12455Y-20876D01*
X12464Y-20876D01*
X12474Y-20879D01*
X12482Y-20883D01*
X12490Y-20889D01*
X12496Y-20897D01*
X12501Y-20905D01*
X12504Y-20914D01*
X12505Y-20924D01*
X12506Y-20925D01*
X12456Y-21375D02*
X12456Y-20975D01*
X12456Y-20975D02*
X13056Y-20975D01*
X13056Y-20975D02*
X13056Y-21375D01*
X13056Y-21775D02*
X13056Y-22175D01*
X13056Y-22175D02*
X12456Y-22175D01*
X12456Y-22175D02*
X12456Y-21775D01*
X15778Y-25812D02*
X15777Y-25821D01*
X15774Y-25831D01*
X15769Y-25839D01*
X15763Y-25847D01*
X15755Y-25853D01*
X15747Y-25858D01*
X15738Y-25860D01*
X15728Y-25861D01*
X15719Y-25861D01*
X15710Y-25858D01*
X15701Y-25853D01*
X15694Y-25847D01*
X15687Y-25840D01*
X15683Y-25831D01*
X15680Y-25822D01*
X15679Y-25812D01*
X15679Y-25803D01*
X15682Y-25794D01*
X15686Y-25785D01*
X15693Y-25778D01*
X15700Y-25771D01*
X15708Y-25767D01*
X15718Y-25764D01*
X15727Y-25763D01*
X15736Y-25763D01*
X15746Y-25766D01*
X15754Y-25770D01*
X15762Y-25776D01*
X15768Y-25784D01*
X15773Y-25792D01*
X15776Y-25801D01*
X15777Y-25811D01*
X15778Y-25812D01*
X16178Y-25812D02*
X15778Y-25812D01*
X15778Y-25812D02*
X15778Y-25212D01*
X15778Y-25212D02*
X16178Y-25212D01*
X16578Y-25212D02*
X16978Y-25212D01*
X16978Y-25212D02*
X16978Y-25812D01*
X16978Y-25812D02*
X16578Y-25812D01*
X47314Y-25369D02*
X47313Y-25378D01*
X47310Y-25388D01*
X47305Y-25396D01*
X47299Y-25404D01*
X47291Y-25410D01*
X47283Y-25415D01*
X47274Y-25417D01*
X47264Y-25418D01*
X47255Y-25418D01*
X47246Y-25415D01*
X47237Y-25410D01*
X47230Y-25404D01*
X47223Y-25397D01*
X47219Y-25388D01*
X47216Y-25379D01*
X47215Y-25369D01*
X47215Y-25360D01*
X47218Y-25351D01*
X47222Y-25342D01*
X47229Y-25335D01*
X47236Y-25328D01*
X47244Y-25324D01*
X47254Y-25321D01*
X47263Y-25320D01*
X47272Y-25320D01*
X47282Y-25323D01*
X47290Y-25327D01*
X47298Y-25333D01*
X47304Y-25341D01*
X47309Y-25349D01*
X47312Y-25358D01*
X47313Y-25368D01*
X47314Y-25369D01*
X46814Y-25369D02*
X47214Y-25369D01*
X47214Y-25369D02*
X47214Y-25969D01*
X47214Y-25969D02*
X46814Y-25969D01*
X46414Y-25969D02*
X46014Y-25969D01*
X46014Y-25969D02*
X46014Y-25369D01*
X46014Y-25369D02*
X46414Y-25369D01*
X43530Y-27067D02*
X43529Y-27076D01*
X43526Y-27086D01*
X43521Y-27094D01*
X43515Y-27102D01*
X43507Y-27108D01*
X43499Y-27113D01*
X43490Y-27115D01*
X43480Y-27116D01*
X43471Y-27116D01*
X43462Y-27113D01*
X43453Y-27108D01*
X43446Y-27102D01*
X43439Y-27095D01*
X43435Y-27086D01*
X43432Y-27077D01*
X43431Y-27067D01*
X43431Y-27058D01*
X43434Y-27049D01*
X43438Y-27040D01*
X43445Y-27033D01*
X43452Y-27026D01*
X43460Y-27022D01*
X43470Y-27019D01*
X43479Y-27018D01*
X43488Y-27018D01*
X43498Y-27021D01*
X43506Y-27025D01*
X43514Y-27031D01*
X43520Y-27039D01*
X43525Y-27047D01*
X43528Y-27056D01*
X43529Y-27066D01*
X43530Y-27067D01*
X43480Y-27517D02*
X43480Y-27117D01*
X43480Y-27117D02*
X44080Y-27117D01*
X44080Y-27117D02*
X44080Y-27517D01*
X44080Y-27917D02*
X44080Y-28317D01*
X44080Y-28317D02*
X43480Y-28317D01*
X43480Y-28317D02*
X43480Y-27917D01*
X51404Y-27067D02*
X51403Y-27076D01*
X51400Y-27086D01*
X51395Y-27094D01*
X51389Y-27102D01*
X51381Y-27108D01*
X51373Y-27113D01*
X51364Y-27115D01*
X51354Y-27116D01*
X51345Y-27116D01*
X51336Y-27113D01*
X51327Y-27108D01*
X51320Y-27102D01*
X51313Y-27095D01*
X51309Y-27086D01*
X51306Y-27077D01*
X51305Y-27067D01*
X51305Y-27058D01*
X51308Y-27049D01*
X51312Y-27040D01*
X51319Y-27033D01*
X51326Y-27026D01*
X51334Y-27022D01*
X51344Y-27019D01*
X51353Y-27018D01*
X51362Y-27018D01*
X51372Y-27021D01*
X51380Y-27025D01*
X51388Y-27031D01*
X51394Y-27039D01*
X51399Y-27047D01*
X51402Y-27056D01*
X51403Y-27066D01*
X51404Y-27067D01*
X51354Y-27517D02*
X51354Y-27117D01*
X51354Y-27117D02*
X51954Y-27117D01*
X51954Y-27117D02*
X51954Y-27517D01*
X51954Y-27917D02*
X51954Y-28317D01*
X51954Y-28317D02*
X51354Y-28317D01*
X51354Y-28317D02*
X51354Y-27917D01*
X07809Y-21912D02*
X07809Y-22812D01*
X07809Y-22812D02*
X07309Y-22812D01*
X07309Y-22812D02*
X07309Y-21912D01*
X07309Y-21912D02*
X07809Y-21912D01*
X12786Y-20300D02*
X12785Y-20309D01*
X12782Y-20319D01*
X12777Y-20327D01*
X12771Y-20335D01*
X12763Y-20341D01*
X12755Y-20346D01*
X12746Y-20348D01*
X12736Y-20349D01*
X12727Y-20349D01*
X12718Y-20346D01*
X12709Y-20341D01*
X12702Y-20335D01*
X12695Y-20328D01*
X12691Y-20319D01*
X12688Y-20310D01*
X12687Y-20300D01*
X12687Y-20291D01*
X12690Y-20282D01*
X12694Y-20273D01*
X12701Y-20266D01*
X12708Y-20259D01*
X12716Y-20255D01*
X12726Y-20252D01*
X12735Y-20251D01*
X12744Y-20251D01*
X12754Y-20254D01*
X12762Y-20258D01*
X12770Y-20264D01*
X12776Y-20272D01*
X12781Y-20280D01*
X12784Y-20289D01*
X12785Y-20299D01*
X12786Y-20300D01*
X13186Y-20300D02*
X12786Y-20300D01*
X12786Y-20300D02*
X12786Y-19700D01*
X12786Y-19700D02*
X13186Y-19700D01*
X13586Y-19700D02*
X13986Y-19700D01*
X13986Y-19700D02*
X13986Y-20300D01*
X13986Y-20300D02*
X13586Y-20300D01*
X21925Y-25847D02*
X21924Y-25856D01*
X21921Y-25866D01*
X21916Y-25874D01*
X21910Y-25882D01*
X21902Y-25888D01*
X21894Y-25893D01*
X21885Y-25895D01*
X21875Y-25896D01*
X21866Y-25896D01*
X21857Y-25893D01*
X21848Y-25888D01*
X21841Y-25882D01*
X21834Y-25875D01*
X21830Y-25866D01*
X21827Y-25857D01*
X21826Y-25847D01*
X21826Y-25838D01*
X21829Y-25829D01*
X21833Y-25820D01*
X21840Y-25813D01*
X21847Y-25806D01*
X21855Y-25802D01*
X21865Y-25799D01*
X21874Y-25798D01*
X21883Y-25798D01*
X21893Y-25801D01*
X21901Y-25805D01*
X21909Y-25811D01*
X21915Y-25819D01*
X21920Y-25827D01*
X21923Y-25836D01*
X21924Y-25846D01*
X21925Y-25847D01*
X21875Y-25397D02*
X21875Y-25797D01*
X21875Y-25797D02*
X21275Y-25797D01*
X21275Y-25797D02*
X21275Y-25397D01*
X21275Y-24997D02*
X21275Y-24597D01*
X21275Y-24597D02*
X21875Y-24597D01*
X21875Y-24597D02*
X21875Y-24997D01*
G54D14*
X29527Y-17008D02*
X29527Y-22992D01*
X29527Y-22992D02*
X36063Y-22992D01*
X36063Y-22992D02*
X36063Y-17087D01*
X36063Y-17087D02*
X36063Y-17008D01*
X36063Y-17008D02*
X29527Y-17008D01*
G54D12*
X31566Y-27731D02*
X31565Y-27740D01*
X31562Y-27750D01*
X31557Y-27758D01*
X31551Y-27766D01*
X31543Y-27772D01*
X31535Y-27777D01*
X31526Y-27779D01*
X31516Y-27780D01*
X31507Y-27780D01*
X31498Y-27777D01*
X31489Y-27772D01*
X31482Y-27766D01*
X31475Y-27759D01*
X31471Y-27750D01*
X31468Y-27741D01*
X31467Y-27731D01*
X31467Y-27722D01*
X31470Y-27713D01*
X31474Y-27704D01*
X31481Y-27697D01*
X31488Y-27690D01*
X31496Y-27686D01*
X31506Y-27683D01*
X31515Y-27682D01*
X31524Y-27682D01*
X31534Y-27685D01*
X31542Y-27689D01*
X31550Y-27695D01*
X31556Y-27703D01*
X31561Y-27711D01*
X31564Y-27720D01*
X31565Y-27730D01*
X31566Y-27731D01*
X31066Y-27731D02*
X31466Y-27731D01*
X31466Y-27731D02*
X31466Y-28331D01*
X31466Y-28331D02*
X31066Y-28331D01*
X30666Y-28331D02*
X30266Y-28331D01*
X30266Y-28331D02*
X30266Y-27731D01*
X30266Y-27731D02*
X30666Y-27731D01*
G54D15*
X28716Y-24969D02*
X33016Y-24969D01*
X33016Y-24969D02*
X33016Y-26369D01*
X33016Y-26369D02*
X28716Y-26369D01*
X28716Y-26369D02*
X28716Y-24969D01*
X28716Y-25469D02*
X29016Y-25469D01*
X29016Y-25469D02*
X29016Y-25869D01*
X29016Y-25869D02*
X28716Y-25869D01*
G54D12*
X09786Y-19583D02*
X10686Y-19583D01*
X10686Y-19583D02*
X10686Y-18933D01*
X09786Y-18233D02*
X09786Y-17583D01*
X09786Y-17583D02*
X10686Y-17583D01*
X10686Y-17583D02*
X10686Y-18233D01*
X09786Y-18933D02*
X09786Y-19583D01*
G54D15*
X15922Y-22595D02*
X15422Y-22595D01*
X15875Y-22176D02*
X15899Y-22195D01*
X15922Y-22252D01*
X15922Y-22290D01*
X15899Y-22348D01*
X15851Y-22386D01*
X15803Y-22405D01*
X15708Y-22424D01*
X15637Y-22424D01*
X15541Y-22405D01*
X15494Y-22386D01*
X15446Y-22348D01*
X15422Y-22290D01*
X15422Y-22252D01*
X15446Y-22195D01*
X15470Y-22176D01*
X15922Y-21795D02*
X15922Y-22024D01*
X15922Y-21910D02*
X15422Y-21910D01*
X15494Y-21948D01*
X15541Y-21986D01*
X15565Y-22024D01*
X17030Y-24015D02*
X17030Y-23824D01*
X17172Y-24053D02*
X16672Y-23920D01*
X17172Y-23786D01*
X16672Y-23710D02*
X16672Y-23481D01*
X17172Y-23596D02*
X16672Y-23596D01*
X17172Y-23348D02*
X16672Y-23348D01*
X17030Y-23214D01*
X16672Y-23081D01*
X17172Y-23081D01*
X16910Y-22891D02*
X16910Y-22757D01*
X17172Y-22700D02*
X17172Y-22891D01*
X16672Y-22891D01*
X16672Y-22700D01*
X16696Y-22319D02*
X16672Y-22357D01*
X16672Y-22414D01*
X16696Y-22472D01*
X16744Y-22510D01*
X16791Y-22529D01*
X16887Y-22548D01*
X16958Y-22548D01*
X17053Y-22529D01*
X17101Y-22510D01*
X17149Y-22472D01*
X17172Y-22414D01*
X17172Y-22376D01*
X17149Y-22319D01*
X17125Y-22300D01*
X16958Y-22300D01*
X16958Y-22376D01*
X17030Y-22148D02*
X17030Y-21957D01*
X17172Y-22186D02*
X16672Y-22053D01*
X17172Y-21919D01*
X17172Y-21576D02*
X17172Y-21805D01*
X17172Y-21691D02*
X16672Y-21691D01*
X16744Y-21729D01*
X16791Y-21767D01*
X16815Y-21805D01*
X16672Y-21233D02*
X16672Y-21310D01*
X16696Y-21348D01*
X16720Y-21367D01*
X16791Y-21405D01*
X16887Y-21424D01*
X17077Y-21424D01*
X17125Y-21405D01*
X17149Y-21386D01*
X17172Y-21348D01*
X17172Y-21271D01*
X17149Y-21233D01*
X17125Y-21214D01*
X17077Y-21195D01*
X16958Y-21195D01*
X16910Y-21214D01*
X16887Y-21233D01*
X16863Y-21271D01*
X16863Y-21348D01*
X16887Y-21386D01*
X16910Y-21405D01*
X16958Y-21424D01*
X16672Y-21024D02*
X17077Y-21024D01*
X17125Y-21005D01*
X17149Y-20986D01*
X17172Y-20948D01*
X17172Y-20871D01*
X17149Y-20833D01*
X17125Y-20814D01*
X17077Y-20795D01*
X16672Y-20795D01*
X16720Y-20624D02*
X16696Y-20605D01*
X16672Y-20567D01*
X16672Y-20471D01*
X16696Y-20433D01*
X16720Y-20414D01*
X16768Y-20395D01*
X16815Y-20395D01*
X16887Y-20414D01*
X17172Y-20643D01*
X17172Y-20395D01*
X46473Y-22595D02*
X45973Y-22595D01*
X46426Y-22176D02*
X46450Y-22195D01*
X46473Y-22252D01*
X46473Y-22290D01*
X46450Y-22348D01*
X46402Y-22386D01*
X46354Y-22405D01*
X46259Y-22424D01*
X46188Y-22424D01*
X46092Y-22405D01*
X46045Y-22386D01*
X45997Y-22348D01*
X45973Y-22290D01*
X45973Y-22252D01*
X45997Y-22195D01*
X46021Y-22176D01*
X46021Y-22024D02*
X45997Y-22005D01*
X45973Y-21967D01*
X45973Y-21871D01*
X45997Y-21833D01*
X46021Y-21814D01*
X46069Y-21795D01*
X46116Y-21795D01*
X46188Y-21814D01*
X46473Y-22043D01*
X46473Y-21795D01*
X47581Y-24224D02*
X47581Y-24033D01*
X47723Y-24262D02*
X47223Y-24129D01*
X47723Y-23995D01*
X47223Y-23919D02*
X47223Y-23690D01*
X47723Y-23805D02*
X47223Y-23805D01*
X47723Y-23557D02*
X47223Y-23557D01*
X47581Y-23423D01*
X47223Y-23290D01*
X47723Y-23290D01*
X47461Y-23100D02*
X47461Y-22966D01*
X47723Y-22909D02*
X47723Y-23100D01*
X47223Y-23100D01*
X47223Y-22909D01*
X47247Y-22528D02*
X47223Y-22566D01*
X47223Y-22623D01*
X47247Y-22681D01*
X47295Y-22719D01*
X47342Y-22738D01*
X47438Y-22757D01*
X47509Y-22757D01*
X47604Y-22738D01*
X47652Y-22719D01*
X47700Y-22681D01*
X47723Y-22623D01*
X47723Y-22585D01*
X47700Y-22528D01*
X47676Y-22509D01*
X47509Y-22509D01*
X47509Y-22585D01*
X47581Y-22357D02*
X47581Y-22166D01*
X47723Y-22395D02*
X47223Y-22262D01*
X47723Y-22128D01*
X47223Y-22033D02*
X47223Y-21785D01*
X47414Y-21919D01*
X47414Y-21861D01*
X47438Y-21823D01*
X47461Y-21804D01*
X47509Y-21785D01*
X47628Y-21785D01*
X47676Y-21804D01*
X47700Y-21823D01*
X47723Y-21861D01*
X47723Y-21976D01*
X47700Y-22014D01*
X47676Y-22033D01*
X47271Y-21633D02*
X47247Y-21614D01*
X47223Y-21576D01*
X47223Y-21480D01*
X47247Y-21442D01*
X47271Y-21423D01*
X47319Y-21404D01*
X47366Y-21404D01*
X47438Y-21423D01*
X47723Y-21652D01*
X47723Y-21404D01*
X47438Y-21176D02*
X47414Y-21214D01*
X47390Y-21233D01*
X47342Y-21252D01*
X47319Y-21252D01*
X47271Y-21233D01*
X47247Y-21214D01*
X47223Y-21176D01*
X47223Y-21099D01*
X47247Y-21061D01*
X47271Y-21042D01*
X47319Y-21023D01*
X47342Y-21023D01*
X47390Y-21042D01*
X47414Y-21061D01*
X47438Y-21099D01*
X47438Y-21176D01*
X47461Y-21214D01*
X47485Y-21233D01*
X47533Y-21252D01*
X47628Y-21252D01*
X47676Y-21233D01*
X47700Y-21214D01*
X47723Y-21176D01*
X47723Y-21099D01*
X47700Y-21061D01*
X47676Y-21042D01*
X47628Y-21023D01*
X47533Y-21023D01*
X47485Y-21042D01*
X47461Y-21061D01*
X47438Y-21099D01*
X47533Y-20852D02*
X47533Y-20547D01*
X47581Y-20376D02*
X47581Y-20185D01*
X47723Y-20414D02*
X47223Y-20281D01*
X47723Y-20147D01*
G54D16*
X14791Y-24730D02*
X15191Y-25330D01*
X15191Y-24730D02*
X14791Y-25330D01*
X15733Y-25330D02*
X15390Y-25330D01*
X15562Y-25330D02*
X15562Y-24730D01*
X15505Y-24816D01*
X15447Y-24873D01*
X15390Y-24901D01*
X47232Y-29202D02*
X47632Y-29802D01*
X47632Y-29202D02*
X47232Y-29802D01*
X47831Y-29259D02*
X47860Y-29230D01*
X47917Y-29202D01*
X48060Y-29202D01*
X48117Y-29230D01*
X48146Y-29259D01*
X48174Y-29316D01*
X48174Y-29373D01*
X48146Y-29459D01*
X47803Y-29802D01*
X48174Y-29802D01*
G54D12*
X09135Y-24832D02*
X08993Y-24932D01*
X09135Y-25004D02*
X08835Y-25004D01*
X08835Y-24889D01*
X08850Y-24861D01*
X08864Y-24846D01*
X08893Y-24832D01*
X08935Y-24832D01*
X08964Y-24846D01*
X08978Y-24861D01*
X08993Y-24889D01*
X08993Y-25004D01*
X09135Y-24546D02*
X09135Y-24718D01*
X09135Y-24632D02*
X08835Y-24632D01*
X08878Y-24661D01*
X08907Y-24689D01*
X08921Y-24718D01*
X10710Y-24202D02*
X10568Y-24302D01*
X10710Y-24374D02*
X10410Y-24374D01*
X10410Y-24259D01*
X10425Y-24231D01*
X10439Y-24216D01*
X10468Y-24202D01*
X10510Y-24202D01*
X10539Y-24216D01*
X10553Y-24231D01*
X10568Y-24259D01*
X10568Y-24374D01*
X10439Y-24088D02*
X10425Y-24074D01*
X10410Y-24045D01*
X10410Y-23974D01*
X10425Y-23945D01*
X10439Y-23931D01*
X10468Y-23916D01*
X10496Y-23916D01*
X10539Y-23931D01*
X10710Y-24102D01*
X10710Y-23916D01*
G54D16*
X08265Y-26756D02*
X08751Y-26756D01*
X08808Y-26728D01*
X08836Y-26699D01*
X08865Y-26642D01*
X08865Y-26528D01*
X08836Y-26470D01*
X08808Y-26442D01*
X08751Y-26413D01*
X08265Y-26413D01*
X08865Y-25813D02*
X08865Y-26156D01*
X08865Y-25984D02*
X08265Y-25984D01*
X08351Y-26041D01*
X08408Y-26099D01*
X08436Y-26156D01*
G54D12*
X25125Y-28434D02*
X25125Y-28637D01*
X25136Y-28660D01*
X25148Y-28672D01*
X25172Y-28684D01*
X25220Y-28684D01*
X25244Y-28672D01*
X25255Y-28660D01*
X25267Y-28637D01*
X25267Y-28434D01*
X25363Y-28434D02*
X25517Y-28434D01*
X25434Y-28529D01*
X25470Y-28529D01*
X25494Y-28541D01*
X25506Y-28553D01*
X25517Y-28577D01*
X25517Y-28637D01*
X25506Y-28660D01*
X25494Y-28672D01*
X25470Y-28684D01*
X25398Y-28684D01*
X25375Y-28672D01*
X25363Y-28660D01*
X25298Y-28448D02*
X25298Y-28567D01*
X25048Y-28567D01*
X25298Y-28365D02*
X25048Y-28365D01*
X25048Y-28270D01*
X25060Y-28246D01*
X25072Y-28235D01*
X25096Y-28223D01*
X25132Y-28223D01*
X25155Y-28235D01*
X25167Y-28246D01*
X25179Y-28270D01*
X25179Y-28365D01*
X25072Y-28127D02*
X25060Y-28115D01*
X25048Y-28092D01*
X25048Y-28032D01*
X25060Y-28008D01*
X25072Y-27996D01*
X25096Y-27985D01*
X25120Y-27985D01*
X25155Y-27996D01*
X25298Y-28139D01*
X25298Y-27985D01*
X25298Y-27866D02*
X25298Y-27818D01*
X25286Y-27794D01*
X25274Y-27782D01*
X25239Y-27758D01*
X25191Y-27747D01*
X25096Y-27747D01*
X25072Y-27758D01*
X25060Y-27770D01*
X25048Y-27794D01*
X25048Y-27842D01*
X25060Y-27866D01*
X25072Y-27877D01*
X25096Y-27889D01*
X25155Y-27889D01*
X25179Y-27877D01*
X25191Y-27866D01*
X25203Y-27842D01*
X25203Y-27794D01*
X25191Y-27770D01*
X25179Y-27758D01*
X25155Y-27747D01*
X25155Y-27604D02*
X25143Y-27628D01*
X25132Y-27639D01*
X25108Y-27651D01*
X25096Y-27651D01*
X25072Y-27639D01*
X25060Y-27628D01*
X25048Y-27604D01*
X25048Y-27556D01*
X25060Y-27532D01*
X25072Y-27520D01*
X25096Y-27509D01*
X25108Y-27509D01*
X25132Y-27520D01*
X25143Y-27532D01*
X25155Y-27556D01*
X25155Y-27604D01*
X25167Y-27628D01*
X25179Y-27639D01*
X25203Y-27651D01*
X25251Y-27651D01*
X25274Y-27639D01*
X25286Y-27628D01*
X25298Y-27604D01*
X25298Y-27556D01*
X25286Y-27532D01*
X25274Y-27520D01*
X25251Y-27509D01*
X25203Y-27509D01*
X25179Y-27520D01*
X25167Y-27532D01*
X25155Y-27556D01*
X25048Y-27282D02*
X25048Y-27401D01*
X25167Y-27413D01*
X25155Y-27401D01*
X25143Y-27378D01*
X25143Y-27318D01*
X25155Y-27294D01*
X25167Y-27282D01*
X25191Y-27271D01*
X25251Y-27271D01*
X25274Y-27282D01*
X25286Y-27294D01*
X25298Y-27318D01*
X25298Y-27378D01*
X25286Y-27401D01*
X25274Y-27413D01*
X25298Y-27044D02*
X25298Y-27163D01*
X25048Y-27163D01*
X25048Y-26997D02*
X25298Y-26914D01*
X25048Y-26831D01*
X23384Y-27759D02*
X23396Y-27771D01*
X23408Y-27806D01*
X23408Y-27830D01*
X23396Y-27866D01*
X23372Y-27890D01*
X23349Y-27901D01*
X23301Y-27913D01*
X23265Y-27913D01*
X23218Y-27901D01*
X23194Y-27890D01*
X23170Y-27866D01*
X23158Y-27830D01*
X23158Y-27806D01*
X23170Y-27771D01*
X23182Y-27759D01*
X23265Y-27616D02*
X23253Y-27640D01*
X23242Y-27651D01*
X23218Y-27663D01*
X23206Y-27663D01*
X23182Y-27651D01*
X23170Y-27640D01*
X23158Y-27616D01*
X23158Y-27568D01*
X23170Y-27544D01*
X23182Y-27532D01*
X23206Y-27521D01*
X23218Y-27521D01*
X23242Y-27532D01*
X23253Y-27544D01*
X23265Y-27568D01*
X23265Y-27616D01*
X23277Y-27640D01*
X23289Y-27651D01*
X23313Y-27663D01*
X23361Y-27663D01*
X23384Y-27651D01*
X23396Y-27640D01*
X23408Y-27616D01*
X23408Y-27568D01*
X23396Y-27544D01*
X23384Y-27532D01*
X23361Y-27521D01*
X23313Y-27521D01*
X23289Y-27532D01*
X23277Y-27544D01*
X23265Y-27568D01*
X27517Y-28423D02*
X27505Y-28435D01*
X27470Y-28447D01*
X27446Y-28447D01*
X27410Y-28435D01*
X27386Y-28411D01*
X27375Y-28388D01*
X27363Y-28340D01*
X27363Y-28304D01*
X27375Y-28257D01*
X27386Y-28233D01*
X27410Y-28209D01*
X27446Y-28197D01*
X27470Y-28197D01*
X27505Y-28209D01*
X27517Y-28221D01*
X27636Y-28447D02*
X27684Y-28447D01*
X27708Y-28435D01*
X27720Y-28423D01*
X27744Y-28388D01*
X27755Y-28340D01*
X27755Y-28245D01*
X27744Y-28221D01*
X27732Y-28209D01*
X27708Y-28197D01*
X27660Y-28197D01*
X27636Y-28209D01*
X27625Y-28221D01*
X27613Y-28245D01*
X27613Y-28304D01*
X27625Y-28328D01*
X27636Y-28340D01*
X27660Y-28352D01*
X27708Y-28352D01*
X27732Y-28340D01*
X27744Y-28328D01*
X27755Y-28304D01*
X25036Y-26219D02*
X25024Y-26231D01*
X24989Y-26243D01*
X24965Y-26243D01*
X24929Y-26231D01*
X24905Y-26207D01*
X24894Y-26184D01*
X24882Y-26136D01*
X24882Y-26100D01*
X24894Y-26053D01*
X24905Y-26029D01*
X24929Y-26005D01*
X24965Y-25993D01*
X24989Y-25993D01*
X25024Y-26005D01*
X25036Y-26017D01*
X25274Y-26243D02*
X25132Y-26243D01*
X25203Y-26243D02*
X25203Y-25993D01*
X25179Y-26029D01*
X25155Y-26053D01*
X25132Y-26065D01*
X25429Y-25993D02*
X25453Y-25993D01*
X25477Y-26005D01*
X25489Y-26017D01*
X25501Y-26041D01*
X25512Y-26088D01*
X25512Y-26148D01*
X25501Y-26196D01*
X25489Y-26219D01*
X25477Y-26231D01*
X25453Y-26243D01*
X25429Y-26243D01*
X25405Y-26231D01*
X25393Y-26219D01*
X25382Y-26196D01*
X25370Y-26148D01*
X25370Y-26088D01*
X25382Y-26041D01*
X25393Y-26017D01*
X25405Y-26005D01*
X25429Y-25993D01*
X16651Y-29211D02*
X16639Y-29223D01*
X16604Y-29235D01*
X16580Y-29235D01*
X16544Y-29223D01*
X16520Y-29199D01*
X16509Y-29176D01*
X16497Y-29128D01*
X16497Y-29092D01*
X16509Y-29045D01*
X16520Y-29021D01*
X16544Y-28997D01*
X16580Y-28985D01*
X16604Y-28985D01*
X16639Y-28997D01*
X16651Y-29009D01*
X16889Y-29235D02*
X16747Y-29235D01*
X16818Y-29235D02*
X16818Y-28985D01*
X16794Y-29021D01*
X16770Y-29045D01*
X16747Y-29057D01*
X13816Y-29211D02*
X13804Y-29223D01*
X13769Y-29235D01*
X13745Y-29235D01*
X13709Y-29223D01*
X13685Y-29199D01*
X13674Y-29176D01*
X13662Y-29128D01*
X13662Y-29092D01*
X13674Y-29045D01*
X13685Y-29021D01*
X13709Y-28997D01*
X13745Y-28985D01*
X13769Y-28985D01*
X13804Y-28997D01*
X13816Y-29009D01*
X13912Y-29009D02*
X13924Y-28997D01*
X13947Y-28985D01*
X14007Y-28985D01*
X14031Y-28997D01*
X14043Y-29009D01*
X14054Y-29033D01*
X14054Y-29057D01*
X14043Y-29092D01*
X13900Y-29235D01*
X14054Y-29235D01*
X12833Y-21617D02*
X12845Y-21629D01*
X12857Y-21664D01*
X12857Y-21688D01*
X12845Y-21724D01*
X12821Y-21748D01*
X12798Y-21759D01*
X12750Y-21771D01*
X12714Y-21771D01*
X12667Y-21759D01*
X12643Y-21748D01*
X12619Y-21724D01*
X12607Y-21688D01*
X12607Y-21664D01*
X12619Y-21629D01*
X12631Y-21617D01*
X12607Y-21533D02*
X12607Y-21379D01*
X12702Y-21462D01*
X12702Y-21426D01*
X12714Y-21402D01*
X12726Y-21390D01*
X12750Y-21379D01*
X12810Y-21379D01*
X12833Y-21390D01*
X12845Y-21402D01*
X12857Y-21426D01*
X12857Y-21498D01*
X12845Y-21521D01*
X12833Y-21533D01*
X16336Y-25589D02*
X16324Y-25601D01*
X16289Y-25613D01*
X16265Y-25613D01*
X16229Y-25601D01*
X16205Y-25577D01*
X16194Y-25554D01*
X16182Y-25506D01*
X16182Y-25470D01*
X16194Y-25423D01*
X16205Y-25399D01*
X16229Y-25375D01*
X16265Y-25363D01*
X16289Y-25363D01*
X16324Y-25375D01*
X16336Y-25387D01*
X16551Y-25447D02*
X16551Y-25613D01*
X16491Y-25351D02*
X16432Y-25530D01*
X16586Y-25530D01*
X46572Y-25746D02*
X46560Y-25758D01*
X46525Y-25770D01*
X46501Y-25770D01*
X46465Y-25758D01*
X46441Y-25734D01*
X46430Y-25711D01*
X46418Y-25663D01*
X46418Y-25627D01*
X46430Y-25580D01*
X46441Y-25556D01*
X46465Y-25532D01*
X46501Y-25520D01*
X46525Y-25520D01*
X46560Y-25532D01*
X46572Y-25544D01*
X46799Y-25520D02*
X46680Y-25520D01*
X46668Y-25639D01*
X46680Y-25627D01*
X46703Y-25615D01*
X46763Y-25615D01*
X46787Y-25627D01*
X46799Y-25639D01*
X46810Y-25663D01*
X46810Y-25723D01*
X46799Y-25746D01*
X46787Y-25758D01*
X46763Y-25770D01*
X46703Y-25770D01*
X46680Y-25758D01*
X46668Y-25746D01*
X43857Y-27759D02*
X43869Y-27771D01*
X43881Y-27806D01*
X43881Y-27830D01*
X43869Y-27866D01*
X43845Y-27890D01*
X43822Y-27901D01*
X43774Y-27913D01*
X43738Y-27913D01*
X43691Y-27901D01*
X43667Y-27890D01*
X43643Y-27866D01*
X43631Y-27830D01*
X43631Y-27806D01*
X43643Y-27771D01*
X43655Y-27759D01*
X43631Y-27544D02*
X43631Y-27592D01*
X43643Y-27616D01*
X43655Y-27628D01*
X43691Y-27651D01*
X43738Y-27663D01*
X43834Y-27663D01*
X43857Y-27651D01*
X43869Y-27640D01*
X43881Y-27616D01*
X43881Y-27568D01*
X43869Y-27544D01*
X43857Y-27532D01*
X43834Y-27521D01*
X43774Y-27521D01*
X43750Y-27532D01*
X43738Y-27544D01*
X43726Y-27568D01*
X43726Y-27616D01*
X43738Y-27640D01*
X43750Y-27651D01*
X43774Y-27663D01*
X51731Y-27759D02*
X51743Y-27771D01*
X51755Y-27806D01*
X51755Y-27830D01*
X51743Y-27866D01*
X51719Y-27890D01*
X51696Y-27901D01*
X51648Y-27913D01*
X51612Y-27913D01*
X51565Y-27901D01*
X51541Y-27890D01*
X51517Y-27866D01*
X51505Y-27830D01*
X51505Y-27806D01*
X51517Y-27771D01*
X51529Y-27759D01*
X51505Y-27675D02*
X51505Y-27509D01*
X51755Y-27616D01*
G54D17*
X07640Y-22391D02*
X07640Y-22477D01*
X07440Y-22477D01*
X07640Y-22237D02*
X07640Y-22340D01*
X07640Y-22288D02*
X07440Y-22288D01*
X07469Y-22305D01*
X07488Y-22323D01*
X07497Y-22340D01*
G54D12*
X13344Y-20101D02*
X13261Y-19982D01*
X13202Y-20101D02*
X13202Y-19851D01*
X13297Y-19851D01*
X13321Y-19863D01*
X13332Y-19875D01*
X13344Y-19899D01*
X13344Y-19935D01*
X13332Y-19958D01*
X13321Y-19970D01*
X13297Y-19982D01*
X13202Y-19982D01*
X13428Y-19851D02*
X13582Y-19851D01*
X13499Y-19946D01*
X13535Y-19946D01*
X13559Y-19958D01*
X13571Y-19970D01*
X13582Y-19994D01*
X13582Y-20054D01*
X13571Y-20077D01*
X13559Y-20089D01*
X13535Y-20101D01*
X13463Y-20101D01*
X13440Y-20089D01*
X13428Y-20077D01*
X21676Y-25239D02*
X21557Y-25322D01*
X21676Y-25381D02*
X21426Y-25381D01*
X21426Y-25286D01*
X21438Y-25262D01*
X21450Y-25251D01*
X21474Y-25239D01*
X21510Y-25239D01*
X21533Y-25251D01*
X21545Y-25262D01*
X21557Y-25286D01*
X21557Y-25381D01*
X21510Y-25024D02*
X21676Y-25024D01*
X21414Y-25084D02*
X21593Y-25143D01*
X21593Y-24989D01*
G54D16*
X30164Y-20442D02*
X29564Y-20442D01*
X29564Y-20214D01*
X29592Y-20156D01*
X29621Y-20128D01*
X29678Y-20099D01*
X29764Y-20099D01*
X29821Y-20128D01*
X29850Y-20156D01*
X29878Y-20214D01*
X29878Y-20442D01*
X30164Y-19528D02*
X30164Y-19871D01*
X30164Y-19699D02*
X29564Y-19699D01*
X29650Y-19756D01*
X29707Y-19814D01*
X29735Y-19871D01*
G54D12*
X30705Y-28108D02*
X30693Y-28120D01*
X30658Y-28132D01*
X30634Y-28132D01*
X30598Y-28120D01*
X30574Y-28096D01*
X30563Y-28073D01*
X30551Y-28025D01*
X30551Y-27989D01*
X30563Y-27942D01*
X30574Y-27918D01*
X30598Y-27894D01*
X30634Y-27882D01*
X30658Y-27882D01*
X30693Y-27894D01*
X30705Y-27906D01*
X30943Y-28132D02*
X30801Y-28132D01*
X30872Y-28132D02*
X30872Y-27882D01*
X30848Y-27918D01*
X30824Y-27942D01*
X30801Y-27954D01*
X31181Y-28132D02*
X31039Y-28132D01*
X31110Y-28132D02*
X31110Y-27882D01*
X31086Y-27918D01*
X31062Y-27942D01*
X31039Y-27954D01*
X30523Y-25131D02*
X30523Y-25455D01*
X30545Y-25493D01*
X30566Y-25512D01*
X30609Y-25531D01*
X30695Y-25531D01*
X30737Y-25512D01*
X30759Y-25493D01*
X30780Y-25455D01*
X30780Y-25131D01*
X30973Y-25169D02*
X30994Y-25150D01*
X31037Y-25131D01*
X31144Y-25131D01*
X31187Y-25150D01*
X31208Y-25169D01*
X31230Y-25207D01*
X31230Y-25245D01*
X31208Y-25302D01*
X30951Y-25531D01*
X31230Y-25531D01*
X30308Y-25864D02*
X30308Y-26131D01*
X30201Y-25712D02*
X30094Y-25998D01*
X30372Y-25998D01*
X30630Y-25731D02*
X30673Y-25731D01*
X30716Y-25750D01*
X30737Y-25769D01*
X30758Y-25807D01*
X30780Y-25883D01*
X30780Y-25979D01*
X30758Y-26055D01*
X30737Y-26093D01*
X30716Y-26112D01*
X30673Y-26131D01*
X30630Y-26131D01*
X30587Y-26112D01*
X30566Y-26093D01*
X30544Y-26055D01*
X30523Y-25979D01*
X30523Y-25883D01*
X30544Y-25807D01*
X30566Y-25769D01*
X30587Y-25750D01*
X30630Y-25731D01*
X31187Y-25731D02*
X30973Y-25731D01*
X30952Y-25921D01*
X30973Y-25902D01*
X31016Y-25883D01*
X31123Y-25883D01*
X31166Y-25902D01*
X31187Y-25921D01*
X31209Y-25959D01*
X31209Y-26055D01*
X31187Y-26093D01*
X31166Y-26112D01*
X31123Y-26131D01*
X31016Y-26131D01*
X30973Y-26112D01*
X30952Y-26093D01*
X31488Y-25731D02*
X31531Y-25731D01*
X31574Y-25750D01*
X31595Y-25769D01*
X31616Y-25807D01*
X31638Y-25883D01*
X31638Y-25979D01*
X31616Y-26055D01*
X31595Y-26093D01*
X31574Y-26112D01*
X31531Y-26131D01*
X31488Y-26131D01*
X31445Y-26112D01*
X31424Y-26093D01*
X31402Y-26055D01*
X31381Y-25979D01*
X31381Y-25883D01*
X31402Y-25807D01*
X31424Y-25769D01*
X31445Y-25750D01*
X31488Y-25731D01*
X10329Y-18776D02*
X10343Y-18790D01*
X10357Y-18833D01*
X10357Y-18862D01*
X10343Y-18905D01*
X10315Y-18933D01*
X10286Y-18948D01*
X10229Y-18962D01*
X10186Y-18962D01*
X10129Y-18948D01*
X10100Y-18933D01*
X10072Y-18905D01*
X10057Y-18862D01*
X10057Y-18833D01*
X10072Y-18790D01*
X10086Y-18776D01*
X10357Y-18490D02*
X10357Y-18662D01*
X10357Y-18576D02*
X10057Y-18576D01*
X10100Y-18605D01*
X10129Y-18633D01*
X10143Y-18662D01*
X10086Y-18376D02*
X10072Y-18362D01*
X10057Y-18333D01*
X10057Y-18262D01*
X10072Y-18233D01*
X10086Y-18219D01*
X10115Y-18204D01*
X10143Y-18204D01*
X10186Y-18219D01*
X10357Y-18390D01*
X10357Y-18204D01*
G54D16*
X12944Y-16149D02*
X12944Y-15549D01*
X13172Y-15549D01*
X13230Y-15577D01*
X13258Y-15606D01*
X13287Y-15663D01*
X13287Y-15749D01*
X13258Y-15806D01*
X13230Y-15835D01*
X13172Y-15863D01*
X12944Y-15863D01*
X13487Y-15549D02*
X13887Y-15549D01*
X13630Y-16149D01*
X15778Y-16149D02*
X15778Y-15549D01*
X16006Y-15549D01*
X16064Y-15577D01*
X16092Y-15606D01*
X16121Y-15663D01*
X16121Y-15749D01*
X16092Y-15806D01*
X16064Y-15835D01*
X16006Y-15863D01*
X15778Y-15863D01*
X16464Y-15806D02*
X16406Y-15777D01*
X16378Y-15749D01*
X16349Y-15692D01*
X16349Y-15663D01*
X16378Y-15606D01*
X16406Y-15577D01*
X16464Y-15549D01*
X16578Y-15549D01*
X16635Y-15577D01*
X16664Y-15606D01*
X16692Y-15663D01*
X16692Y-15692D01*
X16664Y-15749D01*
X16635Y-15777D01*
X16578Y-15806D01*
X16464Y-15806D01*
X16406Y-15835D01*
X16378Y-15863D01*
X16349Y-15920D01*
X16349Y-16035D01*
X16378Y-16092D01*
X16406Y-16120D01*
X16464Y-16149D01*
X16578Y-16149D01*
X16635Y-16120D01*
X16664Y-16092D01*
X16692Y-16035D01*
X16692Y-15920D01*
X16664Y-15863D01*
X16635Y-15835D01*
X16578Y-15806D01*
X42865Y-18983D02*
X42865Y-18383D01*
X43093Y-18383D01*
X43151Y-18411D01*
X43179Y-18440D01*
X43208Y-18497D01*
X43208Y-18583D01*
X43179Y-18640D01*
X43151Y-18669D01*
X43093Y-18697D01*
X42865Y-18697D01*
X43408Y-18383D02*
X43779Y-18383D01*
X43579Y-18611D01*
X43665Y-18611D01*
X43722Y-18640D01*
X43751Y-18669D01*
X43779Y-18726D01*
X43779Y-18869D01*
X43751Y-18926D01*
X43722Y-18954D01*
X43665Y-18983D01*
X43493Y-18983D01*
X43436Y-18954D01*
X43408Y-18926D01*
X53944Y-27371D02*
X53344Y-27371D01*
X53344Y-27143D01*
X53372Y-27085D01*
X53401Y-27057D01*
X53458Y-27028D01*
X53544Y-27028D01*
X53601Y-27057D01*
X53630Y-27085D01*
X53658Y-27143D01*
X53658Y-27371D01*
X53544Y-26514D02*
X53944Y-26514D01*
X53315Y-26657D02*
X53744Y-26800D01*
X53744Y-26428D01*
X53944Y-20127D02*
X53344Y-20127D01*
X53344Y-19899D01*
X53372Y-19841D01*
X53401Y-19813D01*
X53458Y-19784D01*
X53544Y-19784D01*
X53601Y-19813D01*
X53630Y-19841D01*
X53658Y-19899D01*
X53658Y-20127D01*
X53344Y-19241D02*
X53344Y-19527D01*
X53630Y-19556D01*
X53601Y-19527D01*
X53572Y-19470D01*
X53572Y-19327D01*
X53601Y-19270D01*
X53630Y-19241D01*
X53687Y-19213D01*
X53830Y-19213D01*
X53887Y-19241D01*
X53915Y-19270D01*
X53944Y-19327D01*
X53944Y-19470D01*
X53915Y-19527D01*
X53887Y-19556D01*
X07015Y-19025D02*
X06415Y-19025D01*
X06415Y-18797D01*
X06443Y-18739D01*
X06472Y-18711D01*
X06529Y-18682D01*
X06615Y-18682D01*
X06672Y-18711D01*
X06701Y-18739D01*
X06729Y-18797D01*
X06729Y-19025D01*
X06415Y-18168D02*
X06415Y-18282D01*
X06443Y-18339D01*
X06472Y-18368D01*
X06558Y-18425D01*
X06672Y-18454D01*
X06901Y-18454D01*
X06958Y-18425D01*
X06986Y-18397D01*
X07015Y-18339D01*
X07015Y-18225D01*
X06986Y-18168D01*
X06958Y-18139D01*
X06901Y-18111D01*
X06758Y-18111D01*
X06701Y-18139D01*
X06672Y-18168D01*
X06643Y-18225D01*
X06643Y-18339D01*
X06672Y-18397D01*
X06701Y-18425D01*
X06758Y-18454D01*
X49007Y-16149D02*
X49007Y-15549D01*
X49235Y-15549D01*
X49293Y-15577D01*
X49321Y-15606D01*
X49350Y-15663D01*
X49350Y-15749D01*
X49321Y-15806D01*
X49293Y-15835D01*
X49235Y-15863D01*
X49007Y-15863D01*
X49578Y-15606D02*
X49607Y-15577D01*
X49664Y-15549D01*
X49807Y-15549D01*
X49864Y-15577D01*
X49893Y-15606D01*
X49921Y-15663D01*
X49921Y-15720D01*
X49893Y-15806D01*
X49550Y-16149D01*
X49921Y-16149D01*
X19243Y-16149D02*
X19243Y-15549D01*
X19471Y-15549D01*
X19529Y-15577D01*
X19557Y-15606D01*
X19586Y-15663D01*
X19586Y-15749D01*
X19557Y-15806D01*
X19529Y-15835D01*
X19471Y-15863D01*
X19243Y-15863D01*
X19871Y-16149D02*
X19986Y-16149D01*
X20043Y-16120D01*
X20071Y-16092D01*
X20129Y-16006D01*
X20157Y-15892D01*
X20157Y-15663D01*
X20129Y-15606D01*
X20100Y-15577D01*
X20043Y-15549D01*
X19929Y-15549D01*
X19871Y-15577D01*
X19843Y-15606D01*
X19814Y-15663D01*
X19814Y-15806D01*
X19843Y-15863D01*
X19871Y-15892D01*
X19929Y-15920D01*
X20043Y-15920D01*
X20100Y-15892D01*
X20129Y-15863D01*
X20157Y-15806D01*
X20374Y-21818D02*
X20374Y-21218D01*
X20602Y-21218D01*
X20660Y-21246D01*
X20688Y-21275D01*
X20717Y-21332D01*
X20717Y-21418D01*
X20688Y-21475D01*
X20660Y-21504D01*
X20602Y-21532D01*
X20374Y-21532D01*
X21288Y-21818D02*
X20945Y-21818D01*
X21117Y-21818D02*
X21117Y-21218D01*
X21060Y-21304D01*
X21002Y-21361D01*
X20945Y-21389D01*
X21659Y-21218D02*
X21716Y-21218D01*
X21773Y-21246D01*
X21802Y-21275D01*
X21831Y-21332D01*
X21859Y-21446D01*
X21859Y-21589D01*
X21831Y-21704D01*
X21802Y-21761D01*
X21773Y-21789D01*
X21716Y-21818D01*
X21659Y-21818D01*
X21602Y-21789D01*
X21573Y-21761D01*
X21545Y-21704D01*
X21516Y-21589D01*
X21516Y-21446D01*
X21545Y-21332D01*
X21573Y-21275D01*
X21602Y-21246D01*
X21659Y-21218D01*
X20374Y-19771D02*
X20374Y-19171D01*
X20602Y-19171D01*
X20660Y-19199D01*
X20688Y-19228D01*
X20717Y-19285D01*
X20717Y-19371D01*
X20688Y-19428D01*
X20660Y-19457D01*
X20602Y-19485D01*
X20374Y-19485D01*
X21288Y-19771D02*
X20945Y-19771D01*
X21117Y-19771D02*
X21117Y-19171D01*
X21060Y-19257D01*
X21002Y-19314D01*
X20945Y-19342D01*
X21859Y-19771D02*
X21516Y-19771D01*
X21688Y-19771D02*
X21688Y-19171D01*
X21631Y-19257D01*
X21573Y-19314D01*
X21516Y-19342D01*
X23209Y-19456D02*
X23209Y-18856D01*
X23437Y-18856D01*
X23495Y-18884D01*
X23523Y-18913D01*
X23552Y-18970D01*
X23552Y-19056D01*
X23523Y-19113D01*
X23495Y-19142D01*
X23437Y-19170D01*
X23209Y-19170D01*
X24123Y-19456D02*
X23780Y-19456D01*
X23952Y-19456D02*
X23952Y-18856D01*
X23895Y-18942D01*
X23837Y-18999D01*
X23780Y-19027D01*
X24351Y-18913D02*
X24380Y-18884D01*
X24437Y-18856D01*
X24580Y-18856D01*
X24637Y-18884D01*
X24666Y-18913D01*
X24694Y-18970D01*
X24694Y-19027D01*
X24666Y-19113D01*
X24323Y-19456D01*
X24694Y-19456D01*
X18012Y-19298D02*
X18012Y-18698D01*
X18240Y-18698D01*
X18298Y-18726D01*
X18326Y-18755D01*
X18355Y-18812D01*
X18355Y-18898D01*
X18326Y-18955D01*
X18298Y-18984D01*
X18240Y-19012D01*
X18012Y-19012D01*
X18926Y-19298D02*
X18583Y-19298D01*
X18755Y-19298D02*
X18755Y-18698D01*
X18698Y-18784D01*
X18640Y-18841D01*
X18583Y-18869D01*
X19126Y-18698D02*
X19497Y-18698D01*
X19297Y-18926D01*
X19383Y-18926D01*
X19440Y-18955D01*
X19469Y-18984D01*
X19497Y-19041D01*
X19497Y-19184D01*
X19469Y-19241D01*
X19440Y-19269D01*
X19383Y-19298D01*
X19211Y-19298D01*
X19154Y-19269D01*
X19126Y-19241D01*
M02*
