M48
;DRILL file {Pcbnew (2012-jan-04)-stable} date 2012-05-03T20:26:04 CEST
;FORMAT={-:-/ absolute / inch / decimal}
FMAT,2
INCH,TZ
T1C0.025
T2C0.032
T3C0.039
T4C0.118
%
G90
G05
M72
T1
X9.800Y6.125
X9.800Y6.325
X9.925Y6.125
X9.925Y6.325
T2
X2.600Y3.775
X2.600Y4.075
X2.600Y6.125
X2.600Y6.425
X2.700Y3.775
X2.700Y4.075
X2.700Y6.125
X2.700Y6.425
X2.800Y3.775
X2.800Y4.075
X2.800Y6.125
X2.800Y6.425
X2.900Y3.375
X2.900Y3.775
X2.900Y4.075
X2.900Y5.725
X2.900Y6.125
X2.900Y6.425
X3.000Y3.775
X3.000Y4.075
X3.000Y6.125
X3.000Y6.425
X3.100Y3.775
X3.100Y4.075
X3.100Y6.125
X3.100Y6.425
X3.200Y3.375
X3.200Y3.675
X3.200Y3.775
X3.200Y4.075
X3.200Y5.725
X3.200Y6.025
X3.200Y6.125
X3.200Y6.425
X3.300Y3.675
X3.300Y3.775
X3.300Y4.075
X3.300Y6.025
X3.300Y6.125
X3.300Y6.425
X3.400Y3.775
X3.400Y4.075
X3.400Y6.125
X3.400Y6.425
X3.500Y3.775
X3.500Y4.075
X3.500Y6.125
X3.500Y6.425
X3.600Y3.775
X3.600Y4.075
X3.600Y6.125
X3.600Y6.425
X3.700Y3.775
X3.700Y4.075
X3.700Y6.125
X3.700Y6.425
X3.800Y3.775
X3.800Y4.075
X3.800Y6.125
X3.800Y6.425
X3.900Y3.775
X3.900Y4.075
X3.900Y6.125
X3.900Y6.425
X4.125Y7.775
X4.125Y8.075
X4.425Y7.675
X4.425Y7.775
X4.525Y1.850
X4.525Y1.950
X4.525Y2.050
X4.525Y2.150
X4.525Y2.250
X4.525Y2.350
X4.525Y2.450
X4.525Y2.550
X4.525Y2.650
X4.525Y2.750
X4.525Y2.850
X4.525Y2.950
X4.525Y3.050
X4.525Y3.150
X4.525Y7.075
X4.525Y7.175
X4.525Y7.275
X4.525Y7.375
X4.525Y7.475
X4.525Y7.575
X4.525Y7.675
X4.525Y7.775
X4.525Y7.875
X4.525Y7.975
X4.525Y8.075
X4.525Y8.175
X4.525Y8.275
X4.525Y8.375
X4.825Y1.850
X4.825Y1.950
X4.825Y2.050
X4.825Y2.150
X4.825Y2.250
X4.825Y2.350
X4.825Y2.450
X4.825Y2.550
X4.825Y2.650
X4.825Y2.750
X4.825Y2.850
X4.825Y2.950
X4.825Y3.050
X4.825Y3.150
X4.825Y7.075
X4.825Y7.175
X4.825Y7.275
X4.825Y7.375
X4.825Y7.475
X4.825Y7.575
X4.825Y7.675
X4.825Y7.775
X4.825Y7.875
X4.825Y7.975
X4.825Y8.075
X4.825Y8.175
X4.825Y8.275
X4.825Y8.375
X4.925Y2.450
X4.925Y2.550
X5.225Y2.150
X5.225Y2.450
X6.475Y7.775
X6.475Y8.075
X6.775Y7.675
X6.775Y7.775
X6.875Y1.850
X6.875Y1.950
X6.875Y2.050
X6.875Y2.150
X6.875Y2.250
X6.875Y2.350
X6.875Y2.450
X6.875Y2.550
X6.875Y2.650
X6.875Y2.750
X6.875Y2.850
X6.875Y2.950
X6.875Y3.050
X6.875Y3.150
X6.875Y7.075
X6.875Y7.175
X6.875Y7.275
X6.875Y7.375
X6.875Y7.475
X6.875Y7.575
X6.875Y7.675
X6.875Y7.775
X6.875Y7.875
X6.875Y7.975
X6.875Y8.075
X6.875Y8.175
X6.875Y8.275
X6.875Y8.375
X7.175Y1.850
X7.175Y1.950
X7.175Y2.050
X7.175Y2.150
X7.175Y2.250
X7.175Y2.350
X7.175Y2.450
X7.175Y2.550
X7.175Y2.650
X7.175Y2.750
X7.175Y2.850
X7.175Y2.950
X7.175Y3.050
X7.175Y3.150
X7.175Y7.075
X7.175Y7.175
X7.175Y7.275
X7.175Y7.375
X7.175Y7.475
X7.175Y7.575
X7.175Y7.675
X7.175Y7.775
X7.175Y7.875
X7.175Y7.975
X7.175Y8.075
X7.175Y8.175
X7.175Y8.275
X7.175Y8.375
X7.275Y2.450
X7.275Y2.550
X7.575Y2.150
X7.575Y2.450
X7.825Y3.775
X7.825Y4.075
X7.825Y6.150
X7.825Y6.450
X7.925Y3.775
X7.925Y4.075
X7.925Y6.150
X7.925Y6.450
X8.025Y3.775
X8.025Y4.075
X8.025Y6.150
X8.025Y6.450
X8.125Y3.775
X8.125Y4.075
X8.125Y6.150
X8.125Y6.450
X8.225Y3.775
X8.225Y4.075
X8.225Y6.150
X8.225Y6.450
X8.325Y3.775
X8.325Y4.075
X8.325Y6.150
X8.325Y6.450
X8.425Y3.775
X8.425Y4.075
X8.425Y4.175
X8.425Y6.150
X8.425Y6.450
X8.425Y6.550
X8.525Y3.775
X8.525Y4.075
X8.525Y4.175
X8.525Y4.475
X8.525Y6.150
X8.525Y6.450
X8.525Y6.550
X8.525Y6.850
X8.625Y3.775
X8.625Y4.075
X8.625Y6.150
X8.625Y6.450
X8.725Y3.775
X8.725Y4.075
X8.725Y6.150
X8.725Y6.450
X8.825Y3.775
X8.825Y4.075
X8.825Y4.475
X8.825Y6.150
X8.825Y6.450
X8.825Y6.850
X8.925Y3.775
X8.925Y4.075
X8.925Y6.150
X8.925Y6.450
X9.025Y3.775
X9.025Y4.075
X9.025Y6.150
X9.025Y6.450
X9.125Y3.775
X9.125Y4.075
X9.125Y6.150
X9.125Y6.450
X9.400Y4.925
X9.400Y5.225
X9.400Y5.350
X9.400Y5.650
X10.550Y1.400
X10.550Y2.175
X10.550Y2.975
X10.550Y3.750
X10.550Y4.550
X10.550Y5.375
X10.550Y6.125
X10.550Y6.900
X10.550Y7.700
X10.550Y8.475
X10.850Y1.400
X10.850Y2.175
X10.850Y2.975
X10.850Y3.750
X10.850Y4.550
X10.850Y5.375
X10.850Y5.550
X10.850Y5.650
X10.850Y6.125
X10.850Y6.900
X10.850Y7.700
X10.850Y8.475
X10.850Y8.800
X10.850Y9.100
X11.150Y1.300
X11.150Y1.400
X11.150Y4.550
X11.150Y4.650
X11.150Y4.750
X11.150Y4.850
X11.150Y4.950
X11.150Y5.050
X11.150Y5.150
X11.150Y5.250
X11.150Y5.350
X11.150Y5.450
X11.150Y5.550
X11.150Y5.650
X11.150Y5.750
X11.150Y5.850
X11.150Y5.950
X11.150Y6.050
X11.150Y6.150
X11.150Y6.250
X11.150Y6.350
X11.150Y6.450
X11.150Y6.550
T3
X9.575Y1.750
X9.575Y2.538
X9.575Y3.325
X9.575Y4.113
X9.575Y4.950
X9.575Y5.687
X9.575Y6.475
X9.575Y7.262
X9.575Y8.050
X9.575Y8.700
X9.700Y1.525
T4
X1.916Y1.169
X1.916Y1.956
X1.916Y2.743
X1.916Y3.531
X1.916Y4.318
X1.916Y5.106
X1.916Y5.893
X1.916Y6.680
X1.916Y7.468
X1.916Y8.255
X1.916Y9.043
X2.704Y1.169
X2.704Y1.956
X2.704Y2.743
X2.704Y3.531
X2.704Y4.318
X2.704Y5.106
X2.704Y5.893
X2.704Y6.680
X2.704Y7.468
X2.704Y8.255
X2.704Y9.043
X3.491Y1.169
X3.491Y1.956
X3.491Y2.743
X3.491Y3.531
X3.491Y4.318
X3.491Y5.106
X3.491Y5.893
X3.491Y6.680
X3.491Y7.468
X3.491Y8.255
X3.491Y9.043
X4.278Y1.169
X4.278Y1.956
X4.278Y2.743
X4.278Y3.531
X4.278Y4.318
X4.278Y5.106
X4.278Y5.893
X4.278Y6.680
X4.278Y7.468
X4.278Y8.255
X4.278Y9.043
X5.066Y1.169
X5.066Y1.956
X5.066Y2.743
X5.066Y3.531
X5.066Y4.318
X5.066Y5.106
X5.066Y5.893
X5.066Y6.680
X5.066Y7.468
X5.066Y8.255
X5.066Y9.043
X5.853Y1.169
X5.853Y1.956
X5.853Y2.743
X5.853Y3.531
X5.853Y4.318
X5.853Y5.106
X5.853Y5.893
X5.853Y6.680
X5.853Y7.468
X5.853Y8.255
X5.853Y9.043
X6.641Y1.169
X6.641Y1.956
X6.641Y2.743
X6.641Y3.531
X6.641Y4.318
X6.641Y5.106
X6.641Y5.893
X6.641Y6.680
X6.641Y7.468
X6.641Y8.255
X6.641Y9.043
X7.428Y1.169
X7.428Y1.956
X7.428Y2.743
X7.428Y3.531
X7.428Y4.318
X7.428Y5.106
X7.428Y5.893
X7.428Y6.680
X7.428Y7.468
X7.428Y8.255
X7.428Y9.043
X8.215Y1.169
X8.215Y1.956
X8.215Y2.743
X8.215Y3.531
X8.215Y4.318
X8.215Y5.106
X8.215Y5.893
X8.215Y6.680
X8.215Y7.468
X8.215Y8.255
X8.215Y9.043
X9.003Y1.169
X9.003Y1.956
X9.003Y2.743
X9.003Y3.531
X9.003Y4.318
X9.003Y5.106
X9.003Y5.893
X9.003Y6.680
X9.003Y7.468
X9.003Y8.255
X9.003Y9.043
X9.790Y1.169
X9.790Y1.956
X9.790Y2.743
X9.790Y3.531
X9.790Y4.318
X9.790Y5.106
X9.790Y5.893
X9.790Y6.680
X9.790Y7.468
X9.790Y8.255
X9.790Y9.043
T0
M30
