G04 (created by PCBNEW-RS274X (2012-jan-04)-stable) date 2012-05-03T20:40:29 CEST*
G01*
G70*
G90*
%MOIN*%
G04 Gerber Fmt 3.4, Leading zero omitted, Abs format*
%FSLAX34Y34*%
G04 APERTURE LIST*
%ADD10C,0.006000*%
%ADD11C,0.012000*%
%ADD12C,0.008000*%
%ADD13C,0.015000*%
%ADD14C,0.010700*%
%ADD15C,0.010000*%
%ADD16C,0.011300*%
G04 APERTURE END LIST*
G54D10*
G54D11*
X112000Y-54000D02*
X111000Y-54000D01*
X111000Y-54000D02*
X111000Y-45000D01*
X111000Y-45000D02*
X112000Y-45000D01*
X112000Y-54000D02*
X112000Y-45000D01*
X112000Y-46000D02*
X111000Y-46000D01*
X112000Y-14500D02*
X111000Y-14500D01*
X111000Y-14500D02*
X111000Y-12500D01*
X111000Y-12500D02*
X112000Y-12500D01*
X112000Y-12500D02*
X112000Y-14500D01*
X111000Y-54000D02*
X111000Y-54000D01*
X111000Y-54000D02*
X112000Y-54000D01*
X112000Y-54000D02*
X112000Y-64000D01*
X111000Y-64000D02*
X111000Y-54000D01*
X111000Y-55000D02*
X112000Y-55000D01*
X112000Y-64000D02*
X112000Y-65750D01*
X112000Y-65750D02*
X112000Y-66000D01*
X112000Y-66000D02*
X111000Y-66000D01*
X111000Y-66000D02*
X111000Y-64000D01*
X111500Y-54500D02*
X111500Y-54500D01*
X111500Y-54500D02*
X111500Y-54500D01*
G54D12*
X108500Y-45500D02*
X108300Y-45500D01*
X105500Y-45500D02*
X105700Y-45500D01*
X105700Y-45500D02*
X105700Y-45900D01*
X105700Y-45900D02*
X108300Y-45900D01*
X108300Y-45900D02*
X108300Y-45100D01*
X108300Y-45100D02*
X105700Y-45100D01*
X105700Y-45100D02*
X105700Y-45500D01*
X108300Y-45700D02*
X108100Y-45900D01*
X108500Y-53750D02*
X108300Y-53750D01*
X105500Y-53750D02*
X105700Y-53750D01*
X105700Y-53750D02*
X105700Y-54150D01*
X105700Y-54150D02*
X108300Y-54150D01*
X108300Y-54150D02*
X108300Y-53350D01*
X108300Y-53350D02*
X105700Y-53350D01*
X105700Y-53350D02*
X105700Y-53750D01*
X108300Y-53950D02*
X108100Y-54150D01*
X108500Y-29750D02*
X108300Y-29750D01*
X105500Y-29750D02*
X105700Y-29750D01*
X105700Y-29750D02*
X105700Y-30150D01*
X105700Y-30150D02*
X108300Y-30150D01*
X108300Y-30150D02*
X108300Y-29350D01*
X108300Y-29350D02*
X105700Y-29350D01*
X105700Y-29350D02*
X105700Y-29750D01*
X108300Y-29950D02*
X108100Y-30150D01*
X108500Y-37500D02*
X108300Y-37500D01*
X105500Y-37500D02*
X105700Y-37500D01*
X105700Y-37500D02*
X105700Y-37900D01*
X105700Y-37900D02*
X108300Y-37900D01*
X108300Y-37900D02*
X108300Y-37100D01*
X108300Y-37100D02*
X105700Y-37100D01*
X105700Y-37100D02*
X105700Y-37500D01*
X108300Y-37700D02*
X108100Y-37900D01*
X108500Y-14000D02*
X108300Y-14000D01*
X105500Y-14000D02*
X105700Y-14000D01*
X105700Y-14000D02*
X105700Y-14400D01*
X105700Y-14400D02*
X108300Y-14400D01*
X108300Y-14400D02*
X108300Y-13600D01*
X108300Y-13600D02*
X105700Y-13600D01*
X105700Y-13600D02*
X105700Y-14000D01*
X108300Y-14200D02*
X108100Y-14400D01*
X108500Y-61250D02*
X108300Y-61250D01*
X105500Y-61250D02*
X105700Y-61250D01*
X105700Y-61250D02*
X105700Y-61650D01*
X105700Y-61650D02*
X108300Y-61650D01*
X108300Y-61650D02*
X108300Y-60850D01*
X108300Y-60850D02*
X105700Y-60850D01*
X105700Y-60850D02*
X105700Y-61250D01*
X108300Y-61450D02*
X108100Y-61650D01*
X108500Y-69000D02*
X108300Y-69000D01*
X105500Y-69000D02*
X105700Y-69000D01*
X105700Y-69000D02*
X105700Y-69400D01*
X105700Y-69400D02*
X108300Y-69400D01*
X108300Y-69400D02*
X108300Y-68600D01*
X108300Y-68600D02*
X105700Y-68600D01*
X105700Y-68600D02*
X105700Y-69000D01*
X108300Y-69200D02*
X108100Y-69400D01*
X108500Y-77000D02*
X108300Y-77000D01*
X105500Y-77000D02*
X105700Y-77000D01*
X105700Y-77000D02*
X105700Y-77400D01*
X105700Y-77400D02*
X108300Y-77400D01*
X108300Y-77400D02*
X108300Y-76600D01*
X108300Y-76600D02*
X105700Y-76600D01*
X105700Y-76600D02*
X105700Y-77000D01*
X108300Y-77200D02*
X108100Y-77400D01*
X108500Y-84750D02*
X108300Y-84750D01*
X105500Y-84750D02*
X105700Y-84750D01*
X105700Y-84750D02*
X105700Y-85150D01*
X105700Y-85150D02*
X108300Y-85150D01*
X108300Y-85150D02*
X108300Y-84350D01*
X108300Y-84350D02*
X105700Y-84350D01*
X105700Y-84350D02*
X105700Y-84750D01*
X108300Y-84950D02*
X108100Y-85150D01*
X108500Y-88000D02*
X108500Y-88200D01*
X108500Y-91000D02*
X108500Y-90800D01*
X108500Y-90800D02*
X108900Y-90800D01*
X108900Y-90800D02*
X108900Y-88200D01*
X108900Y-88200D02*
X108100Y-88200D01*
X108100Y-88200D02*
X108100Y-90800D01*
X108100Y-90800D02*
X108500Y-90800D01*
X108700Y-88200D02*
X108900Y-88400D01*
X108500Y-21750D02*
X108300Y-21750D01*
X105500Y-21750D02*
X105700Y-21750D01*
X105700Y-21750D02*
X105700Y-22150D01*
X105700Y-22150D02*
X108300Y-22150D01*
X108300Y-22150D02*
X108300Y-21350D01*
X108300Y-21350D02*
X105700Y-21350D01*
X105700Y-21350D02*
X105700Y-21750D01*
X108300Y-21950D02*
X108100Y-22150D01*
X88250Y-44750D02*
X88050Y-44750D01*
X85250Y-44750D02*
X85450Y-44750D01*
X85450Y-44750D02*
X85450Y-45150D01*
X85450Y-45150D02*
X88050Y-45150D01*
X88050Y-45150D02*
X88050Y-44350D01*
X88050Y-44350D02*
X85450Y-44350D01*
X85450Y-44350D02*
X85450Y-44750D01*
X88050Y-44950D02*
X87850Y-45150D01*
X75750Y-21500D02*
X75750Y-21700D01*
X75750Y-24500D02*
X75750Y-24300D01*
X75750Y-24300D02*
X76150Y-24300D01*
X76150Y-24300D02*
X76150Y-21700D01*
X76150Y-21700D02*
X75350Y-21700D01*
X75350Y-21700D02*
X75350Y-24300D01*
X75350Y-24300D02*
X75750Y-24300D01*
X75950Y-21700D02*
X76150Y-21900D01*
X52250Y-21500D02*
X52250Y-21700D01*
X52250Y-24500D02*
X52250Y-24300D01*
X52250Y-24300D02*
X52650Y-24300D01*
X52650Y-24300D02*
X52650Y-21700D01*
X52650Y-21700D02*
X51850Y-21700D01*
X51850Y-21700D02*
X51850Y-24300D01*
X51850Y-24300D02*
X52250Y-24300D01*
X52450Y-21700D02*
X52650Y-21900D01*
X29000Y-33750D02*
X29200Y-33750D01*
X32000Y-33750D02*
X31800Y-33750D01*
X31800Y-33750D02*
X31800Y-33350D01*
X31800Y-33350D02*
X29200Y-33350D01*
X29200Y-33350D02*
X29200Y-34150D01*
X29200Y-34150D02*
X31800Y-34150D01*
X31800Y-34150D02*
X31800Y-33750D01*
X29200Y-33550D02*
X29400Y-33350D01*
X29000Y-57250D02*
X29200Y-57250D01*
X32000Y-57250D02*
X31800Y-57250D01*
X31800Y-57250D02*
X31800Y-56850D01*
X31800Y-56850D02*
X29200Y-56850D01*
X29200Y-56850D02*
X29200Y-57650D01*
X29200Y-57650D02*
X31800Y-57650D01*
X31800Y-57650D02*
X31800Y-57250D01*
X29200Y-57050D02*
X29400Y-56850D01*
X41250Y-80750D02*
X41250Y-80550D01*
X41250Y-77750D02*
X41250Y-77950D01*
X41250Y-77950D02*
X40850Y-77950D01*
X40850Y-77950D02*
X40850Y-80550D01*
X40850Y-80550D02*
X41650Y-80550D01*
X41650Y-80550D02*
X41650Y-77950D01*
X41650Y-77950D02*
X41250Y-77950D01*
X41050Y-80550D02*
X40850Y-80350D01*
X64750Y-80750D02*
X64750Y-80550D01*
X64750Y-77750D02*
X64750Y-77950D01*
X64750Y-77950D02*
X64350Y-77950D01*
X64350Y-77950D02*
X64350Y-80550D01*
X64350Y-80550D02*
X65150Y-80550D01*
X65150Y-80550D02*
X65150Y-77950D01*
X65150Y-77950D02*
X64750Y-77950D01*
X64550Y-80550D02*
X64350Y-80350D01*
X88250Y-68500D02*
X88050Y-68500D01*
X85250Y-68500D02*
X85450Y-68500D01*
X85450Y-68500D02*
X85450Y-68900D01*
X85450Y-68900D02*
X88050Y-68900D01*
X88050Y-68900D02*
X88050Y-68100D01*
X88050Y-68100D02*
X85450Y-68100D01*
X85450Y-68100D02*
X85450Y-68500D01*
X88050Y-68700D02*
X87850Y-68900D01*
X94000Y-53500D02*
X94000Y-53700D01*
X94000Y-56500D02*
X94000Y-56300D01*
X94000Y-56300D02*
X94400Y-56300D01*
X94400Y-56300D02*
X94400Y-53700D01*
X94400Y-53700D02*
X93600Y-53700D01*
X93600Y-53700D02*
X93600Y-56300D01*
X93600Y-56300D02*
X94000Y-56300D01*
X94200Y-53700D02*
X94400Y-53900D01*
X94000Y-49250D02*
X94000Y-49450D01*
X94000Y-52250D02*
X94000Y-52050D01*
X94000Y-52050D02*
X94400Y-52050D01*
X94400Y-52050D02*
X94400Y-49450D01*
X94400Y-49450D02*
X93600Y-49450D01*
X93600Y-49450D02*
X93600Y-52050D01*
X93600Y-52050D02*
X94000Y-52050D01*
X94200Y-49450D02*
X94400Y-49650D01*
G54D11*
X83770Y-41250D02*
X85750Y-41250D01*
X85750Y-41250D02*
X85750Y-42250D01*
X85750Y-42250D02*
X83750Y-42250D01*
X83750Y-42250D02*
X83750Y-41250D01*
X83750Y-41500D02*
X84000Y-41250D01*
X83770Y-65000D02*
X85750Y-65000D01*
X85750Y-65000D02*
X85750Y-66000D01*
X85750Y-66000D02*
X83750Y-66000D01*
X83750Y-66000D02*
X83750Y-65000D01*
X83750Y-65250D02*
X84000Y-65000D01*
X68250Y-76270D02*
X68250Y-78250D01*
X68250Y-78250D02*
X67250Y-78250D01*
X67250Y-78250D02*
X67250Y-76250D01*
X67250Y-76250D02*
X68250Y-76250D01*
X68000Y-76250D02*
X68250Y-76500D01*
X44750Y-76270D02*
X44750Y-78250D01*
X44750Y-78250D02*
X43750Y-78250D01*
X43750Y-78250D02*
X43750Y-76250D01*
X43750Y-76250D02*
X44750Y-76250D01*
X44500Y-76250D02*
X44750Y-76500D01*
X33480Y-60750D02*
X31500Y-60750D01*
X31500Y-60750D02*
X31500Y-59750D01*
X31500Y-59750D02*
X33500Y-59750D01*
X33500Y-59750D02*
X33500Y-60750D01*
X33500Y-60500D02*
X33250Y-60750D01*
X33480Y-37250D02*
X31500Y-37250D01*
X31500Y-37250D02*
X31500Y-36250D01*
X31500Y-36250D02*
X33500Y-36250D01*
X33500Y-36250D02*
X33500Y-37250D01*
X33500Y-37000D02*
X33250Y-37250D01*
X48750Y-25980D02*
X48750Y-24000D01*
X48750Y-24000D02*
X49750Y-24000D01*
X49750Y-24000D02*
X49750Y-26000D01*
X49750Y-26000D02*
X48750Y-26000D01*
X49000Y-26000D02*
X48750Y-25750D01*
X72250Y-25980D02*
X72250Y-24000D01*
X72250Y-24000D02*
X73250Y-24000D01*
X73250Y-24000D02*
X73250Y-26000D01*
X73250Y-26000D02*
X72250Y-26000D01*
X72500Y-26000D02*
X72250Y-25750D01*
G54D12*
X104850Y-13150D02*
X106050Y-13150D01*
X106050Y-13150D02*
X106050Y-10350D01*
X106050Y-10350D02*
X104850Y-10350D01*
X103650Y-13150D02*
X103350Y-13150D01*
X103350Y-13150D02*
X102450Y-12550D01*
X102450Y-12550D02*
X102450Y-10950D01*
X102450Y-10950D02*
X103350Y-10350D01*
X103350Y-10350D02*
X103650Y-10350D01*
X104850Y-20900D02*
X106050Y-20900D01*
X106050Y-20900D02*
X106050Y-18100D01*
X106050Y-18100D02*
X104850Y-18100D01*
X103650Y-20900D02*
X103350Y-20900D01*
X103350Y-20900D02*
X102450Y-20300D01*
X102450Y-20300D02*
X102450Y-18700D01*
X102450Y-18700D02*
X103350Y-18100D01*
X103350Y-18100D02*
X103650Y-18100D01*
X104850Y-28900D02*
X106050Y-28900D01*
X106050Y-28900D02*
X106050Y-26100D01*
X106050Y-26100D02*
X104850Y-26100D01*
X103650Y-28900D02*
X103350Y-28900D01*
X103350Y-28900D02*
X102450Y-28300D01*
X102450Y-28300D02*
X102450Y-26700D01*
X102450Y-26700D02*
X103350Y-26100D01*
X103350Y-26100D02*
X103650Y-26100D01*
X104850Y-36650D02*
X106050Y-36650D01*
X106050Y-36650D02*
X106050Y-33850D01*
X106050Y-33850D02*
X104850Y-33850D01*
X103650Y-36650D02*
X103350Y-36650D01*
X103350Y-36650D02*
X102450Y-36050D01*
X102450Y-36050D02*
X102450Y-34450D01*
X102450Y-34450D02*
X103350Y-33850D01*
X103350Y-33850D02*
X103650Y-33850D01*
X104850Y-44650D02*
X106050Y-44650D01*
X106050Y-44650D02*
X106050Y-41850D01*
X106050Y-41850D02*
X104850Y-41850D01*
X103650Y-44650D02*
X103350Y-44650D01*
X103350Y-44650D02*
X102450Y-44050D01*
X102450Y-44050D02*
X102450Y-42450D01*
X102450Y-42450D02*
X103350Y-41850D01*
X103350Y-41850D02*
X103650Y-41850D01*
X104850Y-52400D02*
X106050Y-52400D01*
X106050Y-52400D02*
X106050Y-49600D01*
X106050Y-49600D02*
X104850Y-49600D01*
X103650Y-52400D02*
X103350Y-52400D01*
X103350Y-52400D02*
X102450Y-51800D01*
X102450Y-51800D02*
X102450Y-50200D01*
X102450Y-50200D02*
X103350Y-49600D01*
X103350Y-49600D02*
X103650Y-49600D01*
X104850Y-60400D02*
X106050Y-60400D01*
X106050Y-60400D02*
X106050Y-57600D01*
X106050Y-57600D02*
X104850Y-57600D01*
X103650Y-60400D02*
X103350Y-60400D01*
X103350Y-60400D02*
X102450Y-59800D01*
X102450Y-59800D02*
X102450Y-58200D01*
X102450Y-58200D02*
X103350Y-57600D01*
X103350Y-57600D02*
X103650Y-57600D01*
X104850Y-68150D02*
X106050Y-68150D01*
X106050Y-68150D02*
X106050Y-65350D01*
X106050Y-65350D02*
X104850Y-65350D01*
X103650Y-68150D02*
X103350Y-68150D01*
X103350Y-68150D02*
X102450Y-67550D01*
X102450Y-67550D02*
X102450Y-65950D01*
X102450Y-65950D02*
X103350Y-65350D01*
X103350Y-65350D02*
X103650Y-65350D01*
X104850Y-76150D02*
X106050Y-76150D01*
X106050Y-76150D02*
X106050Y-73350D01*
X106050Y-73350D02*
X104850Y-73350D01*
X103650Y-76150D02*
X103350Y-76150D01*
X103350Y-76150D02*
X102450Y-75550D01*
X102450Y-75550D02*
X102450Y-73950D01*
X102450Y-73950D02*
X103350Y-73350D01*
X103350Y-73350D02*
X103650Y-73350D01*
X104850Y-83900D02*
X106050Y-83900D01*
X106050Y-83900D02*
X106050Y-81100D01*
X106050Y-81100D02*
X104850Y-81100D01*
X103650Y-83900D02*
X103350Y-83900D01*
X103350Y-83900D02*
X102450Y-83300D01*
X102450Y-83300D02*
X102450Y-81700D01*
X102450Y-81700D02*
X103350Y-81100D01*
X103350Y-81100D02*
X103650Y-81100D01*
X104850Y-91650D02*
X106050Y-91650D01*
X106050Y-91650D02*
X106050Y-88850D01*
X106050Y-88850D02*
X104850Y-88850D01*
X103650Y-91650D02*
X103350Y-91650D01*
X103350Y-91650D02*
X102450Y-91050D01*
X102450Y-91050D02*
X102450Y-89450D01*
X102450Y-89450D02*
X103350Y-88850D01*
X103350Y-88850D02*
X103650Y-88850D01*
G54D13*
X92250Y-40250D02*
X77250Y-40250D01*
X77250Y-40250D02*
X77250Y-38250D01*
X77250Y-38250D02*
X92250Y-38250D01*
X92250Y-38250D02*
X92250Y-40250D01*
X92250Y-39750D02*
X91750Y-39750D01*
X91750Y-39750D02*
X91750Y-38750D01*
X91750Y-38750D02*
X92250Y-38750D01*
X71250Y-17500D02*
X71250Y-32500D01*
X71250Y-32500D02*
X69250Y-32500D01*
X69250Y-32500D02*
X69250Y-17500D01*
X69250Y-17500D02*
X71250Y-17500D01*
X70750Y-17500D02*
X70750Y-18000D01*
X70750Y-18000D02*
X69750Y-18000D01*
X69750Y-18000D02*
X69750Y-17500D01*
X47750Y-17500D02*
X47750Y-32500D01*
X47750Y-32500D02*
X45750Y-32500D01*
X45750Y-32500D02*
X45750Y-17500D01*
X45750Y-17500D02*
X47750Y-17500D01*
X47250Y-17500D02*
X47250Y-18000D01*
X47250Y-18000D02*
X46250Y-18000D01*
X46250Y-18000D02*
X46250Y-17500D01*
X25000Y-38250D02*
X40000Y-38250D01*
X40000Y-38250D02*
X40000Y-40250D01*
X40000Y-40250D02*
X25000Y-40250D01*
X25000Y-40250D02*
X25000Y-38250D01*
X25000Y-38750D02*
X25500Y-38750D01*
X25500Y-38750D02*
X25500Y-39750D01*
X25500Y-39750D02*
X25000Y-39750D01*
X25000Y-61750D02*
X40000Y-61750D01*
X40000Y-61750D02*
X40000Y-63750D01*
X40000Y-63750D02*
X25000Y-63750D01*
X25000Y-63750D02*
X25000Y-61750D01*
X25000Y-62250D02*
X25500Y-62250D01*
X25500Y-62250D02*
X25500Y-63250D01*
X25500Y-63250D02*
X25000Y-63250D01*
X45750Y-84750D02*
X45750Y-69750D01*
X45750Y-69750D02*
X47750Y-69750D01*
X47750Y-69750D02*
X47750Y-84750D01*
X47750Y-84750D02*
X45750Y-84750D01*
X46250Y-84750D02*
X46250Y-84250D01*
X46250Y-84250D02*
X47250Y-84250D01*
X47250Y-84250D02*
X47250Y-84750D01*
X69250Y-84750D02*
X69250Y-69750D01*
X69250Y-69750D02*
X71250Y-69750D01*
X71250Y-69750D02*
X71250Y-84750D01*
X71250Y-84750D02*
X69250Y-84750D01*
X69750Y-84750D02*
X69750Y-84250D01*
X69750Y-84250D02*
X70750Y-84250D01*
X70750Y-84250D02*
X70750Y-84750D01*
X92250Y-64000D02*
X77250Y-64000D01*
X77250Y-64000D02*
X77250Y-62000D01*
X77250Y-62000D02*
X92250Y-62000D01*
X92250Y-62000D02*
X92250Y-64000D01*
X92250Y-63500D02*
X91750Y-63500D01*
X91750Y-63500D02*
X91750Y-62500D01*
X91750Y-62500D02*
X92250Y-62500D01*
G54D11*
X108000Y-55000D02*
X109000Y-55000D01*
X109000Y-55000D02*
X109000Y-57000D01*
X109000Y-57000D02*
X108000Y-57000D01*
X108000Y-57000D02*
X108000Y-55000D01*
G54D14*
X112775Y-47020D02*
X112094Y-47020D01*
X112094Y-46857D01*
X112127Y-46816D01*
X112159Y-46796D01*
X112224Y-46776D01*
X112321Y-46776D01*
X112386Y-46796D01*
X112418Y-46816D01*
X112451Y-46857D01*
X112451Y-47020D01*
X112775Y-46368D02*
X112775Y-46612D01*
X112775Y-46490D02*
X112094Y-46490D01*
X112191Y-46531D01*
X112256Y-46572D01*
X112289Y-46612D01*
X112094Y-46225D02*
X112094Y-45960D01*
X112354Y-46103D01*
X112354Y-46041D01*
X112386Y-46001D01*
X112418Y-45980D01*
X112483Y-45960D01*
X112645Y-45960D01*
X112710Y-45980D01*
X112743Y-46001D01*
X112775Y-46041D01*
X112775Y-46164D01*
X112743Y-46204D01*
X112710Y-46225D01*
G54D15*
X112743Y-53309D02*
X112743Y-53500D01*
X112143Y-53500D01*
X112429Y-53176D02*
X112429Y-53042D01*
X112743Y-52985D02*
X112743Y-53176D01*
X112143Y-53176D01*
X112143Y-52985D01*
X112686Y-52585D02*
X112714Y-52604D01*
X112743Y-52661D01*
X112743Y-52699D01*
X112714Y-52757D01*
X112657Y-52795D01*
X112600Y-52814D01*
X112486Y-52833D01*
X112400Y-52833D01*
X112286Y-52814D01*
X112229Y-52795D01*
X112171Y-52757D01*
X112143Y-52699D01*
X112143Y-52661D01*
X112171Y-52604D01*
X112200Y-52585D01*
X112143Y-52414D02*
X112629Y-52414D01*
X112686Y-52395D01*
X112714Y-52376D01*
X112743Y-52338D01*
X112743Y-52261D01*
X112714Y-52223D01*
X112686Y-52204D01*
X112629Y-52185D01*
X112143Y-52185D01*
X112429Y-51861D02*
X112457Y-51804D01*
X112486Y-51785D01*
X112543Y-51766D01*
X112629Y-51766D01*
X112686Y-51785D01*
X112714Y-51804D01*
X112743Y-51842D01*
X112743Y-51995D01*
X112143Y-51995D01*
X112143Y-51861D01*
X112171Y-51823D01*
X112200Y-51804D01*
X112257Y-51785D01*
X112314Y-51785D01*
X112371Y-51804D01*
X112400Y-51823D01*
X112429Y-51861D01*
X112429Y-51995D01*
X112429Y-51595D02*
X112429Y-51461D01*
X112743Y-51404D02*
X112743Y-51595D01*
X112143Y-51595D01*
X112143Y-51404D01*
X112800Y-51328D02*
X112800Y-51023D01*
X112686Y-50699D02*
X112714Y-50718D01*
X112743Y-50775D01*
X112743Y-50813D01*
X112714Y-50871D01*
X112657Y-50909D01*
X112600Y-50928D01*
X112486Y-50947D01*
X112400Y-50947D01*
X112286Y-50928D01*
X112229Y-50909D01*
X112171Y-50871D01*
X112143Y-50813D01*
X112143Y-50775D01*
X112171Y-50718D01*
X112200Y-50699D01*
X112143Y-50452D02*
X112143Y-50375D01*
X112171Y-50337D01*
X112229Y-50299D01*
X112343Y-50280D01*
X112543Y-50280D01*
X112657Y-50299D01*
X112714Y-50337D01*
X112743Y-50375D01*
X112743Y-50452D01*
X112714Y-50490D01*
X112657Y-50528D01*
X112543Y-50547D01*
X112343Y-50547D01*
X112229Y-50528D01*
X112171Y-50490D01*
X112143Y-50452D01*
X112743Y-50109D02*
X112143Y-50109D01*
X112743Y-49880D01*
X112143Y-49880D01*
X112743Y-49480D02*
X112743Y-49709D01*
X112743Y-49595D02*
X112143Y-49595D01*
X112229Y-49633D01*
X112286Y-49671D01*
X112314Y-49709D01*
G54D14*
X110775Y-14020D02*
X110094Y-14020D01*
X110094Y-13857D01*
X110127Y-13816D01*
X110159Y-13796D01*
X110224Y-13776D01*
X110321Y-13776D01*
X110386Y-13796D01*
X110418Y-13816D01*
X110451Y-13857D01*
X110451Y-14020D01*
X110775Y-13368D02*
X110775Y-13612D01*
X110775Y-13490D02*
X110094Y-13490D01*
X110191Y-13531D01*
X110256Y-13572D01*
X110289Y-13612D01*
X110094Y-12980D02*
X110094Y-13184D01*
X110418Y-13204D01*
X110386Y-13184D01*
X110354Y-13143D01*
X110354Y-13041D01*
X110386Y-13001D01*
X110418Y-12980D01*
X110483Y-12960D01*
X110645Y-12960D01*
X110710Y-12980D01*
X110743Y-13001D01*
X110775Y-13041D01*
X110775Y-13143D01*
X110743Y-13184D01*
X110710Y-13204D01*
X112775Y-57520D02*
X112094Y-57520D01*
X112094Y-57357D01*
X112127Y-57316D01*
X112159Y-57296D01*
X112224Y-57276D01*
X112321Y-57276D01*
X112386Y-57296D01*
X112418Y-57316D01*
X112451Y-57357D01*
X112451Y-57520D01*
X112775Y-56868D02*
X112775Y-57112D01*
X112775Y-56990D02*
X112094Y-56990D01*
X112191Y-57031D01*
X112256Y-57072D01*
X112289Y-57112D01*
X112321Y-56501D02*
X112775Y-56501D01*
X112062Y-56603D02*
X112548Y-56704D01*
X112548Y-56440D01*
G54D15*
X112743Y-65009D02*
X112743Y-65200D01*
X112143Y-65200D01*
X112429Y-64876D02*
X112429Y-64742D01*
X112743Y-64685D02*
X112743Y-64876D01*
X112143Y-64876D01*
X112143Y-64685D01*
X112743Y-64514D02*
X112143Y-64514D01*
X112143Y-64419D01*
X112171Y-64361D01*
X112229Y-64323D01*
X112286Y-64304D01*
X112400Y-64285D01*
X112486Y-64285D01*
X112600Y-64304D01*
X112657Y-64323D01*
X112714Y-64361D01*
X112743Y-64419D01*
X112743Y-64514D01*
X112686Y-63885D02*
X112714Y-63904D01*
X112743Y-63961D01*
X112743Y-63999D01*
X112714Y-64057D01*
X112657Y-64095D01*
X112600Y-64114D01*
X112486Y-64133D01*
X112400Y-64133D01*
X112286Y-64114D01*
X112229Y-64095D01*
X112171Y-64057D01*
X112143Y-63999D01*
X112143Y-63961D01*
X112171Y-63904D01*
X112200Y-63885D01*
X112143Y-63714D02*
X112629Y-63714D01*
X112686Y-63695D01*
X112714Y-63676D01*
X112743Y-63638D01*
X112743Y-63561D01*
X112714Y-63523D01*
X112686Y-63504D01*
X112629Y-63485D01*
X112143Y-63485D01*
X112429Y-63161D02*
X112457Y-63104D01*
X112486Y-63085D01*
X112543Y-63066D01*
X112629Y-63066D01*
X112686Y-63085D01*
X112714Y-63104D01*
X112743Y-63142D01*
X112743Y-63295D01*
X112143Y-63295D01*
X112143Y-63161D01*
X112171Y-63123D01*
X112200Y-63104D01*
X112257Y-63085D01*
X112314Y-63085D01*
X112371Y-63104D01*
X112400Y-63123D01*
X112429Y-63161D01*
X112429Y-63295D01*
X112429Y-62895D02*
X112429Y-62761D01*
X112743Y-62704D02*
X112743Y-62895D01*
X112143Y-62895D01*
X112143Y-62704D01*
X112800Y-62628D02*
X112800Y-62323D01*
X112686Y-61999D02*
X112714Y-62018D01*
X112743Y-62075D01*
X112743Y-62113D01*
X112714Y-62171D01*
X112657Y-62209D01*
X112600Y-62228D01*
X112486Y-62247D01*
X112400Y-62247D01*
X112286Y-62228D01*
X112229Y-62209D01*
X112171Y-62171D01*
X112143Y-62113D01*
X112143Y-62075D01*
X112171Y-62018D01*
X112200Y-61999D01*
X112143Y-61752D02*
X112143Y-61675D01*
X112171Y-61637D01*
X112229Y-61599D01*
X112343Y-61580D01*
X112543Y-61580D01*
X112657Y-61599D01*
X112714Y-61637D01*
X112743Y-61675D01*
X112743Y-61752D01*
X112714Y-61790D01*
X112657Y-61828D01*
X112543Y-61847D01*
X112343Y-61847D01*
X112229Y-61828D01*
X112171Y-61790D01*
X112143Y-61752D01*
X112743Y-61409D02*
X112143Y-61409D01*
X112743Y-61180D01*
X112143Y-61180D01*
X112200Y-61009D02*
X112171Y-60990D01*
X112143Y-60952D01*
X112143Y-60856D01*
X112171Y-60818D01*
X112200Y-60799D01*
X112257Y-60780D01*
X112314Y-60780D01*
X112400Y-60799D01*
X112743Y-61028D01*
X112743Y-60780D01*
G54D12*
X106703Y-45673D02*
X106417Y-45673D01*
X106560Y-45673D02*
X106560Y-45123D01*
X106512Y-45201D01*
X106465Y-45254D01*
X106417Y-45280D01*
X107012Y-45123D02*
X107060Y-45123D01*
X107108Y-45149D01*
X107131Y-45175D01*
X107155Y-45227D01*
X107179Y-45332D01*
X107179Y-45463D01*
X107155Y-45568D01*
X107131Y-45620D01*
X107108Y-45646D01*
X107060Y-45673D01*
X107012Y-45673D01*
X106965Y-45646D01*
X106941Y-45620D01*
X106917Y-45568D01*
X106893Y-45463D01*
X106893Y-45332D01*
X106917Y-45227D01*
X106941Y-45175D01*
X106965Y-45149D01*
X107012Y-45123D01*
X107393Y-45673D02*
X107393Y-45123D01*
X107441Y-45463D02*
X107584Y-45673D01*
X107584Y-45306D02*
X107393Y-45515D01*
X106703Y-53923D02*
X106417Y-53923D01*
X106560Y-53923D02*
X106560Y-53373D01*
X106512Y-53451D01*
X106465Y-53504D01*
X106417Y-53530D01*
X107012Y-53373D02*
X107060Y-53373D01*
X107108Y-53399D01*
X107131Y-53425D01*
X107155Y-53477D01*
X107179Y-53582D01*
X107179Y-53713D01*
X107155Y-53818D01*
X107131Y-53870D01*
X107108Y-53896D01*
X107060Y-53923D01*
X107012Y-53923D01*
X106965Y-53896D01*
X106941Y-53870D01*
X106917Y-53818D01*
X106893Y-53713D01*
X106893Y-53582D01*
X106917Y-53477D01*
X106941Y-53425D01*
X106965Y-53399D01*
X107012Y-53373D01*
X107393Y-53923D02*
X107393Y-53373D01*
X107441Y-53713D02*
X107584Y-53923D01*
X107584Y-53556D02*
X107393Y-53765D01*
X106703Y-29923D02*
X106417Y-29923D01*
X106560Y-29923D02*
X106560Y-29373D01*
X106512Y-29451D01*
X106465Y-29504D01*
X106417Y-29530D01*
X107012Y-29373D02*
X107060Y-29373D01*
X107108Y-29399D01*
X107131Y-29425D01*
X107155Y-29477D01*
X107179Y-29582D01*
X107179Y-29713D01*
X107155Y-29818D01*
X107131Y-29870D01*
X107108Y-29896D01*
X107060Y-29923D01*
X107012Y-29923D01*
X106965Y-29896D01*
X106941Y-29870D01*
X106917Y-29818D01*
X106893Y-29713D01*
X106893Y-29582D01*
X106917Y-29477D01*
X106941Y-29425D01*
X106965Y-29399D01*
X107012Y-29373D01*
X107393Y-29923D02*
X107393Y-29373D01*
X107441Y-29713D02*
X107584Y-29923D01*
X107584Y-29556D02*
X107393Y-29765D01*
X106703Y-37673D02*
X106417Y-37673D01*
X106560Y-37673D02*
X106560Y-37123D01*
X106512Y-37201D01*
X106465Y-37254D01*
X106417Y-37280D01*
X107012Y-37123D02*
X107060Y-37123D01*
X107108Y-37149D01*
X107131Y-37175D01*
X107155Y-37227D01*
X107179Y-37332D01*
X107179Y-37463D01*
X107155Y-37568D01*
X107131Y-37620D01*
X107108Y-37646D01*
X107060Y-37673D01*
X107012Y-37673D01*
X106965Y-37646D01*
X106941Y-37620D01*
X106917Y-37568D01*
X106893Y-37463D01*
X106893Y-37332D01*
X106917Y-37227D01*
X106941Y-37175D01*
X106965Y-37149D01*
X107012Y-37123D01*
X107393Y-37673D02*
X107393Y-37123D01*
X107441Y-37463D02*
X107584Y-37673D01*
X107584Y-37306D02*
X107393Y-37515D01*
X106703Y-14173D02*
X106417Y-14173D01*
X106560Y-14173D02*
X106560Y-13623D01*
X106512Y-13701D01*
X106465Y-13754D01*
X106417Y-13780D01*
X107012Y-13623D02*
X107060Y-13623D01*
X107108Y-13649D01*
X107131Y-13675D01*
X107155Y-13727D01*
X107179Y-13832D01*
X107179Y-13963D01*
X107155Y-14068D01*
X107131Y-14120D01*
X107108Y-14146D01*
X107060Y-14173D01*
X107012Y-14173D01*
X106965Y-14146D01*
X106941Y-14120D01*
X106917Y-14068D01*
X106893Y-13963D01*
X106893Y-13832D01*
X106917Y-13727D01*
X106941Y-13675D01*
X106965Y-13649D01*
X107012Y-13623D01*
X107393Y-14173D02*
X107393Y-13623D01*
X107441Y-13963D02*
X107584Y-14173D01*
X107584Y-13806D02*
X107393Y-14015D01*
X106703Y-61423D02*
X106417Y-61423D01*
X106560Y-61423D02*
X106560Y-60873D01*
X106512Y-60951D01*
X106465Y-61004D01*
X106417Y-61030D01*
X107012Y-60873D02*
X107060Y-60873D01*
X107108Y-60899D01*
X107131Y-60925D01*
X107155Y-60977D01*
X107179Y-61082D01*
X107179Y-61213D01*
X107155Y-61318D01*
X107131Y-61370D01*
X107108Y-61396D01*
X107060Y-61423D01*
X107012Y-61423D01*
X106965Y-61396D01*
X106941Y-61370D01*
X106917Y-61318D01*
X106893Y-61213D01*
X106893Y-61082D01*
X106917Y-60977D01*
X106941Y-60925D01*
X106965Y-60899D01*
X107012Y-60873D01*
X107393Y-61423D02*
X107393Y-60873D01*
X107441Y-61213D02*
X107584Y-61423D01*
X107584Y-61056D02*
X107393Y-61265D01*
X106703Y-69173D02*
X106417Y-69173D01*
X106560Y-69173D02*
X106560Y-68623D01*
X106512Y-68701D01*
X106465Y-68754D01*
X106417Y-68780D01*
X107012Y-68623D02*
X107060Y-68623D01*
X107108Y-68649D01*
X107131Y-68675D01*
X107155Y-68727D01*
X107179Y-68832D01*
X107179Y-68963D01*
X107155Y-69068D01*
X107131Y-69120D01*
X107108Y-69146D01*
X107060Y-69173D01*
X107012Y-69173D01*
X106965Y-69146D01*
X106941Y-69120D01*
X106917Y-69068D01*
X106893Y-68963D01*
X106893Y-68832D01*
X106917Y-68727D01*
X106941Y-68675D01*
X106965Y-68649D01*
X107012Y-68623D01*
X107393Y-69173D02*
X107393Y-68623D01*
X107441Y-68963D02*
X107584Y-69173D01*
X107584Y-68806D02*
X107393Y-69015D01*
X106703Y-77173D02*
X106417Y-77173D01*
X106560Y-77173D02*
X106560Y-76623D01*
X106512Y-76701D01*
X106465Y-76754D01*
X106417Y-76780D01*
X107012Y-76623D02*
X107060Y-76623D01*
X107108Y-76649D01*
X107131Y-76675D01*
X107155Y-76727D01*
X107179Y-76832D01*
X107179Y-76963D01*
X107155Y-77068D01*
X107131Y-77120D01*
X107108Y-77146D01*
X107060Y-77173D01*
X107012Y-77173D01*
X106965Y-77146D01*
X106941Y-77120D01*
X106917Y-77068D01*
X106893Y-76963D01*
X106893Y-76832D01*
X106917Y-76727D01*
X106941Y-76675D01*
X106965Y-76649D01*
X107012Y-76623D01*
X107393Y-77173D02*
X107393Y-76623D01*
X107441Y-76963D02*
X107584Y-77173D01*
X107584Y-76806D02*
X107393Y-77015D01*
X106703Y-84923D02*
X106417Y-84923D01*
X106560Y-84923D02*
X106560Y-84373D01*
X106512Y-84451D01*
X106465Y-84504D01*
X106417Y-84530D01*
X107012Y-84373D02*
X107060Y-84373D01*
X107108Y-84399D01*
X107131Y-84425D01*
X107155Y-84477D01*
X107179Y-84582D01*
X107179Y-84713D01*
X107155Y-84818D01*
X107131Y-84870D01*
X107108Y-84896D01*
X107060Y-84923D01*
X107012Y-84923D01*
X106965Y-84896D01*
X106941Y-84870D01*
X106917Y-84818D01*
X106893Y-84713D01*
X106893Y-84582D01*
X106917Y-84477D01*
X106941Y-84425D01*
X106965Y-84399D01*
X107012Y-84373D01*
X107393Y-84923D02*
X107393Y-84373D01*
X107441Y-84713D02*
X107584Y-84923D01*
X107584Y-84556D02*
X107393Y-84765D01*
X108673Y-89797D02*
X108673Y-90083D01*
X108673Y-89940D02*
X108123Y-89940D01*
X108201Y-89988D01*
X108254Y-90035D01*
X108280Y-90083D01*
X108123Y-89488D02*
X108123Y-89440D01*
X108149Y-89392D01*
X108175Y-89369D01*
X108227Y-89345D01*
X108332Y-89321D01*
X108463Y-89321D01*
X108568Y-89345D01*
X108620Y-89369D01*
X108646Y-89392D01*
X108673Y-89440D01*
X108673Y-89488D01*
X108646Y-89535D01*
X108620Y-89559D01*
X108568Y-89583D01*
X108463Y-89607D01*
X108332Y-89607D01*
X108227Y-89583D01*
X108175Y-89559D01*
X108149Y-89535D01*
X108123Y-89488D01*
X108673Y-89107D02*
X108123Y-89107D01*
X108463Y-89059D02*
X108673Y-88916D01*
X108306Y-88916D02*
X108515Y-89107D01*
X106703Y-21923D02*
X106417Y-21923D01*
X106560Y-21923D02*
X106560Y-21373D01*
X106512Y-21451D01*
X106465Y-21504D01*
X106417Y-21530D01*
X107012Y-21373D02*
X107060Y-21373D01*
X107108Y-21399D01*
X107131Y-21425D01*
X107155Y-21477D01*
X107179Y-21582D01*
X107179Y-21713D01*
X107155Y-21818D01*
X107131Y-21870D01*
X107108Y-21896D01*
X107060Y-21923D01*
X107012Y-21923D01*
X106965Y-21896D01*
X106941Y-21870D01*
X106917Y-21818D01*
X106893Y-21713D01*
X106893Y-21582D01*
X106917Y-21477D01*
X106941Y-21425D01*
X106965Y-21399D01*
X107012Y-21373D01*
X107393Y-21923D02*
X107393Y-21373D01*
X107441Y-21713D02*
X107584Y-21923D01*
X107584Y-21556D02*
X107393Y-21765D01*
X86334Y-44923D02*
X86048Y-44923D01*
X86191Y-44923D02*
X86191Y-44373D01*
X86143Y-44451D01*
X86096Y-44504D01*
X86048Y-44530D01*
X86548Y-44870D02*
X86572Y-44896D01*
X86548Y-44923D01*
X86524Y-44896D01*
X86548Y-44870D01*
X86548Y-44923D01*
X86738Y-44373D02*
X87048Y-44373D01*
X86881Y-44582D01*
X86953Y-44582D01*
X87000Y-44608D01*
X87024Y-44635D01*
X87048Y-44687D01*
X87048Y-44818D01*
X87024Y-44870D01*
X87000Y-44896D01*
X86953Y-44923D01*
X86810Y-44923D01*
X86762Y-44896D01*
X86738Y-44870D01*
X87262Y-44923D02*
X87262Y-44373D01*
X87310Y-44713D02*
X87453Y-44923D01*
X87453Y-44556D02*
X87262Y-44765D01*
X75923Y-23464D02*
X75923Y-23750D01*
X75923Y-23607D02*
X75373Y-23607D01*
X75451Y-23655D01*
X75504Y-23702D01*
X75530Y-23750D01*
X75870Y-23250D02*
X75896Y-23226D01*
X75923Y-23250D01*
X75896Y-23274D01*
X75870Y-23250D01*
X75923Y-23250D01*
X75373Y-23060D02*
X75373Y-22750D01*
X75582Y-22917D01*
X75582Y-22845D01*
X75608Y-22798D01*
X75635Y-22774D01*
X75687Y-22750D01*
X75818Y-22750D01*
X75870Y-22774D01*
X75896Y-22798D01*
X75923Y-22845D01*
X75923Y-22988D01*
X75896Y-23036D01*
X75870Y-23060D01*
X75923Y-22536D02*
X75373Y-22536D01*
X75923Y-22250D02*
X75608Y-22465D01*
X75373Y-22250D02*
X75687Y-22536D01*
X52423Y-23416D02*
X52423Y-23702D01*
X52423Y-23559D02*
X51873Y-23559D01*
X51951Y-23607D01*
X52004Y-23654D01*
X52030Y-23702D01*
X52370Y-23202D02*
X52396Y-23178D01*
X52423Y-23202D01*
X52396Y-23226D01*
X52370Y-23202D01*
X52423Y-23202D01*
X51873Y-23012D02*
X51873Y-22702D01*
X52082Y-22869D01*
X52082Y-22797D01*
X52108Y-22750D01*
X52135Y-22726D01*
X52187Y-22702D01*
X52318Y-22702D01*
X52370Y-22726D01*
X52396Y-22750D01*
X52423Y-22797D01*
X52423Y-22940D01*
X52396Y-22988D01*
X52370Y-23012D01*
X52423Y-22488D02*
X51873Y-22488D01*
X52213Y-22440D02*
X52423Y-22297D01*
X52056Y-22297D02*
X52265Y-22488D01*
X30084Y-34023D02*
X29798Y-34023D01*
X29941Y-34023D02*
X29941Y-33473D01*
X29893Y-33551D01*
X29846Y-33604D01*
X29798Y-33630D01*
X30298Y-33970D02*
X30322Y-33996D01*
X30298Y-34023D01*
X30274Y-33996D01*
X30298Y-33970D01*
X30298Y-34023D01*
X30488Y-33473D02*
X30798Y-33473D01*
X30631Y-33682D01*
X30703Y-33682D01*
X30750Y-33708D01*
X30774Y-33735D01*
X30798Y-33787D01*
X30798Y-33918D01*
X30774Y-33970D01*
X30750Y-33996D01*
X30703Y-34023D01*
X30560Y-34023D01*
X30512Y-33996D01*
X30488Y-33970D01*
X31012Y-34023D02*
X31012Y-33473D01*
X31060Y-33813D02*
X31203Y-34023D01*
X31203Y-33656D02*
X31012Y-33865D01*
X30084Y-57523D02*
X29798Y-57523D01*
X29941Y-57523D02*
X29941Y-56973D01*
X29893Y-57051D01*
X29846Y-57104D01*
X29798Y-57130D01*
X30298Y-57470D02*
X30322Y-57496D01*
X30298Y-57523D01*
X30274Y-57496D01*
X30298Y-57470D01*
X30298Y-57523D01*
X30488Y-56973D02*
X30798Y-56973D01*
X30631Y-57182D01*
X30703Y-57182D01*
X30750Y-57208D01*
X30774Y-57235D01*
X30798Y-57287D01*
X30798Y-57418D01*
X30774Y-57470D01*
X30750Y-57496D01*
X30703Y-57523D01*
X30560Y-57523D01*
X30512Y-57496D01*
X30488Y-57470D01*
X31012Y-57523D02*
X31012Y-56973D01*
X31060Y-57313D02*
X31203Y-57523D01*
X31203Y-57156D02*
X31012Y-57365D01*
X41523Y-79666D02*
X41523Y-79952D01*
X41523Y-79809D02*
X40973Y-79809D01*
X41051Y-79857D01*
X41104Y-79904D01*
X41130Y-79952D01*
X41470Y-79452D02*
X41496Y-79428D01*
X41523Y-79452D01*
X41496Y-79476D01*
X41470Y-79452D01*
X41523Y-79452D01*
X40973Y-79262D02*
X40973Y-78952D01*
X41182Y-79119D01*
X41182Y-79047D01*
X41208Y-79000D01*
X41235Y-78976D01*
X41287Y-78952D01*
X41418Y-78952D01*
X41470Y-78976D01*
X41496Y-79000D01*
X41523Y-79047D01*
X41523Y-79190D01*
X41496Y-79238D01*
X41470Y-79262D01*
X41523Y-78738D02*
X40973Y-78738D01*
X41313Y-78690D02*
X41523Y-78547D01*
X41156Y-78547D02*
X41365Y-78738D01*
X65023Y-79666D02*
X65023Y-79952D01*
X65023Y-79809D02*
X64473Y-79809D01*
X64551Y-79857D01*
X64604Y-79904D01*
X64630Y-79952D01*
X64970Y-79452D02*
X64996Y-79428D01*
X65023Y-79452D01*
X64996Y-79476D01*
X64970Y-79452D01*
X65023Y-79452D01*
X64473Y-79262D02*
X64473Y-78952D01*
X64682Y-79119D01*
X64682Y-79047D01*
X64708Y-79000D01*
X64735Y-78976D01*
X64787Y-78952D01*
X64918Y-78952D01*
X64970Y-78976D01*
X64996Y-79000D01*
X65023Y-79047D01*
X65023Y-79190D01*
X64996Y-79238D01*
X64970Y-79262D01*
X65023Y-78738D02*
X64473Y-78738D01*
X64813Y-78690D02*
X65023Y-78547D01*
X64656Y-78547D02*
X64865Y-78738D01*
X86334Y-68673D02*
X86048Y-68673D01*
X86191Y-68673D02*
X86191Y-68123D01*
X86143Y-68201D01*
X86096Y-68254D01*
X86048Y-68280D01*
X86548Y-68620D02*
X86572Y-68646D01*
X86548Y-68673D01*
X86524Y-68646D01*
X86548Y-68620D01*
X86548Y-68673D01*
X86738Y-68123D02*
X87048Y-68123D01*
X86881Y-68332D01*
X86953Y-68332D01*
X87000Y-68358D01*
X87024Y-68385D01*
X87048Y-68437D01*
X87048Y-68568D01*
X87024Y-68620D01*
X87000Y-68646D01*
X86953Y-68673D01*
X86810Y-68673D01*
X86762Y-68646D01*
X86738Y-68620D01*
X87262Y-68673D02*
X87262Y-68123D01*
X87310Y-68463D02*
X87453Y-68673D01*
X87453Y-68306D02*
X87262Y-68515D01*
X94173Y-55535D02*
X94173Y-55821D01*
X94173Y-55678D02*
X93623Y-55678D01*
X93701Y-55726D01*
X93754Y-55773D01*
X93780Y-55821D01*
X93623Y-55226D02*
X93623Y-55178D01*
X93649Y-55130D01*
X93675Y-55107D01*
X93727Y-55083D01*
X93832Y-55059D01*
X93963Y-55059D01*
X94068Y-55083D01*
X94120Y-55107D01*
X94146Y-55130D01*
X94173Y-55178D01*
X94173Y-55226D01*
X94146Y-55273D01*
X94120Y-55297D01*
X94068Y-55321D01*
X93963Y-55345D01*
X93832Y-55345D01*
X93727Y-55321D01*
X93675Y-55297D01*
X93649Y-55273D01*
X93623Y-55226D01*
X93623Y-54750D02*
X93623Y-54702D01*
X93649Y-54654D01*
X93675Y-54631D01*
X93727Y-54607D01*
X93832Y-54583D01*
X93963Y-54583D01*
X94068Y-54607D01*
X94120Y-54631D01*
X94146Y-54654D01*
X94173Y-54702D01*
X94173Y-54750D01*
X94146Y-54797D01*
X94120Y-54821D01*
X94068Y-54845D01*
X93963Y-54869D01*
X93832Y-54869D01*
X93727Y-54845D01*
X93675Y-54821D01*
X93649Y-54797D01*
X93623Y-54750D01*
X94173Y-54369D02*
X93623Y-54369D01*
X93963Y-54321D02*
X94173Y-54178D01*
X93806Y-54178D02*
X94015Y-54369D01*
X94173Y-51047D02*
X94173Y-51333D01*
X94173Y-51190D02*
X93623Y-51190D01*
X93701Y-51238D01*
X93754Y-51285D01*
X93780Y-51333D01*
X93623Y-50738D02*
X93623Y-50690D01*
X93649Y-50642D01*
X93675Y-50619D01*
X93727Y-50595D01*
X93832Y-50571D01*
X93963Y-50571D01*
X94068Y-50595D01*
X94120Y-50619D01*
X94146Y-50642D01*
X94173Y-50690D01*
X94173Y-50738D01*
X94146Y-50785D01*
X94120Y-50809D01*
X94068Y-50833D01*
X93963Y-50857D01*
X93832Y-50857D01*
X93727Y-50833D01*
X93675Y-50809D01*
X93649Y-50785D01*
X93623Y-50738D01*
X94173Y-50357D02*
X93623Y-50357D01*
X93963Y-50309D02*
X94173Y-50166D01*
X93806Y-50166D02*
X94015Y-50357D01*
X84784Y-40974D02*
X84765Y-40993D01*
X84708Y-41012D01*
X84670Y-41012D01*
X84612Y-40993D01*
X84574Y-40955D01*
X84555Y-40917D01*
X84536Y-40840D01*
X84536Y-40783D01*
X84555Y-40707D01*
X84574Y-40669D01*
X84612Y-40631D01*
X84670Y-40612D01*
X84708Y-40612D01*
X84765Y-40631D01*
X84784Y-40650D01*
X85165Y-41012D02*
X84936Y-41012D01*
X85050Y-41012D02*
X85050Y-40612D01*
X85012Y-40669D01*
X84974Y-40707D01*
X84936Y-40726D01*
X84784Y-64724D02*
X84765Y-64743D01*
X84708Y-64762D01*
X84670Y-64762D01*
X84612Y-64743D01*
X84574Y-64705D01*
X84555Y-64667D01*
X84536Y-64590D01*
X84536Y-64533D01*
X84555Y-64457D01*
X84574Y-64419D01*
X84612Y-64381D01*
X84670Y-64362D01*
X84708Y-64362D01*
X84765Y-64381D01*
X84784Y-64400D01*
X85012Y-64533D02*
X84974Y-64514D01*
X84955Y-64495D01*
X84936Y-64457D01*
X84936Y-64438D01*
X84955Y-64400D01*
X84974Y-64381D01*
X85012Y-64362D01*
X85089Y-64362D01*
X85127Y-64381D01*
X85146Y-64400D01*
X85165Y-64438D01*
X85165Y-64457D01*
X85146Y-64495D01*
X85127Y-64514D01*
X85089Y-64533D01*
X85012Y-64533D01*
X84974Y-64552D01*
X84955Y-64571D01*
X84936Y-64610D01*
X84936Y-64686D01*
X84955Y-64724D01*
X84974Y-64743D01*
X85012Y-64762D01*
X85089Y-64762D01*
X85127Y-64743D01*
X85146Y-64724D01*
X85165Y-64686D01*
X85165Y-64610D01*
X85146Y-64571D01*
X85127Y-64552D01*
X85089Y-64533D01*
X68774Y-77416D02*
X68793Y-77435D01*
X68812Y-77492D01*
X68812Y-77530D01*
X68793Y-77588D01*
X68755Y-77626D01*
X68717Y-77645D01*
X68640Y-77664D01*
X68583Y-77664D01*
X68507Y-77645D01*
X68469Y-77626D01*
X68431Y-77588D01*
X68412Y-77530D01*
X68412Y-77492D01*
X68431Y-77435D01*
X68450Y-77416D01*
X68412Y-77283D02*
X68412Y-77016D01*
X68812Y-77188D01*
X45274Y-77416D02*
X45293Y-77435D01*
X45312Y-77492D01*
X45312Y-77530D01*
X45293Y-77588D01*
X45255Y-77626D01*
X45217Y-77645D01*
X45140Y-77664D01*
X45083Y-77664D01*
X45007Y-77645D01*
X44969Y-77626D01*
X44931Y-77588D01*
X44912Y-77530D01*
X44912Y-77492D01*
X44931Y-77435D01*
X44950Y-77416D01*
X44912Y-77073D02*
X44912Y-77150D01*
X44931Y-77188D01*
X44950Y-77207D01*
X45007Y-77245D01*
X45083Y-77264D01*
X45236Y-77264D01*
X45274Y-77245D01*
X45293Y-77226D01*
X45312Y-77188D01*
X45312Y-77111D01*
X45293Y-77073D01*
X45274Y-77054D01*
X45236Y-77035D01*
X45140Y-77035D01*
X45102Y-77054D01*
X45083Y-77073D01*
X45064Y-77111D01*
X45064Y-77188D01*
X45083Y-77226D01*
X45102Y-77245D01*
X45140Y-77264D01*
X32334Y-61274D02*
X32315Y-61293D01*
X32258Y-61312D01*
X32220Y-61312D01*
X32162Y-61293D01*
X32124Y-61255D01*
X32105Y-61217D01*
X32086Y-61140D01*
X32086Y-61083D01*
X32105Y-61007D01*
X32124Y-60969D01*
X32162Y-60931D01*
X32220Y-60912D01*
X32258Y-60912D01*
X32315Y-60931D01*
X32334Y-60950D01*
X32696Y-60912D02*
X32505Y-60912D01*
X32486Y-61102D01*
X32505Y-61083D01*
X32543Y-61064D01*
X32639Y-61064D01*
X32677Y-61083D01*
X32696Y-61102D01*
X32715Y-61140D01*
X32715Y-61236D01*
X32696Y-61274D01*
X32677Y-61293D01*
X32639Y-61312D01*
X32543Y-61312D01*
X32505Y-61293D01*
X32486Y-61274D01*
X32334Y-37774D02*
X32315Y-37793D01*
X32258Y-37812D01*
X32220Y-37812D01*
X32162Y-37793D01*
X32124Y-37755D01*
X32105Y-37717D01*
X32086Y-37640D01*
X32086Y-37583D01*
X32105Y-37507D01*
X32124Y-37469D01*
X32162Y-37431D01*
X32220Y-37412D01*
X32258Y-37412D01*
X32315Y-37431D01*
X32334Y-37450D01*
X32677Y-37545D02*
X32677Y-37812D01*
X32581Y-37393D02*
X32486Y-37679D01*
X32734Y-37679D01*
X48474Y-24966D02*
X48493Y-24985D01*
X48512Y-25042D01*
X48512Y-25080D01*
X48493Y-25138D01*
X48455Y-25176D01*
X48417Y-25195D01*
X48340Y-25214D01*
X48283Y-25214D01*
X48207Y-25195D01*
X48169Y-25176D01*
X48131Y-25138D01*
X48112Y-25080D01*
X48112Y-25042D01*
X48131Y-24985D01*
X48150Y-24966D01*
X48112Y-24833D02*
X48112Y-24585D01*
X48264Y-24719D01*
X48264Y-24661D01*
X48283Y-24623D01*
X48302Y-24604D01*
X48340Y-24585D01*
X48436Y-24585D01*
X48474Y-24604D01*
X48493Y-24623D01*
X48512Y-24661D01*
X48512Y-24776D01*
X48493Y-24814D01*
X48474Y-24833D01*
X71974Y-24966D02*
X71993Y-24985D01*
X72012Y-25042D01*
X72012Y-25080D01*
X71993Y-25138D01*
X71955Y-25176D01*
X71917Y-25195D01*
X71840Y-25214D01*
X71783Y-25214D01*
X71707Y-25195D01*
X71669Y-25176D01*
X71631Y-25138D01*
X71612Y-25080D01*
X71612Y-25042D01*
X71631Y-24985D01*
X71650Y-24966D01*
X71650Y-24814D02*
X71631Y-24795D01*
X71612Y-24757D01*
X71612Y-24661D01*
X71631Y-24623D01*
X71650Y-24604D01*
X71688Y-24585D01*
X71726Y-24585D01*
X71783Y-24604D01*
X72012Y-24833D01*
X72012Y-24585D01*
X103712Y-12055D02*
X103712Y-11826D01*
X104112Y-11941D02*
X103712Y-11941D01*
X104112Y-11483D02*
X104112Y-11712D01*
X104112Y-11598D02*
X103712Y-11598D01*
X103769Y-11636D01*
X103807Y-11674D01*
X103826Y-11712D01*
X104312Y-13245D02*
X104312Y-12978D01*
X104712Y-13245D01*
X104712Y-12978D01*
X104312Y-12864D02*
X104712Y-12597D01*
X104312Y-12597D02*
X104712Y-12864D01*
X104712Y-12445D02*
X104312Y-12445D01*
X104598Y-12311D01*
X104312Y-12178D01*
X104712Y-12178D01*
X104712Y-11988D02*
X104312Y-11988D01*
X104312Y-11835D01*
X104331Y-11797D01*
X104350Y-11778D01*
X104388Y-11759D01*
X104445Y-11759D01*
X104483Y-11778D01*
X104502Y-11797D01*
X104521Y-11835D01*
X104521Y-11988D01*
X104445Y-11416D02*
X104712Y-11416D01*
X104293Y-11512D02*
X104579Y-11607D01*
X104579Y-11359D01*
X104598Y-11226D02*
X104598Y-11035D01*
X104712Y-11264D02*
X104312Y-11131D01*
X104712Y-10997D01*
X104712Y-10654D02*
X104712Y-10883D01*
X104712Y-10769D02*
X104312Y-10769D01*
X104369Y-10807D01*
X104407Y-10845D01*
X104426Y-10883D01*
X104312Y-10311D02*
X104312Y-10388D01*
X104331Y-10426D01*
X104350Y-10445D01*
X104407Y-10483D01*
X104483Y-10502D01*
X104636Y-10502D01*
X104674Y-10483D01*
X104693Y-10464D01*
X104712Y-10426D01*
X104712Y-10349D01*
X104693Y-10311D01*
X104674Y-10292D01*
X104636Y-10273D01*
X104540Y-10273D01*
X104502Y-10292D01*
X104483Y-10311D01*
X104464Y-10349D01*
X104464Y-10426D01*
X104483Y-10464D01*
X104502Y-10483D01*
X104540Y-10502D01*
X103712Y-19805D02*
X103712Y-19576D01*
X104112Y-19691D02*
X103712Y-19691D01*
X103750Y-19462D02*
X103731Y-19443D01*
X103712Y-19405D01*
X103712Y-19309D01*
X103731Y-19271D01*
X103750Y-19252D01*
X103788Y-19233D01*
X103826Y-19233D01*
X103883Y-19252D01*
X104112Y-19481D01*
X104112Y-19233D01*
X104312Y-20995D02*
X104312Y-20728D01*
X104712Y-20995D01*
X104712Y-20728D01*
X104312Y-20614D02*
X104712Y-20347D01*
X104312Y-20347D02*
X104712Y-20614D01*
X104712Y-20195D02*
X104312Y-20195D01*
X104598Y-20061D01*
X104312Y-19928D01*
X104712Y-19928D01*
X104712Y-19738D02*
X104312Y-19738D01*
X104312Y-19585D01*
X104331Y-19547D01*
X104350Y-19528D01*
X104388Y-19509D01*
X104445Y-19509D01*
X104483Y-19528D01*
X104502Y-19547D01*
X104521Y-19585D01*
X104521Y-19738D01*
X104445Y-19166D02*
X104712Y-19166D01*
X104293Y-19262D02*
X104579Y-19357D01*
X104579Y-19109D01*
X104598Y-18976D02*
X104598Y-18785D01*
X104712Y-19014D02*
X104312Y-18881D01*
X104712Y-18747D01*
X104712Y-18404D02*
X104712Y-18633D01*
X104712Y-18519D02*
X104312Y-18519D01*
X104369Y-18557D01*
X104407Y-18595D01*
X104426Y-18633D01*
X104312Y-18061D02*
X104312Y-18138D01*
X104331Y-18176D01*
X104350Y-18195D01*
X104407Y-18233D01*
X104483Y-18252D01*
X104636Y-18252D01*
X104674Y-18233D01*
X104693Y-18214D01*
X104712Y-18176D01*
X104712Y-18099D01*
X104693Y-18061D01*
X104674Y-18042D01*
X104636Y-18023D01*
X104540Y-18023D01*
X104502Y-18042D01*
X104483Y-18061D01*
X104464Y-18099D01*
X104464Y-18176D01*
X104483Y-18214D01*
X104502Y-18233D01*
X104540Y-18252D01*
X103712Y-27805D02*
X103712Y-27576D01*
X104112Y-27691D02*
X103712Y-27691D01*
X103712Y-27481D02*
X103712Y-27233D01*
X103864Y-27367D01*
X103864Y-27309D01*
X103883Y-27271D01*
X103902Y-27252D01*
X103940Y-27233D01*
X104036Y-27233D01*
X104074Y-27252D01*
X104093Y-27271D01*
X104112Y-27309D01*
X104112Y-27424D01*
X104093Y-27462D01*
X104074Y-27481D01*
X104312Y-28995D02*
X104312Y-28728D01*
X104712Y-28995D01*
X104712Y-28728D01*
X104312Y-28614D02*
X104712Y-28347D01*
X104312Y-28347D02*
X104712Y-28614D01*
X104712Y-28195D02*
X104312Y-28195D01*
X104598Y-28061D01*
X104312Y-27928D01*
X104712Y-27928D01*
X104712Y-27738D02*
X104312Y-27738D01*
X104312Y-27585D01*
X104331Y-27547D01*
X104350Y-27528D01*
X104388Y-27509D01*
X104445Y-27509D01*
X104483Y-27528D01*
X104502Y-27547D01*
X104521Y-27585D01*
X104521Y-27738D01*
X104445Y-27166D02*
X104712Y-27166D01*
X104293Y-27262D02*
X104579Y-27357D01*
X104579Y-27109D01*
X104598Y-26976D02*
X104598Y-26785D01*
X104712Y-27014D02*
X104312Y-26881D01*
X104712Y-26747D01*
X104712Y-26404D02*
X104712Y-26633D01*
X104712Y-26519D02*
X104312Y-26519D01*
X104369Y-26557D01*
X104407Y-26595D01*
X104426Y-26633D01*
X104312Y-26061D02*
X104312Y-26138D01*
X104331Y-26176D01*
X104350Y-26195D01*
X104407Y-26233D01*
X104483Y-26252D01*
X104636Y-26252D01*
X104674Y-26233D01*
X104693Y-26214D01*
X104712Y-26176D01*
X104712Y-26099D01*
X104693Y-26061D01*
X104674Y-26042D01*
X104636Y-26023D01*
X104540Y-26023D01*
X104502Y-26042D01*
X104483Y-26061D01*
X104464Y-26099D01*
X104464Y-26176D01*
X104483Y-26214D01*
X104502Y-26233D01*
X104540Y-26252D01*
X103712Y-35555D02*
X103712Y-35326D01*
X104112Y-35441D02*
X103712Y-35441D01*
X103845Y-35021D02*
X104112Y-35021D01*
X103693Y-35117D02*
X103979Y-35212D01*
X103979Y-34964D01*
X104312Y-36745D02*
X104312Y-36478D01*
X104712Y-36745D01*
X104712Y-36478D01*
X104312Y-36364D02*
X104712Y-36097D01*
X104312Y-36097D02*
X104712Y-36364D01*
X104712Y-35945D02*
X104312Y-35945D01*
X104598Y-35811D01*
X104312Y-35678D01*
X104712Y-35678D01*
X104712Y-35488D02*
X104312Y-35488D01*
X104312Y-35335D01*
X104331Y-35297D01*
X104350Y-35278D01*
X104388Y-35259D01*
X104445Y-35259D01*
X104483Y-35278D01*
X104502Y-35297D01*
X104521Y-35335D01*
X104521Y-35488D01*
X104445Y-34916D02*
X104712Y-34916D01*
X104293Y-35012D02*
X104579Y-35107D01*
X104579Y-34859D01*
X104598Y-34726D02*
X104598Y-34535D01*
X104712Y-34764D02*
X104312Y-34631D01*
X104712Y-34497D01*
X104712Y-34154D02*
X104712Y-34383D01*
X104712Y-34269D02*
X104312Y-34269D01*
X104369Y-34307D01*
X104407Y-34345D01*
X104426Y-34383D01*
X104312Y-33811D02*
X104312Y-33888D01*
X104331Y-33926D01*
X104350Y-33945D01*
X104407Y-33983D01*
X104483Y-34002D01*
X104636Y-34002D01*
X104674Y-33983D01*
X104693Y-33964D01*
X104712Y-33926D01*
X104712Y-33849D01*
X104693Y-33811D01*
X104674Y-33792D01*
X104636Y-33773D01*
X104540Y-33773D01*
X104502Y-33792D01*
X104483Y-33811D01*
X104464Y-33849D01*
X104464Y-33926D01*
X104483Y-33964D01*
X104502Y-33983D01*
X104540Y-34002D01*
X103712Y-43555D02*
X103712Y-43326D01*
X104112Y-43441D02*
X103712Y-43441D01*
X103712Y-43002D02*
X103712Y-43193D01*
X103902Y-43212D01*
X103883Y-43193D01*
X103864Y-43155D01*
X103864Y-43059D01*
X103883Y-43021D01*
X103902Y-43002D01*
X103940Y-42983D01*
X104036Y-42983D01*
X104074Y-43002D01*
X104093Y-43021D01*
X104112Y-43059D01*
X104112Y-43155D01*
X104093Y-43193D01*
X104074Y-43212D01*
X104312Y-44745D02*
X104312Y-44478D01*
X104712Y-44745D01*
X104712Y-44478D01*
X104312Y-44364D02*
X104712Y-44097D01*
X104312Y-44097D02*
X104712Y-44364D01*
X104712Y-43945D02*
X104312Y-43945D01*
X104598Y-43811D01*
X104312Y-43678D01*
X104712Y-43678D01*
X104712Y-43488D02*
X104312Y-43488D01*
X104312Y-43335D01*
X104331Y-43297D01*
X104350Y-43278D01*
X104388Y-43259D01*
X104445Y-43259D01*
X104483Y-43278D01*
X104502Y-43297D01*
X104521Y-43335D01*
X104521Y-43488D01*
X104445Y-42916D02*
X104712Y-42916D01*
X104293Y-43012D02*
X104579Y-43107D01*
X104579Y-42859D01*
X104598Y-42726D02*
X104598Y-42535D01*
X104712Y-42764D02*
X104312Y-42631D01*
X104712Y-42497D01*
X104712Y-42154D02*
X104712Y-42383D01*
X104712Y-42269D02*
X104312Y-42269D01*
X104369Y-42307D01*
X104407Y-42345D01*
X104426Y-42383D01*
X104312Y-41811D02*
X104312Y-41888D01*
X104331Y-41926D01*
X104350Y-41945D01*
X104407Y-41983D01*
X104483Y-42002D01*
X104636Y-42002D01*
X104674Y-41983D01*
X104693Y-41964D01*
X104712Y-41926D01*
X104712Y-41849D01*
X104693Y-41811D01*
X104674Y-41792D01*
X104636Y-41773D01*
X104540Y-41773D01*
X104502Y-41792D01*
X104483Y-41811D01*
X104464Y-41849D01*
X104464Y-41926D01*
X104483Y-41964D01*
X104502Y-41983D01*
X104540Y-42002D01*
X103712Y-51305D02*
X103712Y-51076D01*
X104112Y-51191D02*
X103712Y-51191D01*
X103712Y-50771D02*
X103712Y-50848D01*
X103731Y-50886D01*
X103750Y-50905D01*
X103807Y-50943D01*
X103883Y-50962D01*
X104036Y-50962D01*
X104074Y-50943D01*
X104093Y-50924D01*
X104112Y-50886D01*
X104112Y-50809D01*
X104093Y-50771D01*
X104074Y-50752D01*
X104036Y-50733D01*
X103940Y-50733D01*
X103902Y-50752D01*
X103883Y-50771D01*
X103864Y-50809D01*
X103864Y-50886D01*
X103883Y-50924D01*
X103902Y-50943D01*
X103940Y-50962D01*
X104312Y-52495D02*
X104312Y-52228D01*
X104712Y-52495D01*
X104712Y-52228D01*
X104312Y-52114D02*
X104712Y-51847D01*
X104312Y-51847D02*
X104712Y-52114D01*
X104712Y-51695D02*
X104312Y-51695D01*
X104598Y-51561D01*
X104312Y-51428D01*
X104712Y-51428D01*
X104712Y-51238D02*
X104312Y-51238D01*
X104312Y-51085D01*
X104331Y-51047D01*
X104350Y-51028D01*
X104388Y-51009D01*
X104445Y-51009D01*
X104483Y-51028D01*
X104502Y-51047D01*
X104521Y-51085D01*
X104521Y-51238D01*
X104445Y-50666D02*
X104712Y-50666D01*
X104293Y-50762D02*
X104579Y-50857D01*
X104579Y-50609D01*
X104598Y-50476D02*
X104598Y-50285D01*
X104712Y-50514D02*
X104312Y-50381D01*
X104712Y-50247D01*
X104712Y-49904D02*
X104712Y-50133D01*
X104712Y-50019D02*
X104312Y-50019D01*
X104369Y-50057D01*
X104407Y-50095D01*
X104426Y-50133D01*
X104312Y-49561D02*
X104312Y-49638D01*
X104331Y-49676D01*
X104350Y-49695D01*
X104407Y-49733D01*
X104483Y-49752D01*
X104636Y-49752D01*
X104674Y-49733D01*
X104693Y-49714D01*
X104712Y-49676D01*
X104712Y-49599D01*
X104693Y-49561D01*
X104674Y-49542D01*
X104636Y-49523D01*
X104540Y-49523D01*
X104502Y-49542D01*
X104483Y-49561D01*
X104464Y-49599D01*
X104464Y-49676D01*
X104483Y-49714D01*
X104502Y-49733D01*
X104540Y-49752D01*
X103712Y-59305D02*
X103712Y-59076D01*
X104112Y-59191D02*
X103712Y-59191D01*
X103712Y-58981D02*
X103712Y-58714D01*
X104112Y-58886D01*
X104312Y-60495D02*
X104312Y-60228D01*
X104712Y-60495D01*
X104712Y-60228D01*
X104312Y-60114D02*
X104712Y-59847D01*
X104312Y-59847D02*
X104712Y-60114D01*
X104712Y-59695D02*
X104312Y-59695D01*
X104598Y-59561D01*
X104312Y-59428D01*
X104712Y-59428D01*
X104712Y-59238D02*
X104312Y-59238D01*
X104312Y-59085D01*
X104331Y-59047D01*
X104350Y-59028D01*
X104388Y-59009D01*
X104445Y-59009D01*
X104483Y-59028D01*
X104502Y-59047D01*
X104521Y-59085D01*
X104521Y-59238D01*
X104445Y-58666D02*
X104712Y-58666D01*
X104293Y-58762D02*
X104579Y-58857D01*
X104579Y-58609D01*
X104598Y-58476D02*
X104598Y-58285D01*
X104712Y-58514D02*
X104312Y-58381D01*
X104712Y-58247D01*
X104712Y-57904D02*
X104712Y-58133D01*
X104712Y-58019D02*
X104312Y-58019D01*
X104369Y-58057D01*
X104407Y-58095D01*
X104426Y-58133D01*
X104312Y-57561D02*
X104312Y-57638D01*
X104331Y-57676D01*
X104350Y-57695D01*
X104407Y-57733D01*
X104483Y-57752D01*
X104636Y-57752D01*
X104674Y-57733D01*
X104693Y-57714D01*
X104712Y-57676D01*
X104712Y-57599D01*
X104693Y-57561D01*
X104674Y-57542D01*
X104636Y-57523D01*
X104540Y-57523D01*
X104502Y-57542D01*
X104483Y-57561D01*
X104464Y-57599D01*
X104464Y-57676D01*
X104483Y-57714D01*
X104502Y-57733D01*
X104540Y-57752D01*
X103712Y-67055D02*
X103712Y-66826D01*
X104112Y-66941D02*
X103712Y-66941D01*
X103883Y-66636D02*
X103864Y-66674D01*
X103845Y-66693D01*
X103807Y-66712D01*
X103788Y-66712D01*
X103750Y-66693D01*
X103731Y-66674D01*
X103712Y-66636D01*
X103712Y-66559D01*
X103731Y-66521D01*
X103750Y-66502D01*
X103788Y-66483D01*
X103807Y-66483D01*
X103845Y-66502D01*
X103864Y-66521D01*
X103883Y-66559D01*
X103883Y-66636D01*
X103902Y-66674D01*
X103921Y-66693D01*
X103960Y-66712D01*
X104036Y-66712D01*
X104074Y-66693D01*
X104093Y-66674D01*
X104112Y-66636D01*
X104112Y-66559D01*
X104093Y-66521D01*
X104074Y-66502D01*
X104036Y-66483D01*
X103960Y-66483D01*
X103921Y-66502D01*
X103902Y-66521D01*
X103883Y-66559D01*
X104312Y-68245D02*
X104312Y-67978D01*
X104712Y-68245D01*
X104712Y-67978D01*
X104312Y-67864D02*
X104712Y-67597D01*
X104312Y-67597D02*
X104712Y-67864D01*
X104712Y-67445D02*
X104312Y-67445D01*
X104598Y-67311D01*
X104312Y-67178D01*
X104712Y-67178D01*
X104712Y-66988D02*
X104312Y-66988D01*
X104312Y-66835D01*
X104331Y-66797D01*
X104350Y-66778D01*
X104388Y-66759D01*
X104445Y-66759D01*
X104483Y-66778D01*
X104502Y-66797D01*
X104521Y-66835D01*
X104521Y-66988D01*
X104445Y-66416D02*
X104712Y-66416D01*
X104293Y-66512D02*
X104579Y-66607D01*
X104579Y-66359D01*
X104598Y-66226D02*
X104598Y-66035D01*
X104712Y-66264D02*
X104312Y-66131D01*
X104712Y-65997D01*
X104712Y-65654D02*
X104712Y-65883D01*
X104712Y-65769D02*
X104312Y-65769D01*
X104369Y-65807D01*
X104407Y-65845D01*
X104426Y-65883D01*
X104312Y-65311D02*
X104312Y-65388D01*
X104331Y-65426D01*
X104350Y-65445D01*
X104407Y-65483D01*
X104483Y-65502D01*
X104636Y-65502D01*
X104674Y-65483D01*
X104693Y-65464D01*
X104712Y-65426D01*
X104712Y-65349D01*
X104693Y-65311D01*
X104674Y-65292D01*
X104636Y-65273D01*
X104540Y-65273D01*
X104502Y-65292D01*
X104483Y-65311D01*
X104464Y-65349D01*
X104464Y-65426D01*
X104483Y-65464D01*
X104502Y-65483D01*
X104540Y-65502D01*
X103712Y-75055D02*
X103712Y-74826D01*
X104112Y-74941D02*
X103712Y-74941D01*
X104112Y-74674D02*
X104112Y-74598D01*
X104093Y-74559D01*
X104074Y-74540D01*
X104017Y-74502D01*
X103940Y-74483D01*
X103788Y-74483D01*
X103750Y-74502D01*
X103731Y-74521D01*
X103712Y-74559D01*
X103712Y-74636D01*
X103731Y-74674D01*
X103750Y-74693D01*
X103788Y-74712D01*
X103883Y-74712D01*
X103921Y-74693D01*
X103940Y-74674D01*
X103960Y-74636D01*
X103960Y-74559D01*
X103940Y-74521D01*
X103921Y-74502D01*
X103883Y-74483D01*
X104312Y-76245D02*
X104312Y-75978D01*
X104712Y-76245D01*
X104712Y-75978D01*
X104312Y-75864D02*
X104712Y-75597D01*
X104312Y-75597D02*
X104712Y-75864D01*
X104712Y-75445D02*
X104312Y-75445D01*
X104598Y-75311D01*
X104312Y-75178D01*
X104712Y-75178D01*
X104712Y-74988D02*
X104312Y-74988D01*
X104312Y-74835D01*
X104331Y-74797D01*
X104350Y-74778D01*
X104388Y-74759D01*
X104445Y-74759D01*
X104483Y-74778D01*
X104502Y-74797D01*
X104521Y-74835D01*
X104521Y-74988D01*
X104445Y-74416D02*
X104712Y-74416D01*
X104293Y-74512D02*
X104579Y-74607D01*
X104579Y-74359D01*
X104598Y-74226D02*
X104598Y-74035D01*
X104712Y-74264D02*
X104312Y-74131D01*
X104712Y-73997D01*
X104712Y-73654D02*
X104712Y-73883D01*
X104712Y-73769D02*
X104312Y-73769D01*
X104369Y-73807D01*
X104407Y-73845D01*
X104426Y-73883D01*
X104312Y-73311D02*
X104312Y-73388D01*
X104331Y-73426D01*
X104350Y-73445D01*
X104407Y-73483D01*
X104483Y-73502D01*
X104636Y-73502D01*
X104674Y-73483D01*
X104693Y-73464D01*
X104712Y-73426D01*
X104712Y-73349D01*
X104693Y-73311D01*
X104674Y-73292D01*
X104636Y-73273D01*
X104540Y-73273D01*
X104502Y-73292D01*
X104483Y-73311D01*
X104464Y-73349D01*
X104464Y-73426D01*
X104483Y-73464D01*
X104502Y-73483D01*
X104540Y-73502D01*
X103712Y-82995D02*
X103712Y-82766D01*
X104112Y-82881D02*
X103712Y-82881D01*
X104112Y-82423D02*
X104112Y-82652D01*
X104112Y-82538D02*
X103712Y-82538D01*
X103769Y-82576D01*
X103807Y-82614D01*
X103826Y-82652D01*
X103712Y-82176D02*
X103712Y-82137D01*
X103731Y-82099D01*
X103750Y-82080D01*
X103788Y-82061D01*
X103864Y-82042D01*
X103960Y-82042D01*
X104036Y-82061D01*
X104074Y-82080D01*
X104093Y-82099D01*
X104112Y-82137D01*
X104112Y-82176D01*
X104093Y-82214D01*
X104074Y-82233D01*
X104036Y-82252D01*
X103960Y-82271D01*
X103864Y-82271D01*
X103788Y-82252D01*
X103750Y-82233D01*
X103731Y-82214D01*
X103712Y-82176D01*
X104312Y-83995D02*
X104312Y-83728D01*
X104712Y-83995D01*
X104712Y-83728D01*
X104312Y-83614D02*
X104712Y-83347D01*
X104312Y-83347D02*
X104712Y-83614D01*
X104712Y-83195D02*
X104312Y-83195D01*
X104598Y-83061D01*
X104312Y-82928D01*
X104712Y-82928D01*
X104712Y-82738D02*
X104312Y-82738D01*
X104312Y-82585D01*
X104331Y-82547D01*
X104350Y-82528D01*
X104388Y-82509D01*
X104445Y-82509D01*
X104483Y-82528D01*
X104502Y-82547D01*
X104521Y-82585D01*
X104521Y-82738D01*
X104445Y-82166D02*
X104712Y-82166D01*
X104293Y-82262D02*
X104579Y-82357D01*
X104579Y-82109D01*
X104598Y-81976D02*
X104598Y-81785D01*
X104712Y-82014D02*
X104312Y-81881D01*
X104712Y-81747D01*
X104712Y-81404D02*
X104712Y-81633D01*
X104712Y-81519D02*
X104312Y-81519D01*
X104369Y-81557D01*
X104407Y-81595D01*
X104426Y-81633D01*
X104312Y-81061D02*
X104312Y-81138D01*
X104331Y-81176D01*
X104350Y-81195D01*
X104407Y-81233D01*
X104483Y-81252D01*
X104636Y-81252D01*
X104674Y-81233D01*
X104693Y-81214D01*
X104712Y-81176D01*
X104712Y-81099D01*
X104693Y-81061D01*
X104674Y-81042D01*
X104636Y-81023D01*
X104540Y-81023D01*
X104502Y-81042D01*
X104483Y-81061D01*
X104464Y-81099D01*
X104464Y-81176D01*
X104483Y-81214D01*
X104502Y-81233D01*
X104540Y-81252D01*
X103712Y-90745D02*
X103712Y-90516D01*
X104112Y-90631D02*
X103712Y-90631D01*
X104112Y-90173D02*
X104112Y-90402D01*
X104112Y-90288D02*
X103712Y-90288D01*
X103769Y-90326D01*
X103807Y-90364D01*
X103826Y-90402D01*
X104112Y-89792D02*
X104112Y-90021D01*
X104112Y-89907D02*
X103712Y-89907D01*
X103769Y-89945D01*
X103807Y-89983D01*
X103826Y-90021D01*
X104312Y-91745D02*
X104312Y-91478D01*
X104712Y-91745D01*
X104712Y-91478D01*
X104312Y-91364D02*
X104712Y-91097D01*
X104312Y-91097D02*
X104712Y-91364D01*
X104712Y-90945D02*
X104312Y-90945D01*
X104598Y-90811D01*
X104312Y-90678D01*
X104712Y-90678D01*
X104712Y-90488D02*
X104312Y-90488D01*
X104312Y-90335D01*
X104331Y-90297D01*
X104350Y-90278D01*
X104388Y-90259D01*
X104445Y-90259D01*
X104483Y-90278D01*
X104502Y-90297D01*
X104521Y-90335D01*
X104521Y-90488D01*
X104445Y-89916D02*
X104712Y-89916D01*
X104293Y-90012D02*
X104579Y-90107D01*
X104579Y-89859D01*
X104598Y-89726D02*
X104598Y-89535D01*
X104712Y-89764D02*
X104312Y-89631D01*
X104712Y-89497D01*
X104712Y-89154D02*
X104712Y-89383D01*
X104712Y-89269D02*
X104312Y-89269D01*
X104369Y-89307D01*
X104407Y-89345D01*
X104426Y-89383D01*
X104312Y-88811D02*
X104312Y-88888D01*
X104331Y-88926D01*
X104350Y-88945D01*
X104407Y-88983D01*
X104483Y-89002D01*
X104636Y-89002D01*
X104674Y-88983D01*
X104693Y-88964D01*
X104712Y-88926D01*
X104712Y-88849D01*
X104693Y-88811D01*
X104674Y-88792D01*
X104636Y-88773D01*
X104540Y-88773D01*
X104502Y-88792D01*
X104483Y-88811D01*
X104464Y-88849D01*
X104464Y-88926D01*
X104483Y-88964D01*
X104502Y-88983D01*
X104540Y-89002D01*
G54D11*
X58089Y-09929D02*
X58089Y-09329D01*
X58317Y-09329D01*
X58375Y-09357D01*
X58403Y-09386D01*
X58432Y-09443D01*
X58432Y-09529D01*
X58403Y-09586D01*
X58375Y-09615D01*
X58317Y-09643D01*
X58089Y-09643D01*
X59003Y-09929D02*
X58660Y-09929D01*
X58832Y-09929D02*
X58832Y-09329D01*
X58775Y-09415D01*
X58717Y-09472D01*
X58660Y-09500D01*
X58089Y-17803D02*
X58089Y-17203D01*
X58317Y-17203D01*
X58375Y-17231D01*
X58403Y-17260D01*
X58432Y-17317D01*
X58432Y-17403D01*
X58403Y-17460D01*
X58375Y-17489D01*
X58317Y-17517D01*
X58089Y-17517D01*
X58660Y-17260D02*
X58689Y-17231D01*
X58746Y-17203D01*
X58889Y-17203D01*
X58946Y-17231D01*
X58975Y-17260D01*
X59003Y-17317D01*
X59003Y-17374D01*
X58975Y-17460D01*
X58632Y-17803D01*
X59003Y-17803D01*
X58089Y-25677D02*
X58089Y-25077D01*
X58317Y-25077D01*
X58375Y-25105D01*
X58403Y-25134D01*
X58432Y-25191D01*
X58432Y-25277D01*
X58403Y-25334D01*
X58375Y-25363D01*
X58317Y-25391D01*
X58089Y-25391D01*
X58632Y-25077D02*
X59003Y-25077D01*
X58803Y-25305D01*
X58889Y-25305D01*
X58946Y-25334D01*
X58975Y-25363D01*
X59003Y-25420D01*
X59003Y-25563D01*
X58975Y-25620D01*
X58946Y-25648D01*
X58889Y-25677D01*
X58717Y-25677D01*
X58660Y-25648D01*
X58632Y-25620D01*
X58089Y-33551D02*
X58089Y-32951D01*
X58317Y-32951D01*
X58375Y-32979D01*
X58403Y-33008D01*
X58432Y-33065D01*
X58432Y-33151D01*
X58403Y-33208D01*
X58375Y-33237D01*
X58317Y-33265D01*
X58089Y-33265D01*
X58946Y-33151D02*
X58946Y-33551D01*
X58803Y-32922D02*
X58660Y-33351D01*
X59032Y-33351D01*
X58089Y-41425D02*
X58089Y-40825D01*
X58317Y-40825D01*
X58375Y-40853D01*
X58403Y-40882D01*
X58432Y-40939D01*
X58432Y-41025D01*
X58403Y-41082D01*
X58375Y-41111D01*
X58317Y-41139D01*
X58089Y-41139D01*
X58975Y-40825D02*
X58689Y-40825D01*
X58660Y-41111D01*
X58689Y-41082D01*
X58746Y-41053D01*
X58889Y-41053D01*
X58946Y-41082D01*
X58975Y-41111D01*
X59003Y-41168D01*
X59003Y-41311D01*
X58975Y-41368D01*
X58946Y-41396D01*
X58889Y-41425D01*
X58746Y-41425D01*
X58689Y-41396D01*
X58660Y-41368D01*
X58089Y-49299D02*
X58089Y-48699D01*
X58317Y-48699D01*
X58375Y-48727D01*
X58403Y-48756D01*
X58432Y-48813D01*
X58432Y-48899D01*
X58403Y-48956D01*
X58375Y-48985D01*
X58317Y-49013D01*
X58089Y-49013D01*
X58946Y-48699D02*
X58832Y-48699D01*
X58775Y-48727D01*
X58746Y-48756D01*
X58689Y-48842D01*
X58660Y-48956D01*
X58660Y-49185D01*
X58689Y-49242D01*
X58717Y-49270D01*
X58775Y-49299D01*
X58889Y-49299D01*
X58946Y-49270D01*
X58975Y-49242D01*
X59003Y-49185D01*
X59003Y-49042D01*
X58975Y-48985D01*
X58946Y-48956D01*
X58889Y-48927D01*
X58775Y-48927D01*
X58717Y-48956D01*
X58689Y-48985D01*
X58660Y-49042D01*
X58089Y-57173D02*
X58089Y-56573D01*
X58317Y-56573D01*
X58375Y-56601D01*
X58403Y-56630D01*
X58432Y-56687D01*
X58432Y-56773D01*
X58403Y-56830D01*
X58375Y-56859D01*
X58317Y-56887D01*
X58089Y-56887D01*
X58632Y-56573D02*
X59032Y-56573D01*
X58775Y-57173D01*
X58089Y-65047D02*
X58089Y-64447D01*
X58317Y-64447D01*
X58375Y-64475D01*
X58403Y-64504D01*
X58432Y-64561D01*
X58432Y-64647D01*
X58403Y-64704D01*
X58375Y-64733D01*
X58317Y-64761D01*
X58089Y-64761D01*
X58775Y-64704D02*
X58717Y-64675D01*
X58689Y-64647D01*
X58660Y-64590D01*
X58660Y-64561D01*
X58689Y-64504D01*
X58717Y-64475D01*
X58775Y-64447D01*
X58889Y-64447D01*
X58946Y-64475D01*
X58975Y-64504D01*
X59003Y-64561D01*
X59003Y-64590D01*
X58975Y-64647D01*
X58946Y-64675D01*
X58889Y-64704D01*
X58775Y-64704D01*
X58717Y-64733D01*
X58689Y-64761D01*
X58660Y-64818D01*
X58660Y-64933D01*
X58689Y-64990D01*
X58717Y-65018D01*
X58775Y-65047D01*
X58889Y-65047D01*
X58946Y-65018D01*
X58975Y-64990D01*
X59003Y-64933D01*
X59003Y-64818D01*
X58975Y-64761D01*
X58946Y-64733D01*
X58889Y-64704D01*
X58089Y-72921D02*
X58089Y-72321D01*
X58317Y-72321D01*
X58375Y-72349D01*
X58403Y-72378D01*
X58432Y-72435D01*
X58432Y-72521D01*
X58403Y-72578D01*
X58375Y-72607D01*
X58317Y-72635D01*
X58089Y-72635D01*
X58717Y-72921D02*
X58832Y-72921D01*
X58889Y-72892D01*
X58917Y-72864D01*
X58975Y-72778D01*
X59003Y-72664D01*
X59003Y-72435D01*
X58975Y-72378D01*
X58946Y-72349D01*
X58889Y-72321D01*
X58775Y-72321D01*
X58717Y-72349D01*
X58689Y-72378D01*
X58660Y-72435D01*
X58660Y-72578D01*
X58689Y-72635D01*
X58717Y-72664D01*
X58775Y-72692D01*
X58889Y-72692D01*
X58946Y-72664D01*
X58975Y-72635D01*
X59003Y-72578D01*
X57803Y-80795D02*
X57803Y-80195D01*
X58031Y-80195D01*
X58089Y-80223D01*
X58117Y-80252D01*
X58146Y-80309D01*
X58146Y-80395D01*
X58117Y-80452D01*
X58089Y-80481D01*
X58031Y-80509D01*
X57803Y-80509D01*
X58717Y-80795D02*
X58374Y-80795D01*
X58546Y-80795D02*
X58546Y-80195D01*
X58489Y-80281D01*
X58431Y-80338D01*
X58374Y-80366D01*
X59088Y-80195D02*
X59145Y-80195D01*
X59202Y-80223D01*
X59231Y-80252D01*
X59260Y-80309D01*
X59288Y-80423D01*
X59288Y-80566D01*
X59260Y-80681D01*
X59231Y-80738D01*
X59202Y-80766D01*
X59145Y-80795D01*
X59088Y-80795D01*
X59031Y-80766D01*
X59002Y-80738D01*
X58974Y-80681D01*
X58945Y-80566D01*
X58945Y-80423D01*
X58974Y-80309D01*
X59002Y-80252D01*
X59031Y-80223D01*
X59088Y-80195D01*
X57803Y-88669D02*
X57803Y-88069D01*
X58031Y-88069D01*
X58089Y-88097D01*
X58117Y-88126D01*
X58146Y-88183D01*
X58146Y-88269D01*
X58117Y-88326D01*
X58089Y-88355D01*
X58031Y-88383D01*
X57803Y-88383D01*
X58717Y-88669D02*
X58374Y-88669D01*
X58546Y-88669D02*
X58546Y-88069D01*
X58489Y-88155D01*
X58431Y-88212D01*
X58374Y-88240D01*
X59288Y-88669D02*
X58945Y-88669D01*
X59117Y-88669D02*
X59117Y-88069D01*
X59060Y-88155D01*
X59002Y-88212D01*
X58945Y-88240D01*
X97993Y-49728D02*
X97393Y-49728D01*
X97393Y-49500D01*
X97421Y-49442D01*
X97450Y-49414D01*
X97507Y-49385D01*
X97593Y-49385D01*
X97650Y-49414D01*
X97679Y-49442D01*
X97707Y-49500D01*
X97707Y-49728D01*
X97993Y-48814D02*
X97993Y-49157D01*
X97993Y-48985D02*
X97393Y-48985D01*
X97479Y-49042D01*
X97536Y-49100D01*
X97564Y-49157D01*
X97450Y-48586D02*
X97421Y-48557D01*
X97393Y-48500D01*
X97393Y-48357D01*
X97421Y-48300D01*
X97450Y-48271D01*
X97507Y-48243D01*
X97564Y-48243D01*
X97650Y-48271D01*
X97993Y-48614D01*
X97993Y-48243D01*
G54D16*
X88907Y-38893D02*
X88907Y-39379D01*
X88929Y-39436D01*
X88950Y-39464D01*
X88993Y-39493D01*
X89079Y-39493D01*
X89121Y-39464D01*
X89143Y-39436D01*
X89164Y-39379D01*
X89164Y-38893D01*
X89614Y-39493D02*
X89357Y-39493D01*
X89485Y-39493D02*
X89485Y-38893D01*
X89442Y-38979D01*
X89400Y-39036D01*
X89357Y-39064D01*
X80607Y-38893D02*
X80864Y-38893D01*
X80735Y-39493D02*
X80735Y-38893D01*
X81228Y-39493D02*
X81014Y-39493D01*
X81014Y-38893D01*
X81635Y-39436D02*
X81614Y-39464D01*
X81550Y-39493D01*
X81507Y-39493D01*
X81442Y-39464D01*
X81400Y-39407D01*
X81378Y-39350D01*
X81357Y-39236D01*
X81357Y-39150D01*
X81378Y-39036D01*
X81400Y-38979D01*
X81442Y-38921D01*
X81507Y-38893D01*
X81550Y-38893D01*
X81614Y-38921D01*
X81635Y-38950D01*
X82042Y-38893D02*
X81828Y-38893D01*
X81807Y-39179D01*
X81828Y-39150D01*
X81871Y-39121D01*
X81978Y-39121D01*
X82021Y-39150D01*
X82042Y-39179D01*
X82064Y-39236D01*
X82064Y-39379D01*
X82042Y-39436D01*
X82021Y-39464D01*
X81978Y-39493D01*
X81871Y-39493D01*
X81828Y-39464D01*
X81807Y-39436D01*
X82279Y-39493D02*
X82364Y-39493D01*
X82407Y-39464D01*
X82429Y-39436D01*
X82471Y-39350D01*
X82493Y-39236D01*
X82493Y-39007D01*
X82471Y-38950D01*
X82450Y-38921D01*
X82407Y-38893D01*
X82321Y-38893D01*
X82279Y-38921D01*
X82257Y-38950D01*
X82236Y-39007D01*
X82236Y-39150D01*
X82257Y-39207D01*
X82279Y-39236D01*
X82321Y-39264D01*
X82407Y-39264D01*
X82450Y-39236D01*
X82471Y-39207D01*
X82493Y-39150D01*
X82879Y-39093D02*
X82879Y-39493D01*
X82772Y-38864D02*
X82665Y-39293D01*
X82943Y-39293D01*
X83351Y-39493D02*
X83094Y-39493D01*
X83222Y-39493D02*
X83222Y-38893D01*
X83179Y-38979D01*
X83137Y-39036D01*
X83094Y-39064D01*
X69893Y-20843D02*
X70379Y-20843D01*
X70436Y-20821D01*
X70464Y-20800D01*
X70493Y-20757D01*
X70493Y-20671D01*
X70464Y-20629D01*
X70436Y-20607D01*
X70379Y-20586D01*
X69893Y-20586D01*
X69950Y-20393D02*
X69921Y-20372D01*
X69893Y-20329D01*
X69893Y-20222D01*
X69921Y-20179D01*
X69950Y-20158D01*
X70007Y-20136D01*
X70064Y-20136D01*
X70150Y-20158D01*
X70493Y-20415D01*
X70493Y-20136D01*
X69893Y-29143D02*
X69893Y-28886D01*
X70493Y-29015D02*
X69893Y-29015D01*
X70493Y-28522D02*
X70493Y-28736D01*
X69893Y-28736D01*
X70436Y-28115D02*
X70464Y-28136D01*
X70493Y-28200D01*
X70493Y-28243D01*
X70464Y-28308D01*
X70407Y-28350D01*
X70350Y-28372D01*
X70236Y-28393D01*
X70150Y-28393D01*
X70036Y-28372D01*
X69979Y-28350D01*
X69921Y-28308D01*
X69893Y-28243D01*
X69893Y-28200D01*
X69921Y-28136D01*
X69950Y-28115D01*
X69893Y-27708D02*
X69893Y-27922D01*
X70179Y-27943D01*
X70150Y-27922D01*
X70121Y-27879D01*
X70121Y-27772D01*
X70150Y-27729D01*
X70179Y-27708D01*
X70236Y-27686D01*
X70379Y-27686D01*
X70436Y-27708D01*
X70464Y-27729D01*
X70493Y-27772D01*
X70493Y-27879D01*
X70464Y-27922D01*
X70436Y-27943D01*
X70493Y-27471D02*
X70493Y-27386D01*
X70464Y-27343D01*
X70436Y-27321D01*
X70350Y-27279D01*
X70236Y-27257D01*
X70007Y-27257D01*
X69950Y-27279D01*
X69921Y-27300D01*
X69893Y-27343D01*
X69893Y-27429D01*
X69921Y-27471D01*
X69950Y-27493D01*
X70007Y-27514D01*
X70150Y-27514D01*
X70207Y-27493D01*
X70236Y-27471D01*
X70264Y-27429D01*
X70264Y-27343D01*
X70236Y-27300D01*
X70207Y-27279D01*
X70150Y-27257D01*
X70093Y-26871D02*
X70493Y-26871D01*
X69864Y-26978D02*
X70293Y-27085D01*
X70293Y-26807D01*
X70493Y-26399D02*
X70493Y-26656D01*
X70493Y-26528D02*
X69893Y-26528D01*
X69979Y-26571D01*
X70036Y-26613D01*
X70064Y-26656D01*
X46393Y-20843D02*
X46879Y-20843D01*
X46936Y-20821D01*
X46964Y-20800D01*
X46993Y-20757D01*
X46993Y-20671D01*
X46964Y-20629D01*
X46936Y-20607D01*
X46879Y-20586D01*
X46393Y-20586D01*
X46393Y-20415D02*
X46393Y-20136D01*
X46621Y-20286D01*
X46621Y-20222D01*
X46650Y-20179D01*
X46679Y-20158D01*
X46736Y-20136D01*
X46879Y-20136D01*
X46936Y-20158D01*
X46964Y-20179D01*
X46993Y-20222D01*
X46993Y-20350D01*
X46964Y-20393D01*
X46936Y-20415D01*
X46393Y-29143D02*
X46393Y-28886D01*
X46993Y-29015D02*
X46393Y-29015D01*
X46993Y-28522D02*
X46993Y-28736D01*
X46393Y-28736D01*
X46936Y-28115D02*
X46964Y-28136D01*
X46993Y-28200D01*
X46993Y-28243D01*
X46964Y-28308D01*
X46907Y-28350D01*
X46850Y-28372D01*
X46736Y-28393D01*
X46650Y-28393D01*
X46536Y-28372D01*
X46479Y-28350D01*
X46421Y-28308D01*
X46393Y-28243D01*
X46393Y-28200D01*
X46421Y-28136D01*
X46450Y-28115D01*
X46393Y-27708D02*
X46393Y-27922D01*
X46679Y-27943D01*
X46650Y-27922D01*
X46621Y-27879D01*
X46621Y-27772D01*
X46650Y-27729D01*
X46679Y-27708D01*
X46736Y-27686D01*
X46879Y-27686D01*
X46936Y-27708D01*
X46964Y-27729D01*
X46993Y-27772D01*
X46993Y-27879D01*
X46964Y-27922D01*
X46936Y-27943D01*
X46993Y-27471D02*
X46993Y-27386D01*
X46964Y-27343D01*
X46936Y-27321D01*
X46850Y-27279D01*
X46736Y-27257D01*
X46507Y-27257D01*
X46450Y-27279D01*
X46421Y-27300D01*
X46393Y-27343D01*
X46393Y-27429D01*
X46421Y-27471D01*
X46450Y-27493D01*
X46507Y-27514D01*
X46650Y-27514D01*
X46707Y-27493D01*
X46736Y-27471D01*
X46764Y-27429D01*
X46764Y-27343D01*
X46736Y-27300D01*
X46707Y-27279D01*
X46650Y-27257D01*
X46593Y-26871D02*
X46993Y-26871D01*
X46364Y-26978D02*
X46793Y-27085D01*
X46793Y-26807D01*
X46993Y-26399D02*
X46993Y-26656D01*
X46993Y-26528D02*
X46393Y-26528D01*
X46479Y-26571D01*
X46536Y-26613D01*
X46564Y-26656D01*
X27657Y-38893D02*
X27657Y-39379D01*
X27679Y-39436D01*
X27700Y-39464D01*
X27743Y-39493D01*
X27829Y-39493D01*
X27871Y-39464D01*
X27893Y-39436D01*
X27914Y-39379D01*
X27914Y-38893D01*
X28321Y-39093D02*
X28321Y-39493D01*
X28214Y-38864D02*
X28107Y-39293D01*
X28385Y-39293D01*
X33857Y-38893D02*
X34114Y-38893D01*
X33985Y-39493D02*
X33985Y-38893D01*
X34478Y-39493D02*
X34264Y-39493D01*
X34264Y-38893D01*
X34885Y-39436D02*
X34864Y-39464D01*
X34800Y-39493D01*
X34757Y-39493D01*
X34692Y-39464D01*
X34650Y-39407D01*
X34628Y-39350D01*
X34607Y-39236D01*
X34607Y-39150D01*
X34628Y-39036D01*
X34650Y-38979D01*
X34692Y-38921D01*
X34757Y-38893D01*
X34800Y-38893D01*
X34864Y-38921D01*
X34885Y-38950D01*
X35292Y-38893D02*
X35078Y-38893D01*
X35057Y-39179D01*
X35078Y-39150D01*
X35121Y-39121D01*
X35228Y-39121D01*
X35271Y-39150D01*
X35292Y-39179D01*
X35314Y-39236D01*
X35314Y-39379D01*
X35292Y-39436D01*
X35271Y-39464D01*
X35228Y-39493D01*
X35121Y-39493D01*
X35078Y-39464D01*
X35057Y-39436D01*
X35529Y-39493D02*
X35614Y-39493D01*
X35657Y-39464D01*
X35679Y-39436D01*
X35721Y-39350D01*
X35743Y-39236D01*
X35743Y-39007D01*
X35721Y-38950D01*
X35700Y-38921D01*
X35657Y-38893D01*
X35571Y-38893D01*
X35529Y-38921D01*
X35507Y-38950D01*
X35486Y-39007D01*
X35486Y-39150D01*
X35507Y-39207D01*
X35529Y-39236D01*
X35571Y-39264D01*
X35657Y-39264D01*
X35700Y-39236D01*
X35721Y-39207D01*
X35743Y-39150D01*
X36129Y-39093D02*
X36129Y-39493D01*
X36022Y-38864D02*
X35915Y-39293D01*
X36193Y-39293D01*
X36601Y-39493D02*
X36344Y-39493D01*
X36472Y-39493D02*
X36472Y-38893D01*
X36429Y-38979D01*
X36387Y-39036D01*
X36344Y-39064D01*
X27657Y-62393D02*
X27657Y-62879D01*
X27679Y-62936D01*
X27700Y-62964D01*
X27743Y-62993D01*
X27829Y-62993D01*
X27871Y-62964D01*
X27893Y-62936D01*
X27914Y-62879D01*
X27914Y-62393D01*
X28342Y-62393D02*
X28128Y-62393D01*
X28107Y-62679D01*
X28128Y-62650D01*
X28171Y-62621D01*
X28278Y-62621D01*
X28321Y-62650D01*
X28342Y-62679D01*
X28364Y-62736D01*
X28364Y-62879D01*
X28342Y-62936D01*
X28321Y-62964D01*
X28278Y-62993D01*
X28171Y-62993D01*
X28128Y-62964D01*
X28107Y-62936D01*
X33857Y-62393D02*
X34114Y-62393D01*
X33985Y-62993D02*
X33985Y-62393D01*
X34478Y-62993D02*
X34264Y-62993D01*
X34264Y-62393D01*
X34885Y-62936D02*
X34864Y-62964D01*
X34800Y-62993D01*
X34757Y-62993D01*
X34692Y-62964D01*
X34650Y-62907D01*
X34628Y-62850D01*
X34607Y-62736D01*
X34607Y-62650D01*
X34628Y-62536D01*
X34650Y-62479D01*
X34692Y-62421D01*
X34757Y-62393D01*
X34800Y-62393D01*
X34864Y-62421D01*
X34885Y-62450D01*
X35292Y-62393D02*
X35078Y-62393D01*
X35057Y-62679D01*
X35078Y-62650D01*
X35121Y-62621D01*
X35228Y-62621D01*
X35271Y-62650D01*
X35292Y-62679D01*
X35314Y-62736D01*
X35314Y-62879D01*
X35292Y-62936D01*
X35271Y-62964D01*
X35228Y-62993D01*
X35121Y-62993D01*
X35078Y-62964D01*
X35057Y-62936D01*
X35529Y-62993D02*
X35614Y-62993D01*
X35657Y-62964D01*
X35679Y-62936D01*
X35721Y-62850D01*
X35743Y-62736D01*
X35743Y-62507D01*
X35721Y-62450D01*
X35700Y-62421D01*
X35657Y-62393D01*
X35571Y-62393D01*
X35529Y-62421D01*
X35507Y-62450D01*
X35486Y-62507D01*
X35486Y-62650D01*
X35507Y-62707D01*
X35529Y-62736D01*
X35571Y-62764D01*
X35657Y-62764D01*
X35700Y-62736D01*
X35721Y-62707D01*
X35743Y-62650D01*
X36129Y-62593D02*
X36129Y-62993D01*
X36022Y-62364D02*
X35915Y-62793D01*
X36193Y-62793D01*
X36601Y-62993D02*
X36344Y-62993D01*
X36472Y-62993D02*
X36472Y-62393D01*
X36429Y-62479D01*
X36387Y-62536D01*
X36344Y-62564D01*
X46393Y-82093D02*
X46879Y-82093D01*
X46936Y-82071D01*
X46964Y-82050D01*
X46993Y-82007D01*
X46993Y-81921D01*
X46964Y-81879D01*
X46936Y-81857D01*
X46879Y-81836D01*
X46393Y-81836D01*
X46393Y-81429D02*
X46393Y-81515D01*
X46421Y-81558D01*
X46450Y-81579D01*
X46536Y-81622D01*
X46650Y-81643D01*
X46879Y-81643D01*
X46936Y-81622D01*
X46964Y-81600D01*
X46993Y-81558D01*
X46993Y-81472D01*
X46964Y-81429D01*
X46936Y-81408D01*
X46879Y-81386D01*
X46736Y-81386D01*
X46679Y-81408D01*
X46650Y-81429D01*
X46621Y-81472D01*
X46621Y-81558D01*
X46650Y-81600D01*
X46679Y-81622D01*
X46736Y-81643D01*
X46393Y-75893D02*
X46393Y-75636D01*
X46993Y-75765D02*
X46393Y-75765D01*
X46993Y-75272D02*
X46993Y-75486D01*
X46393Y-75486D01*
X46936Y-74865D02*
X46964Y-74886D01*
X46993Y-74950D01*
X46993Y-74993D01*
X46964Y-75058D01*
X46907Y-75100D01*
X46850Y-75122D01*
X46736Y-75143D01*
X46650Y-75143D01*
X46536Y-75122D01*
X46479Y-75100D01*
X46421Y-75058D01*
X46393Y-74993D01*
X46393Y-74950D01*
X46421Y-74886D01*
X46450Y-74865D01*
X46393Y-74458D02*
X46393Y-74672D01*
X46679Y-74693D01*
X46650Y-74672D01*
X46621Y-74629D01*
X46621Y-74522D01*
X46650Y-74479D01*
X46679Y-74458D01*
X46736Y-74436D01*
X46879Y-74436D01*
X46936Y-74458D01*
X46964Y-74479D01*
X46993Y-74522D01*
X46993Y-74629D01*
X46964Y-74672D01*
X46936Y-74693D01*
X46993Y-74221D02*
X46993Y-74136D01*
X46964Y-74093D01*
X46936Y-74071D01*
X46850Y-74029D01*
X46736Y-74007D01*
X46507Y-74007D01*
X46450Y-74029D01*
X46421Y-74050D01*
X46393Y-74093D01*
X46393Y-74179D01*
X46421Y-74221D01*
X46450Y-74243D01*
X46507Y-74264D01*
X46650Y-74264D01*
X46707Y-74243D01*
X46736Y-74221D01*
X46764Y-74179D01*
X46764Y-74093D01*
X46736Y-74050D01*
X46707Y-74029D01*
X46650Y-74007D01*
X46593Y-73621D02*
X46993Y-73621D01*
X46364Y-73728D02*
X46793Y-73835D01*
X46793Y-73557D01*
X46993Y-73149D02*
X46993Y-73406D01*
X46993Y-73278D02*
X46393Y-73278D01*
X46479Y-73321D01*
X46536Y-73363D01*
X46564Y-73406D01*
X69893Y-82093D02*
X70379Y-82093D01*
X70436Y-82071D01*
X70464Y-82050D01*
X70493Y-82007D01*
X70493Y-81921D01*
X70464Y-81879D01*
X70436Y-81857D01*
X70379Y-81836D01*
X69893Y-81836D01*
X69893Y-81665D02*
X69893Y-81365D01*
X70493Y-81558D01*
X69893Y-75893D02*
X69893Y-75636D01*
X70493Y-75765D02*
X69893Y-75765D01*
X70493Y-75272D02*
X70493Y-75486D01*
X69893Y-75486D01*
X70436Y-74865D02*
X70464Y-74886D01*
X70493Y-74950D01*
X70493Y-74993D01*
X70464Y-75058D01*
X70407Y-75100D01*
X70350Y-75122D01*
X70236Y-75143D01*
X70150Y-75143D01*
X70036Y-75122D01*
X69979Y-75100D01*
X69921Y-75058D01*
X69893Y-74993D01*
X69893Y-74950D01*
X69921Y-74886D01*
X69950Y-74865D01*
X69893Y-74458D02*
X69893Y-74672D01*
X70179Y-74693D01*
X70150Y-74672D01*
X70121Y-74629D01*
X70121Y-74522D01*
X70150Y-74479D01*
X70179Y-74458D01*
X70236Y-74436D01*
X70379Y-74436D01*
X70436Y-74458D01*
X70464Y-74479D01*
X70493Y-74522D01*
X70493Y-74629D01*
X70464Y-74672D01*
X70436Y-74693D01*
X70493Y-74221D02*
X70493Y-74136D01*
X70464Y-74093D01*
X70436Y-74071D01*
X70350Y-74029D01*
X70236Y-74007D01*
X70007Y-74007D01*
X69950Y-74029D01*
X69921Y-74050D01*
X69893Y-74093D01*
X69893Y-74179D01*
X69921Y-74221D01*
X69950Y-74243D01*
X70007Y-74264D01*
X70150Y-74264D01*
X70207Y-74243D01*
X70236Y-74221D01*
X70264Y-74179D01*
X70264Y-74093D01*
X70236Y-74050D01*
X70207Y-74029D01*
X70150Y-74007D01*
X70093Y-73621D02*
X70493Y-73621D01*
X69864Y-73728D02*
X70293Y-73835D01*
X70293Y-73557D01*
X70493Y-73149D02*
X70493Y-73406D01*
X70493Y-73278D02*
X69893Y-73278D01*
X69979Y-73321D01*
X70036Y-73363D01*
X70064Y-73406D01*
X88907Y-62643D02*
X88907Y-63129D01*
X88929Y-63186D01*
X88950Y-63214D01*
X88993Y-63243D01*
X89079Y-63243D01*
X89121Y-63214D01*
X89143Y-63186D01*
X89164Y-63129D01*
X89164Y-62643D01*
X89442Y-62900D02*
X89400Y-62871D01*
X89378Y-62843D01*
X89357Y-62786D01*
X89357Y-62757D01*
X89378Y-62700D01*
X89400Y-62671D01*
X89442Y-62643D01*
X89528Y-62643D01*
X89571Y-62671D01*
X89592Y-62700D01*
X89614Y-62757D01*
X89614Y-62786D01*
X89592Y-62843D01*
X89571Y-62871D01*
X89528Y-62900D01*
X89442Y-62900D01*
X89400Y-62929D01*
X89378Y-62957D01*
X89357Y-63014D01*
X89357Y-63129D01*
X89378Y-63186D01*
X89400Y-63214D01*
X89442Y-63243D01*
X89528Y-63243D01*
X89571Y-63214D01*
X89592Y-63186D01*
X89614Y-63129D01*
X89614Y-63014D01*
X89592Y-62957D01*
X89571Y-62929D01*
X89528Y-62900D01*
X80607Y-62643D02*
X80864Y-62643D01*
X80735Y-63243D02*
X80735Y-62643D01*
X81228Y-63243D02*
X81014Y-63243D01*
X81014Y-62643D01*
X81635Y-63186D02*
X81614Y-63214D01*
X81550Y-63243D01*
X81507Y-63243D01*
X81442Y-63214D01*
X81400Y-63157D01*
X81378Y-63100D01*
X81357Y-62986D01*
X81357Y-62900D01*
X81378Y-62786D01*
X81400Y-62729D01*
X81442Y-62671D01*
X81507Y-62643D01*
X81550Y-62643D01*
X81614Y-62671D01*
X81635Y-62700D01*
X82042Y-62643D02*
X81828Y-62643D01*
X81807Y-62929D01*
X81828Y-62900D01*
X81871Y-62871D01*
X81978Y-62871D01*
X82021Y-62900D01*
X82042Y-62929D01*
X82064Y-62986D01*
X82064Y-63129D01*
X82042Y-63186D01*
X82021Y-63214D01*
X81978Y-63243D01*
X81871Y-63243D01*
X81828Y-63214D01*
X81807Y-63186D01*
X82279Y-63243D02*
X82364Y-63243D01*
X82407Y-63214D01*
X82429Y-63186D01*
X82471Y-63100D01*
X82493Y-62986D01*
X82493Y-62757D01*
X82471Y-62700D01*
X82450Y-62671D01*
X82407Y-62643D01*
X82321Y-62643D01*
X82279Y-62671D01*
X82257Y-62700D01*
X82236Y-62757D01*
X82236Y-62900D01*
X82257Y-62957D01*
X82279Y-62986D01*
X82321Y-63014D01*
X82407Y-63014D01*
X82450Y-62986D01*
X82471Y-62957D01*
X82493Y-62900D01*
X82879Y-62843D02*
X82879Y-63243D01*
X82772Y-62614D02*
X82665Y-63043D01*
X82943Y-63043D01*
X83351Y-63243D02*
X83094Y-63243D01*
X83222Y-63243D02*
X83222Y-62643D01*
X83179Y-62729D01*
X83137Y-62786D01*
X83094Y-62814D01*
G54D14*
X109775Y-56520D02*
X109094Y-56520D01*
X109094Y-56357D01*
X109127Y-56316D01*
X109159Y-56296D01*
X109224Y-56276D01*
X109321Y-56276D01*
X109386Y-56296D01*
X109418Y-56316D01*
X109451Y-56357D01*
X109451Y-56520D01*
X109775Y-55868D02*
X109775Y-56112D01*
X109775Y-55990D02*
X109094Y-55990D01*
X109191Y-56031D01*
X109256Y-56072D01*
X109289Y-56112D01*
X109094Y-55501D02*
X109094Y-55582D01*
X109127Y-55623D01*
X109159Y-55643D01*
X109256Y-55684D01*
X109386Y-55704D01*
X109645Y-55704D01*
X109710Y-55684D01*
X109743Y-55664D01*
X109775Y-55623D01*
X109775Y-55541D01*
X109743Y-55501D01*
X109710Y-55480D01*
X109645Y-55460D01*
X109483Y-55460D01*
X109418Y-55480D01*
X109386Y-55501D01*
X109354Y-55541D01*
X109354Y-55623D01*
X109386Y-55664D01*
X109418Y-55684D01*
X109483Y-55704D01*
M02*
