M48
;DRILL file {Pcbnew (2012-jan-04)-stable} date 2012-05-03T20:44:21 CEST
;FORMAT={-:-/ absolute / inch / decimal}
FMAT,2
INCH,TZ
T1C0.025
T2C0.032
T3C0.039
T4C0.118
%
G90
G05
M72
T1
X9.800Y-6.125
X9.800Y-6.325
X9.925Y-6.125
X9.925Y-6.325
T2
X2.600Y-3.775
X2.600Y-4.075
X2.600Y-6.125
X2.600Y-6.425
X2.700Y-3.775
X2.700Y-4.075
X2.700Y-6.125
X2.700Y-6.425
X2.800Y-3.775
X2.800Y-4.075
X2.800Y-6.125
X2.800Y-6.425
X2.900Y-3.375
X2.900Y-3.775
X2.900Y-4.075
X2.900Y-5.725
X2.900Y-6.125
X2.900Y-6.425
X3.000Y-3.775
X3.000Y-4.075
X3.000Y-6.125
X3.000Y-6.425
X3.100Y-3.775
X3.100Y-4.075
X3.100Y-6.125
X3.100Y-6.425
X3.200Y-3.375
X3.200Y-3.675
X3.200Y-3.775
X3.200Y-4.075
X3.200Y-5.725
X3.200Y-6.025
X3.200Y-6.125
X3.200Y-6.425
X3.300Y-3.675
X3.300Y-3.775
X3.300Y-4.075
X3.300Y-6.025
X3.300Y-6.125
X3.300Y-6.425
X3.400Y-3.775
X3.400Y-4.075
X3.400Y-6.125
X3.400Y-6.425
X3.500Y-3.775
X3.500Y-4.075
X3.500Y-6.125
X3.500Y-6.425
X3.600Y-3.775
X3.600Y-4.075
X3.600Y-6.125
X3.600Y-6.425
X3.700Y-3.775
X3.700Y-4.075
X3.700Y-6.125
X3.700Y-6.425
X3.800Y-3.775
X3.800Y-4.075
X3.800Y-6.125
X3.800Y-6.425
X3.900Y-3.775
X3.900Y-4.075
X3.900Y-6.125
X3.900Y-6.425
X4.125Y-7.775
X4.125Y-8.075
X4.425Y-7.675
X4.425Y-7.775
X4.525Y-1.850
X4.525Y-1.950
X4.525Y-2.050
X4.525Y-2.150
X4.525Y-2.250
X4.525Y-2.350
X4.525Y-2.450
X4.525Y-2.550
X4.525Y-2.650
X4.525Y-2.750
X4.525Y-2.850
X4.525Y-2.950
X4.525Y-3.050
X4.525Y-3.150
X4.525Y-7.075
X4.525Y-7.175
X4.525Y-7.275
X4.525Y-7.375
X4.525Y-7.475
X4.525Y-7.575
X4.525Y-7.675
X4.525Y-7.775
X4.525Y-7.875
X4.525Y-7.975
X4.525Y-8.075
X4.525Y-8.175
X4.525Y-8.275
X4.525Y-8.375
X4.825Y-1.850
X4.825Y-1.950
X4.825Y-2.050
X4.825Y-2.150
X4.825Y-2.250
X4.825Y-2.350
X4.825Y-2.450
X4.825Y-2.550
X4.825Y-2.650
X4.825Y-2.750
X4.825Y-2.850
X4.825Y-2.950
X4.825Y-3.050
X4.825Y-3.150
X4.825Y-7.075
X4.825Y-7.175
X4.825Y-7.275
X4.825Y-7.375
X4.825Y-7.475
X4.825Y-7.575
X4.825Y-7.675
X4.825Y-7.775
X4.825Y-7.875
X4.825Y-7.975
X4.825Y-8.075
X4.825Y-8.175
X4.825Y-8.275
X4.825Y-8.375
X4.925Y-2.450
X4.925Y-2.550
X5.225Y-2.150
X5.225Y-2.450
X6.475Y-7.775
X6.475Y-8.075
X6.775Y-7.675
X6.775Y-7.775
X6.875Y-1.850
X6.875Y-1.950
X6.875Y-2.050
X6.875Y-2.150
X6.875Y-2.250
X6.875Y-2.350
X6.875Y-2.450
X6.875Y-2.550
X6.875Y-2.650
X6.875Y-2.750
X6.875Y-2.850
X6.875Y-2.950
X6.875Y-3.050
X6.875Y-3.150
X6.875Y-7.075
X6.875Y-7.175
X6.875Y-7.275
X6.875Y-7.375
X6.875Y-7.475
X6.875Y-7.575
X6.875Y-7.675
X6.875Y-7.775
X6.875Y-7.875
X6.875Y-7.975
X6.875Y-8.075
X6.875Y-8.175
X6.875Y-8.275
X6.875Y-8.375
X7.175Y-1.850
X7.175Y-1.950
X7.175Y-2.050
X7.175Y-2.150
X7.175Y-2.250
X7.175Y-2.350
X7.175Y-2.450
X7.175Y-2.550
X7.175Y-2.650
X7.175Y-2.750
X7.175Y-2.850
X7.175Y-2.950
X7.175Y-3.050
X7.175Y-3.150
X7.175Y-7.075
X7.175Y-7.175
X7.175Y-7.275
X7.175Y-7.375
X7.175Y-7.475
X7.175Y-7.575
X7.175Y-7.675
X7.175Y-7.775
X7.175Y-7.875
X7.175Y-7.975
X7.175Y-8.075
X7.175Y-8.175
X7.175Y-8.275
X7.175Y-8.375
X7.275Y-2.450
X7.275Y-2.550
X7.575Y-2.150
X7.575Y-2.450
X7.825Y-3.775
X7.825Y-4.075
X7.825Y-6.150
X7.825Y-6.450
X7.925Y-3.775
X7.925Y-4.075
X7.925Y-6.150
X7.925Y-6.450
X8.025Y-3.775
X8.025Y-4.075
X8.025Y-6.150
X8.025Y-6.450
X8.125Y-3.775
X8.125Y-4.075
X8.125Y-6.150
X8.125Y-6.450
X8.225Y-3.775
X8.225Y-4.075
X8.225Y-6.150
X8.225Y-6.450
X8.325Y-3.775
X8.325Y-4.075
X8.325Y-6.150
X8.325Y-6.450
X8.425Y-3.775
X8.425Y-4.075
X8.425Y-4.175
X8.425Y-6.150
X8.425Y-6.450
X8.425Y-6.550
X8.525Y-3.775
X8.525Y-4.075
X8.525Y-4.175
X8.525Y-4.475
X8.525Y-6.150
X8.525Y-6.450
X8.525Y-6.550
X8.525Y-6.850
X8.625Y-3.775
X8.625Y-4.075
X8.625Y-6.150
X8.625Y-6.450
X8.725Y-3.775
X8.725Y-4.075
X8.725Y-6.150
X8.725Y-6.450
X8.825Y-3.775
X8.825Y-4.075
X8.825Y-4.475
X8.825Y-6.150
X8.825Y-6.450
X8.825Y-6.850
X8.925Y-3.775
X8.925Y-4.075
X8.925Y-6.150
X8.925Y-6.450
X9.025Y-3.775
X9.025Y-4.075
X9.025Y-6.150
X9.025Y-6.450
X9.125Y-3.775
X9.125Y-4.075
X9.125Y-6.150
X9.125Y-6.450
X9.400Y-4.925
X9.400Y-5.225
X9.400Y-5.350
X9.400Y-5.650
X10.550Y-1.400
X10.550Y-2.175
X10.550Y-2.975
X10.550Y-3.750
X10.550Y-4.550
X10.550Y-5.375
X10.550Y-6.125
X10.550Y-6.900
X10.550Y-7.700
X10.550Y-8.475
X10.850Y-1.400
X10.850Y-2.175
X10.850Y-2.975
X10.850Y-3.750
X10.850Y-4.550
X10.850Y-5.375
X10.850Y-5.550
X10.850Y-5.650
X10.850Y-6.125
X10.850Y-6.900
X10.850Y-7.700
X10.850Y-8.475
X10.850Y-8.800
X10.850Y-9.100
X11.150Y-1.300
X11.150Y-1.400
X11.150Y-4.550
X11.150Y-4.650
X11.150Y-4.750
X11.150Y-4.850
X11.150Y-4.950
X11.150Y-5.050
X11.150Y-5.150
X11.150Y-5.250
X11.150Y-5.350
X11.150Y-5.450
X11.150Y-5.550
X11.150Y-5.650
X11.150Y-5.750
X11.150Y-5.850
X11.150Y-5.950
X11.150Y-6.050
X11.150Y-6.150
X11.150Y-6.250
X11.150Y-6.350
X11.150Y-6.450
X11.150Y-6.550
T3
X9.575Y-1.750
X9.575Y-2.538
X9.575Y-3.325
X9.575Y-4.113
X9.575Y-4.950
X9.575Y-5.687
X9.575Y-6.475
X9.575Y-7.262
X9.575Y-8.050
X9.575Y-8.700
X9.700Y-1.525
T4
X1.916Y-1.169
X1.916Y-1.956
X1.916Y-2.743
X1.916Y-3.531
X1.916Y-4.318
X1.916Y-5.106
X1.916Y-5.893
X1.916Y-6.680
X1.916Y-7.468
X1.916Y-8.255
X1.916Y-9.043
X2.704Y-1.169
X2.704Y-1.956
X2.704Y-2.743
X2.704Y-3.531
X2.704Y-4.318
X2.704Y-5.106
X2.704Y-5.893
X2.704Y-6.680
X2.704Y-7.468
X2.704Y-8.255
X2.704Y-9.043
X3.491Y-1.169
X3.491Y-1.956
X3.491Y-2.743
X3.491Y-3.531
X3.491Y-4.318
X3.491Y-5.106
X3.491Y-5.893
X3.491Y-6.680
X3.491Y-7.468
X3.491Y-8.255
X3.491Y-9.043
X4.278Y-1.169
X4.278Y-1.956
X4.278Y-2.743
X4.278Y-3.531
X4.278Y-4.318
X4.278Y-5.106
X4.278Y-5.893
X4.278Y-6.680
X4.278Y-7.468
X4.278Y-8.255
X4.278Y-9.043
X5.066Y-1.169
X5.066Y-1.956
X5.066Y-2.743
X5.066Y-3.531
X5.066Y-4.318
X5.066Y-5.106
X5.066Y-5.893
X5.066Y-6.680
X5.066Y-7.468
X5.066Y-8.255
X5.066Y-9.043
X5.853Y-1.169
X5.853Y-1.956
X5.853Y-2.743
X5.853Y-3.531
X5.853Y-4.318
X5.853Y-5.106
X5.853Y-5.893
X5.853Y-6.680
X5.853Y-7.468
X5.853Y-8.255
X5.853Y-9.043
X6.641Y-1.169
X6.641Y-1.956
X6.641Y-2.743
X6.641Y-3.531
X6.641Y-4.318
X6.641Y-5.106
X6.641Y-5.893
X6.641Y-6.680
X6.641Y-7.468
X6.641Y-8.255
X6.641Y-9.043
X7.428Y-1.169
X7.428Y-1.956
X7.428Y-2.743
X7.428Y-3.531
X7.428Y-4.318
X7.428Y-5.106
X7.428Y-5.893
X7.428Y-6.680
X7.428Y-7.468
X7.428Y-8.255
X7.428Y-9.043
X8.215Y-1.169
X8.215Y-1.956
X8.215Y-2.743
X8.215Y-3.531
X8.215Y-4.318
X8.215Y-5.106
X8.215Y-5.893
X8.215Y-6.680
X8.215Y-7.468
X8.215Y-8.255
X8.215Y-9.043
X9.003Y-1.169
X9.003Y-1.956
X9.003Y-2.743
X9.003Y-3.531
X9.003Y-4.318
X9.003Y-5.106
X9.003Y-5.893
X9.003Y-6.680
X9.003Y-7.468
X9.003Y-8.255
X9.003Y-9.043
X9.790Y-1.169
X9.790Y-1.956
X9.790Y-2.743
X9.790Y-3.531
X9.790Y-4.318
X9.790Y-5.106
X9.790Y-5.893
X9.790Y-6.680
X9.790Y-7.468
X9.790Y-8.255
X9.790Y-9.043
T0
M30
